%TF.GenerationSoftware,KiCad,Pcbnew,9.0.3*%
%TF.CreationDate,2026-02-17T21:32:02+09:00*%
%TF.ProjectId,snes_usbhub,736e6573-5f75-4736-9268-75622e6b6963,rev?*%
%TF.SameCoordinates,Original*%
%TF.FileFunction,Soldermask,Top*%
%TF.FilePolarity,Negative*%
%FSLAX46Y46*%
G04 Gerber Fmt 4.6, Leading zero omitted, Abs format (unit mm)*
G04 Created by KiCad (PCBNEW 9.0.3) date 2026-02-17 21:32:02*
%MOMM*%
%LPD*%
G01*
G04 APERTURE LIST*
G04 Aperture macros list*
%AMRoundRect*
0 Rectangle with rounded corners*
0 $1 Rounding radius*
0 $2 $3 $4 $5 $6 $7 $8 $9 X,Y pos of 4 corners*
0 Add a 4 corners polygon primitive as box body*
4,1,4,$2,$3,$4,$5,$6,$7,$8,$9,$2,$3,0*
0 Add four circle primitives for the rounded corners*
1,1,$1+$1,$2,$3*
1,1,$1+$1,$4,$5*
1,1,$1+$1,$6,$7*
1,1,$1+$1,$8,$9*
0 Add four rect primitives between the rounded corners*
20,1,$1+$1,$2,$3,$4,$5,0*
20,1,$1+$1,$4,$5,$6,$7,0*
20,1,$1+$1,$6,$7,$8,$9,0*
20,1,$1+$1,$8,$9,$2,$3,0*%
%AMOutline4P*
0 Free polygon, 4 corners , with rotation*
0 The origin of the aperture is its center*
0 number of corners: always 4*
0 $1 to $8 corner X, Y*
0 $9 Rotation angle, in degrees counterclockwise*
0 create outline with 4 corners*
4,1,4,$1,$2,$3,$4,$5,$6,$7,$8,$1,$2,$9*%
G04 Aperture macros list end*
%ADD10RoundRect,0.250000X0.550000X-1.412500X0.550000X1.412500X-0.550000X1.412500X-0.550000X-1.412500X0*%
%ADD11C,1.300000*%
%ADD12RoundRect,0.225000X-0.250000X0.225000X-0.250000X-0.225000X0.250000X-0.225000X0.250000X0.225000X0*%
%ADD13RoundRect,0.225000X0.225000X0.250000X-0.225000X0.250000X-0.225000X-0.250000X0.225000X-0.250000X0*%
%ADD14RoundRect,0.200000X-0.200000X-0.275000X0.200000X-0.275000X0.200000X0.275000X-0.200000X0.275000X0*%
%ADD15R,1.200000X0.250000*%
%ADD16RoundRect,0.200000X0.200000X0.275000X-0.200000X0.275000X-0.200000X-0.275000X0.200000X-0.275000X0*%
%ADD17R,1.524000X1.524000*%
%ADD18C,1.524000*%
%ADD19C,3.500000*%
%ADD20R,0.500000X2.000000*%
%ADD21R,0.300000X2.300000*%
%ADD22Outline4P,-0.800000X-0.400000X0.800000X-0.400000X0.500000X0.400000X-0.500000X0.400000X90.000000*%
%ADD23Outline4P,-0.650000X-0.400000X0.650000X-0.400000X0.350000X0.400000X-0.350000X0.400000X90.000000*%
%ADD24O,0.900000X1.800000*%
%ADD25O,0.900000X1.500000*%
%ADD26Outline4P,-0.800000X-0.400000X0.800000X-0.400000X0.500000X0.400000X-0.500000X0.400000X270.000000*%
%ADD27Outline4P,-0.650000X-0.400000X0.650000X-0.400000X0.350000X0.400000X-0.350000X0.400000X270.000000*%
%ADD28RoundRect,0.218750X0.218750X0.256250X-0.218750X0.256250X-0.218750X-0.256250X0.218750X-0.256250X0*%
%ADD29RoundRect,0.225000X0.250000X-0.225000X0.250000X0.225000X-0.250000X0.225000X-0.250000X-0.225000X0*%
%ADD30RoundRect,0.225000X-0.225000X-0.250000X0.225000X-0.250000X0.225000X0.250000X-0.225000X0.250000X0*%
%ADD31RoundRect,0.250000X-0.450000X-0.350000X0.450000X-0.350000X0.450000X0.350000X-0.450000X0.350000X0*%
G04 APERTURE END LIST*
D10*
%TO.C,C1*%
X53800000Y-22737500D03*
X53800000Y-17662500D03*
%TD*%
D11*
%TO.C,H6*%
X93000000Y-7000000D03*
%TD*%
D12*
%TO.C,C30*%
X58200000Y-19225000D03*
X58200000Y-20775000D03*
%TD*%
D13*
%TO.C,C9*%
X42575000Y-5400000D03*
X41025000Y-5400000D03*
%TD*%
D14*
%TO.C,R2*%
X71550000Y-29310000D03*
X73200000Y-29310000D03*
%TD*%
D12*
%TO.C,C29*%
X72200000Y-19225000D03*
X72200000Y-20775000D03*
%TD*%
D15*
%TO.C,U3*%
X45600000Y-11500000D03*
X45600000Y-10970000D03*
X45600000Y-10450000D03*
X45600000Y-9910000D03*
X45600000Y-9390000D03*
X45600000Y-8850000D03*
X45600000Y-8320000D03*
X45600000Y-7800000D03*
X42000000Y-7800000D03*
X42000000Y-8320000D03*
X42000000Y-8850000D03*
X42000000Y-9390000D03*
X42000000Y-9910000D03*
X42000000Y-10450000D03*
X42000000Y-10970000D03*
X42000000Y-11500000D03*
%TD*%
D16*
%TO.C,R4*%
X44225000Y-31000000D03*
X42575000Y-31000000D03*
%TD*%
D10*
%TO.C,C3*%
X9200000Y-22337500D03*
X9200000Y-17262500D03*
%TD*%
D17*
%TO.C,J8*%
X30000000Y-23500000D03*
D18*
X32500000Y-23500000D03*
X34500000Y-23500000D03*
X37000000Y-23500000D03*
D19*
X26825000Y-26210000D03*
X40175000Y-26210000D03*
%TD*%
D20*
%TO.C,J3*%
X47810000Y-26825000D03*
X54210000Y-26825000D03*
X48610000Y-26825000D03*
X53410000Y-26825000D03*
D21*
X49760000Y-26675000D03*
X50760000Y-26675000D03*
X51260000Y-26675000D03*
X52760000Y-26675000D03*
X51760000Y-26675000D03*
X50260000Y-26675000D03*
D22*
X46010000Y-28025000D03*
D23*
X46010000Y-32205000D03*
D24*
X46685000Y-28025000D03*
D25*
X46685000Y-32205000D03*
D24*
X55335000Y-28025000D03*
D25*
X55335000Y-32205000D03*
D26*
X56010000Y-28025000D03*
D27*
X56010000Y-32205000D03*
%TD*%
D14*
%TO.C,R13*%
X75995000Y-26600000D03*
X77645000Y-26600000D03*
%TD*%
D28*
%TO.C,D1*%
X81187500Y-26600000D03*
X79612500Y-26600000D03*
%TD*%
D10*
%TO.C,C21*%
X67800000Y-22737500D03*
X67800000Y-17662500D03*
%TD*%
D13*
%TO.C,C7*%
X46550000Y-5400000D03*
X45000000Y-5400000D03*
%TD*%
D29*
%TO.C,C5*%
X30200000Y-6175000D03*
X30200000Y-4625000D03*
%TD*%
D20*
%TO.C,J2*%
X61810000Y-26825000D03*
X68210000Y-26825000D03*
X62610000Y-26825000D03*
X67410000Y-26825000D03*
D21*
X63760000Y-26675000D03*
X64760000Y-26675000D03*
X65260000Y-26675000D03*
X66760000Y-26675000D03*
X65760000Y-26675000D03*
X64260000Y-26675000D03*
D22*
X60010000Y-28025000D03*
D23*
X60010000Y-32205000D03*
D24*
X60685000Y-28025000D03*
D25*
X60685000Y-32205000D03*
D24*
X69335000Y-28025000D03*
D25*
X69335000Y-32205000D03*
D26*
X70010000Y-28025000D03*
D27*
X70010000Y-32205000D03*
%TD*%
D10*
%TO.C,C23*%
X30000000Y-19137500D03*
X30000000Y-14062500D03*
%TD*%
D20*
%TO.C,J1*%
X87810000Y-32425000D03*
X94210000Y-32425000D03*
X88610000Y-32425000D03*
X93410000Y-32425000D03*
D21*
X89760000Y-32275000D03*
X90760000Y-32275000D03*
X91260000Y-32275000D03*
X92760000Y-32275000D03*
X91760000Y-32275000D03*
X90260000Y-32275000D03*
D22*
X86010000Y-33625000D03*
D23*
X86010000Y-37805000D03*
D24*
X86685000Y-33625000D03*
D25*
X86685000Y-37805000D03*
D24*
X95335000Y-33625000D03*
D25*
X95335000Y-37805000D03*
D26*
X96010000Y-33625000D03*
D27*
X96010000Y-37805000D03*
%TD*%
D30*
%TO.C,C6*%
X32425000Y-2800000D03*
X33975000Y-2800000D03*
%TD*%
D14*
%TO.C,R1*%
X71550000Y-31000000D03*
X73200000Y-31000000D03*
%TD*%
D11*
%TO.C,H7*%
X7000000Y-7000000D03*
%TD*%
D16*
%TO.C,R21*%
X84425000Y-35800000D03*
X82775000Y-35800000D03*
%TD*%
D13*
%TO.C,C8*%
X42575000Y-3600000D03*
X41025000Y-3600000D03*
%TD*%
D11*
%TO.C,H5*%
X7000000Y-22000000D03*
%TD*%
D12*
%TO.C,C4*%
X4800000Y-18825000D03*
X4800000Y-20375000D03*
%TD*%
D11*
%TO.C,H8*%
X93000000Y-22000000D03*
%TD*%
D16*
%TO.C,R20*%
X84425000Y-34000000D03*
X82775000Y-34000000D03*
%TD*%
%TO.C,R3*%
X44225000Y-29400000D03*
X42575000Y-29400000D03*
%TD*%
D31*
%TO.C,Y1*%
X32200000Y-6300000D03*
X34400000Y-6300000D03*
X34400000Y-4600000D03*
X32200000Y-4600000D03*
%TD*%
D12*
%TO.C,C2*%
X25600000Y-15825000D03*
X25600000Y-17375000D03*
%TD*%
D17*
%TO.C,J9*%
X6500000Y-29500000D03*
D18*
X9000000Y-29500000D03*
X11000000Y-29500000D03*
X13500000Y-29500000D03*
D19*
X3325000Y-32210000D03*
X16675000Y-32210000D03*
%TD*%
M02*
