%TF.GenerationSoftware,KiCad,Pcbnew,9.0.3*%
%TF.CreationDate,2026-02-17T21:32:02+09:00*%
%TF.ProjectId,snes_usbhub,736e6573-5f75-4736-9268-75622e6b6963,rev?*%
%TF.SameCoordinates,Original*%
%TF.FileFunction,Copper,L1,Top*%
%TF.FilePolarity,Positive*%
%FSLAX46Y46*%
G04 Gerber Fmt 4.6, Leading zero omitted, Abs format (unit mm)*
G04 Created by KiCad (PCBNEW 9.0.3) date 2026-02-17 21:32:02*
%MOMM*%
%LPD*%
G01*
G04 APERTURE LIST*
G04 Aperture macros list*
%AMRoundRect*
0 Rectangle with rounded corners*
0 $1 Rounding radius*
0 $2 $3 $4 $5 $6 $7 $8 $9 X,Y pos of 4 corners*
0 Add a 4 corners polygon primitive as box body*
4,1,4,$2,$3,$4,$5,$6,$7,$8,$9,$2,$3,0*
0 Add four circle primitives for the rounded corners*
1,1,$1+$1,$2,$3*
1,1,$1+$1,$4,$5*
1,1,$1+$1,$6,$7*
1,1,$1+$1,$8,$9*
0 Add four rect primitives between the rounded corners*
20,1,$1+$1,$2,$3,$4,$5,0*
20,1,$1+$1,$4,$5,$6,$7,0*
20,1,$1+$1,$6,$7,$8,$9,0*
20,1,$1+$1,$8,$9,$2,$3,0*%
%AMOutline4P*
0 Free polygon, 4 corners , with rotation*
0 The origin of the aperture is its center*
0 number of corners: always 4*
0 $1 to $8 corner X, Y*
0 $9 Rotation angle, in degrees counterclockwise*
0 create outline with 4 corners*
4,1,4,$1,$2,$3,$4,$5,$6,$7,$8,$1,$2,$9*%
G04 Aperture macros list end*
%TA.AperFunction,SMDPad,CuDef*%
%ADD10RoundRect,0.250000X0.550000X-1.412500X0.550000X1.412500X-0.550000X1.412500X-0.550000X-1.412500X0*%
%TD*%
%TA.AperFunction,SMDPad,CuDef*%
%ADD11RoundRect,0.225000X-0.250000X0.225000X-0.250000X-0.225000X0.250000X-0.225000X0.250000X0.225000X0*%
%TD*%
%TA.AperFunction,SMDPad,CuDef*%
%ADD12RoundRect,0.225000X0.225000X0.250000X-0.225000X0.250000X-0.225000X-0.250000X0.225000X-0.250000X0*%
%TD*%
%TA.AperFunction,SMDPad,CuDef*%
%ADD13RoundRect,0.200000X-0.200000X-0.275000X0.200000X-0.275000X0.200000X0.275000X-0.200000X0.275000X0*%
%TD*%
%TA.AperFunction,SMDPad,CuDef*%
%ADD14R,1.200000X0.250000*%
%TD*%
%TA.AperFunction,SMDPad,CuDef*%
%ADD15RoundRect,0.200000X0.200000X0.275000X-0.200000X0.275000X-0.200000X-0.275000X0.200000X-0.275000X0*%
%TD*%
%TA.AperFunction,ComponentPad*%
%ADD16R,1.524000X1.524000*%
%TD*%
%TA.AperFunction,ComponentPad*%
%ADD17C,1.524000*%
%TD*%
%TA.AperFunction,ComponentPad*%
%ADD18C,3.500000*%
%TD*%
%TA.AperFunction,SMDPad,CuDef*%
%ADD19R,0.500000X2.000000*%
%TD*%
%TA.AperFunction,SMDPad,CuDef*%
%ADD20R,0.300000X2.300000*%
%TD*%
%TA.AperFunction,SMDPad,CuDef*%
%ADD21Outline4P,-0.800000X-0.400000X0.800000X-0.400000X0.500000X0.400000X-0.500000X0.400000X90.000000*%
%TD*%
%TA.AperFunction,SMDPad,CuDef*%
%ADD22Outline4P,-0.650000X-0.400000X0.650000X-0.400000X0.350000X0.400000X-0.350000X0.400000X90.000000*%
%TD*%
%TA.AperFunction,ComponentPad*%
%ADD23O,0.900000X1.800000*%
%TD*%
%TA.AperFunction,ComponentPad*%
%ADD24O,0.900000X1.500000*%
%TD*%
%TA.AperFunction,SMDPad,CuDef*%
%ADD25Outline4P,-0.800000X-0.400000X0.800000X-0.400000X0.500000X0.400000X-0.500000X0.400000X270.000000*%
%TD*%
%TA.AperFunction,SMDPad,CuDef*%
%ADD26Outline4P,-0.650000X-0.400000X0.650000X-0.400000X0.350000X0.400000X-0.350000X0.400000X270.000000*%
%TD*%
%TA.AperFunction,SMDPad,CuDef*%
%ADD27RoundRect,0.218750X0.218750X0.256250X-0.218750X0.256250X-0.218750X-0.256250X0.218750X-0.256250X0*%
%TD*%
%TA.AperFunction,SMDPad,CuDef*%
%ADD28RoundRect,0.225000X0.250000X-0.225000X0.250000X0.225000X-0.250000X0.225000X-0.250000X-0.225000X0*%
%TD*%
%TA.AperFunction,SMDPad,CuDef*%
%ADD29RoundRect,0.225000X-0.225000X-0.250000X0.225000X-0.250000X0.225000X0.250000X-0.225000X0.250000X0*%
%TD*%
%TA.AperFunction,SMDPad,CuDef*%
%ADD30RoundRect,0.250000X-0.450000X-0.350000X0.450000X-0.350000X0.450000X0.350000X-0.450000X0.350000X0*%
%TD*%
%TA.AperFunction,ViaPad*%
%ADD31C,0.500000*%
%TD*%
%TA.AperFunction,Conductor*%
%ADD32C,0.200000*%
%TD*%
%TA.AperFunction,Conductor*%
%ADD33C,0.500000*%
%TD*%
%TA.AperFunction,Conductor*%
%ADD34C,0.300700*%
%TD*%
%TA.AperFunction,Conductor*%
%ADD35C,0.600000*%
%TD*%
%TA.AperFunction,Conductor*%
%ADD36C,0.400000*%
%TD*%
%TA.AperFunction,Conductor*%
%ADD37C,0.250000*%
%TD*%
G04 APERTURE END LIST*
D10*
%TO.P,C1,1*%
%TO.N,+5V*%
X53800000Y-22737500D03*
%TO.P,C1,2*%
%TO.N,GND*%
X53800000Y-17662500D03*
%TD*%
D11*
%TO.P,C30,1*%
%TO.N,GND*%
X58200000Y-19225000D03*
%TO.P,C30,2*%
%TO.N,+5V*%
X58200000Y-20775000D03*
%TD*%
D12*
%TO.P,C9,1*%
%TO.N,GND*%
X42575000Y-5400000D03*
%TO.P,C9,2*%
%TO.N,Net-(U3-VDD33)*%
X41025000Y-5400000D03*
%TD*%
D13*
%TO.P,R2,1*%
%TO.N,Net-(J2-CC2)*%
X71550000Y-29310000D03*
%TO.P,R2,2*%
%TO.N,+5V*%
X73200000Y-29310000D03*
%TD*%
D11*
%TO.P,C29,1*%
%TO.N,GND*%
X72200000Y-19225000D03*
%TO.P,C29,2*%
%TO.N,+5V*%
X72200000Y-20775000D03*
%TD*%
D14*
%TO.P,U3,1,DM2*%
%TO.N,/deviceC1/D-*%
X45600000Y-11500000D03*
%TO.P,U3,2,DP2*%
%TO.N,/deviceC1/D+*%
X45600000Y-10970000D03*
%TO.P,U3,3,DM1*%
%TO.N,/deviceC/D-*%
X45600000Y-10450000D03*
%TO.P,U3,4,DP1*%
%TO.N,/deviceC/D+*%
X45600000Y-9910000D03*
%TO.P,U3,5,UDM*%
%TO.N,/hub/D-*%
X45600000Y-9390000D03*
%TO.P,U3,6,UDP*%
%TO.N,/hub/D+*%
X45600000Y-8850000D03*
%TO.P,U3,7,VDD5*%
%TO.N,+5V*%
X45600000Y-8320000D03*
%TO.P,U3,8,VSS*%
%TO.N,GND*%
X45600000Y-7800000D03*
%TO.P,U3,9,VDD33*%
%TO.N,Net-(U3-VDD33)*%
X42000000Y-7800000D03*
%TO.P,U3,10,VDD18*%
%TO.N,Net-(U3-VDD18)*%
X42000000Y-8320000D03*
%TO.P,U3,11,XOUT*%
%TO.N,Net-(U3-XOUT)*%
X42000000Y-8850000D03*
%TO.P,U3,12,XIN*%
%TO.N,Net-(U3-XIN)*%
X42000000Y-9390000D03*
%TO.P,U3,13,DM4*%
%TO.N,/deviceA2/D-*%
X42000000Y-9910000D03*
%TO.P,U3,14,DP4*%
%TO.N,/deviceA2/D+*%
X42000000Y-10450000D03*
%TO.P,U3,15,DM3*%
%TO.N,/deviceA1/D-*%
X42000000Y-10970000D03*
%TO.P,U3,16,DP3*%
%TO.N,/deviceA1/D+*%
X42000000Y-11500000D03*
%TD*%
D15*
%TO.P,R4,1*%
%TO.N,Net-(J3-CC2)*%
X44225000Y-31000000D03*
%TO.P,R4,2*%
%TO.N,+5V*%
X42575000Y-31000000D03*
%TD*%
D10*
%TO.P,C3,1*%
%TO.N,+5V*%
X9200000Y-22337500D03*
%TO.P,C3,2*%
%TO.N,GND*%
X9200000Y-17262500D03*
%TD*%
D16*
%TO.P,J8,1,VBUS*%
%TO.N,+5V*%
X30000000Y-23500000D03*
D17*
%TO.P,J8,2,D-*%
%TO.N,/deviceA1/D-*%
X32500000Y-23500000D03*
%TO.P,J8,3,D+*%
%TO.N,/deviceA1/D+*%
X34500000Y-23500000D03*
%TO.P,J8,4,GND*%
%TO.N,GND*%
X37000000Y-23500000D03*
D18*
%TO.P,J8,5,Shield*%
X26825000Y-26210000D03*
X40175000Y-26210000D03*
%TD*%
D19*
%TO.P,J3,A1,GND*%
%TO.N,GND*%
X47810000Y-26825000D03*
X54210000Y-26825000D03*
%TO.P,J3,A4,VBUS*%
%TO.N,+5V*%
X48610000Y-26825000D03*
X53410000Y-26825000D03*
D20*
%TO.P,J3,A5,CC1*%
%TO.N,Net-(J3-CC1)*%
X49760000Y-26675000D03*
%TO.P,J3,A6,D+*%
%TO.N,/deviceC1/D+*%
X50760000Y-26675000D03*
%TO.P,J3,A7,D-*%
%TO.N,/deviceC1/D-*%
X51260000Y-26675000D03*
%TO.P,J3,B5,CC2*%
%TO.N,Net-(J3-CC2)*%
X52760000Y-26675000D03*
%TO.P,J3,B6,D+*%
%TO.N,/deviceC1/D+*%
X51760000Y-26675000D03*
%TO.P,J3,B7,D-*%
%TO.N,/deviceC1/D-*%
X50260000Y-26675000D03*
D21*
%TO.P,J3,S1,SHIELD*%
%TO.N,GND*%
X46010000Y-28025000D03*
D22*
X46010000Y-32205000D03*
D23*
X46685000Y-28025000D03*
D24*
X46685000Y-32205000D03*
D23*
X55335000Y-28025000D03*
D24*
X55335000Y-32205000D03*
D25*
X56010000Y-28025000D03*
D26*
X56010000Y-32205000D03*
%TD*%
D13*
%TO.P,R13,1*%
%TO.N,+5V*%
X75995000Y-26600000D03*
%TO.P,R13,2*%
%TO.N,Net-(D1-A)*%
X77645000Y-26600000D03*
%TD*%
D27*
%TO.P,D1,1,K*%
%TO.N,GND*%
X81187500Y-26600000D03*
%TO.P,D1,2,A*%
%TO.N,Net-(D1-A)*%
X79612500Y-26600000D03*
%TD*%
D10*
%TO.P,C21,1*%
%TO.N,+5V*%
X67800000Y-22737500D03*
%TO.P,C21,2*%
%TO.N,GND*%
X67800000Y-17662500D03*
%TD*%
D12*
%TO.P,C7,1*%
%TO.N,+5V*%
X46550000Y-5400000D03*
%TO.P,C7,2*%
%TO.N,GND*%
X45000000Y-5400000D03*
%TD*%
D28*
%TO.P,C5,1*%
%TO.N,Net-(U3-XIN)*%
X30200000Y-6175000D03*
%TO.P,C5,2*%
%TO.N,GND*%
X30200000Y-4625000D03*
%TD*%
D19*
%TO.P,J2,A1,GND*%
%TO.N,GND*%
X61810000Y-26825000D03*
X68210000Y-26825000D03*
%TO.P,J2,A4,VBUS*%
%TO.N,+5V*%
X62610000Y-26825000D03*
X67410000Y-26825000D03*
D20*
%TO.P,J2,A5,CC1*%
%TO.N,Net-(J2-CC1)*%
X63760000Y-26675000D03*
%TO.P,J2,A6,D+*%
%TO.N,/deviceC/D+*%
X64760000Y-26675000D03*
%TO.P,J2,A7,D-*%
%TO.N,/deviceC/D-*%
X65260000Y-26675000D03*
%TO.P,J2,B5,CC2*%
%TO.N,Net-(J2-CC2)*%
X66760000Y-26675000D03*
%TO.P,J2,B6,D+*%
%TO.N,/deviceC/D+*%
X65760000Y-26675000D03*
%TO.P,J2,B7,D-*%
%TO.N,/deviceC/D-*%
X64260000Y-26675000D03*
D21*
%TO.P,J2,S1,SHIELD*%
%TO.N,GND*%
X60010000Y-28025000D03*
D22*
X60010000Y-32205000D03*
D23*
X60685000Y-28025000D03*
D24*
X60685000Y-32205000D03*
D23*
X69335000Y-28025000D03*
D24*
X69335000Y-32205000D03*
D25*
X70010000Y-28025000D03*
D26*
X70010000Y-32205000D03*
%TD*%
D10*
%TO.P,C23,1*%
%TO.N,+5V*%
X30000000Y-19137500D03*
%TO.P,C23,2*%
%TO.N,GND*%
X30000000Y-14062500D03*
%TD*%
D19*
%TO.P,J1,A1,GND*%
%TO.N,GND*%
X87810000Y-32425000D03*
X94210000Y-32425000D03*
%TO.P,J1,A4,VBUS*%
%TO.N,+5V*%
X88610000Y-32425000D03*
X93410000Y-32425000D03*
D20*
%TO.P,J1,A5,CC1*%
%TO.N,Net-(J1-CC1)*%
X89760000Y-32275000D03*
%TO.P,J1,A6,D+*%
%TO.N,/hub/D+*%
X90760000Y-32275000D03*
%TO.P,J1,A7,D-*%
%TO.N,/hub/D-*%
X91260000Y-32275000D03*
%TO.P,J1,B5,CC2*%
%TO.N,Net-(J1-CC2)*%
X92760000Y-32275000D03*
%TO.P,J1,B6,D+*%
%TO.N,/hub/D+*%
X91760000Y-32275000D03*
%TO.P,J1,B7,D-*%
%TO.N,/hub/D-*%
X90260000Y-32275000D03*
D21*
%TO.P,J1,S1,SHIELD*%
%TO.N,GND*%
X86010000Y-33625000D03*
D22*
X86010000Y-37805000D03*
D23*
X86685000Y-33625000D03*
D24*
X86685000Y-37805000D03*
D23*
X95335000Y-33625000D03*
D24*
X95335000Y-37805000D03*
D25*
X96010000Y-33625000D03*
D26*
X96010000Y-37805000D03*
%TD*%
D29*
%TO.P,C6,1*%
%TO.N,GND*%
X32425000Y-2800000D03*
%TO.P,C6,2*%
%TO.N,Net-(U3-XOUT)*%
X33975000Y-2800000D03*
%TD*%
D13*
%TO.P,R1,1*%
%TO.N,Net-(J2-CC1)*%
X71550000Y-31000000D03*
%TO.P,R1,2*%
%TO.N,+5V*%
X73200000Y-31000000D03*
%TD*%
D15*
%TO.P,R21,1*%
%TO.N,Net-(J1-CC2)*%
X84425000Y-35800000D03*
%TO.P,R21,2*%
%TO.N,GND*%
X82775000Y-35800000D03*
%TD*%
D12*
%TO.P,C8,1*%
%TO.N,GND*%
X42575000Y-3600000D03*
%TO.P,C8,2*%
%TO.N,Net-(U3-VDD18)*%
X41025000Y-3600000D03*
%TD*%
D11*
%TO.P,C4,1*%
%TO.N,GND*%
X4800000Y-18825000D03*
%TO.P,C4,2*%
%TO.N,+5V*%
X4800000Y-20375000D03*
%TD*%
D15*
%TO.P,R20,1*%
%TO.N,Net-(J1-CC1)*%
X84425000Y-34000000D03*
%TO.P,R20,2*%
%TO.N,GND*%
X82775000Y-34000000D03*
%TD*%
%TO.P,R3,1*%
%TO.N,Net-(J3-CC1)*%
X44225000Y-29400000D03*
%TO.P,R3,2*%
%TO.N,+5V*%
X42575000Y-29400000D03*
%TD*%
D30*
%TO.P,Y1,1,1*%
%TO.N,Net-(U3-XIN)*%
X32200000Y-6300000D03*
%TO.P,Y1,2,2*%
%TO.N,GND*%
X34400000Y-6300000D03*
%TO.P,Y1,3,3*%
%TO.N,Net-(U3-XOUT)*%
X34400000Y-4600000D03*
%TO.P,Y1,4,4*%
%TO.N,GND*%
X32200000Y-4600000D03*
%TD*%
D11*
%TO.P,C2,1*%
%TO.N,GND*%
X25600000Y-15825000D03*
%TO.P,C2,2*%
%TO.N,+5V*%
X25600000Y-17375000D03*
%TD*%
D16*
%TO.P,J9,1,VBUS*%
%TO.N,+5V*%
X6500000Y-29500000D03*
D17*
%TO.P,J9,2,D-*%
%TO.N,/deviceA2/D-*%
X9000000Y-29500000D03*
%TO.P,J9,3,D+*%
%TO.N,/deviceA2/D+*%
X11000000Y-29500000D03*
%TO.P,J9,4,GND*%
%TO.N,GND*%
X13500000Y-29500000D03*
D18*
%TO.P,J9,5,Shield*%
X3325000Y-32210000D03*
X16675000Y-32210000D03*
%TD*%
D31*
%TO.N,GND*%
X85500000Y-24000000D03*
X58500000Y-15000000D03*
X19500000Y-19000000D03*
X61500000Y-18000000D03*
X32000000Y-11500000D03*
X18000000Y-16500000D03*
X42500000Y-12500000D03*
X11500000Y-27500000D03*
X24000000Y-14500000D03*
X56000000Y-10500000D03*
X32500000Y-25500000D03*
X18500000Y-11500000D03*
X84000000Y-19000000D03*
X30500000Y-11500000D03*
X81500000Y-20000000D03*
X52000000Y-16000000D03*
X37500000Y-12500000D03*
X83000000Y-18000000D03*
X36500000Y-13500000D03*
X21000000Y-13500000D03*
X18000000Y-20500000D03*
X77000000Y-12000000D03*
X86500000Y-25000000D03*
X27000000Y-12000000D03*
X49000000Y-22000000D03*
X52000000Y-20500000D03*
X28500000Y-2500000D03*
X80000000Y-15000000D03*
X78000000Y-6000000D03*
X65500000Y-22000000D03*
X61000000Y-21500000D03*
X28500000Y-11500000D03*
X48000000Y-15000000D03*
X72500000Y-11000000D03*
X80500000Y-19000000D03*
X63500000Y-10500000D03*
X79500000Y-18000000D03*
X45000000Y-12500000D03*
X73500000Y-12000000D03*
X3000000Y-13000000D03*
X50500000Y-13500000D03*
X46000000Y-19500000D03*
X89000000Y-24000000D03*
X56000000Y-16500000D03*
X41500000Y-16500000D03*
X33500000Y-25500000D03*
X62500000Y-7500000D03*
X78000000Y-13000000D03*
X47000000Y-14000000D03*
X10000000Y-31000000D03*
X56500000Y-13000000D03*
X61000000Y-7500000D03*
X52000000Y-17500000D03*
X52000000Y-12500000D03*
X22000000Y-12500000D03*
X88500000Y-27000000D03*
X73000000Y-8000000D03*
X83500000Y-22000000D03*
X50500000Y-7500000D03*
X38000000Y-16000000D03*
X64500000Y-21000000D03*
X29500000Y-9000000D03*
X64000000Y-7500000D03*
X55500000Y-12000000D03*
X52000000Y-7500000D03*
X93500000Y-17500000D03*
X16000000Y-18500000D03*
X70000000Y-7500000D03*
X52000000Y-22000000D03*
X76500000Y-15000000D03*
X63000000Y-23500000D03*
X40000000Y-14000000D03*
X85000000Y-20000000D03*
X86000000Y-21000000D03*
X12000000Y-31000000D03*
X59000000Y-10500000D03*
X71500000Y-7500000D03*
X35000000Y-25500000D03*
X89000000Y-28000000D03*
X49500000Y-12500000D03*
X22500000Y-31000000D03*
X17000000Y-17500000D03*
X19000000Y-15500000D03*
X91000000Y-38000000D03*
X41000000Y-13000000D03*
X25500000Y-13000000D03*
X22500000Y-16000000D03*
X66000000Y-23500000D03*
X68500000Y-7500000D03*
X49000000Y-7500000D03*
X35500000Y-11500000D03*
X24000000Y-10500000D03*
X57500000Y-10500000D03*
X20000000Y-3500000D03*
X7500000Y-36500000D03*
X75500000Y-14000000D03*
X82000000Y-17000000D03*
X32500000Y-9000000D03*
X74000000Y-9000000D03*
X34500000Y-15500000D03*
X62000000Y-10500000D03*
X78500000Y-17000000D03*
X81000000Y-16000000D03*
X52000000Y-23500000D03*
X86500000Y-10500000D03*
X47000000Y-2000000D03*
X21000000Y-17500000D03*
X74500000Y-13000000D03*
X90000000Y-25000000D03*
X92000000Y-29000000D03*
X8000000Y-31000000D03*
X71000000Y-10500000D03*
X49000000Y-17500000D03*
X33500000Y-11500000D03*
X54000000Y-14500000D03*
X37500000Y-2500000D03*
X62000000Y-22500000D03*
X35000000Y-30500000D03*
X60500000Y-10500000D03*
X87000000Y-22000000D03*
X62500000Y-19000000D03*
X51500000Y-14500000D03*
X49000000Y-20500000D03*
X52000000Y-19000000D03*
X98500000Y-30500000D03*
X49000000Y-16000000D03*
X25000000Y-9500000D03*
X76000000Y-11000000D03*
X57500000Y-14000000D03*
X28000000Y-9000000D03*
X39000000Y-15000000D03*
X84500000Y-23000000D03*
X77500000Y-16000000D03*
X23000000Y-11500000D03*
X63500000Y-20000000D03*
X48500000Y-11500000D03*
X79000000Y-14000000D03*
X65000000Y-10500000D03*
X60000000Y-20500000D03*
X59500000Y-16000000D03*
X54500000Y-11000000D03*
X57000000Y-17500000D03*
X59500000Y-7500000D03*
X53500000Y-7500000D03*
X66500000Y-10500000D03*
X91000000Y-26000000D03*
X38500000Y-11500000D03*
X78000000Y-33500000D03*
X50500000Y-11500000D03*
X12000000Y-26500000D03*
X75000000Y-10000000D03*
X67000000Y-7500000D03*
X49000000Y-19000000D03*
X87500000Y-26000000D03*
X46000000Y-13000000D03*
X49000000Y-23500000D03*
X55000000Y-7500000D03*
X37000000Y-11500000D03*
X20000000Y-14500000D03*
X68000000Y-10500000D03*
X67500000Y-2500000D03*
X11500000Y-8500000D03*
X65500000Y-7500000D03*
X69500000Y-10500000D03*
X37000000Y-17000000D03*
X55500000Y-5000000D03*
X58000000Y-7500000D03*
X53000000Y-13500000D03*
X56500000Y-7500000D03*
X60500000Y-17000000D03*
X31000000Y-9000000D03*
X26500000Y-9000000D03*
X92000000Y-27500000D03*
X35500000Y-14500000D03*
X88000000Y-23000000D03*
X58000000Y-30000000D03*
X82500000Y-21000000D03*
%TO.N,+5V*%
X7237500Y-20375000D03*
X62550000Y-25300000D03*
X53400000Y-25400000D03*
X47200000Y-6600000D03*
X88600000Y-30400000D03*
X27600000Y-17400000D03*
X43200000Y-27900000D03*
X67400000Y-25300000D03*
X48600000Y-25400000D03*
X93400000Y-30400000D03*
%TD*%
D32*
%TO.N,Net-(J2-CC1)*%
X63760000Y-26775000D02*
X63760000Y-29510000D01*
X63760000Y-29510000D02*
X65000000Y-30750000D01*
X65000000Y-30750000D02*
X71300000Y-30750000D01*
X71300000Y-30750000D02*
X71550000Y-31000000D01*
%TO.N,Net-(J2-CC2)*%
X66760000Y-26775000D02*
X66760000Y-28860000D01*
X71010000Y-29850000D02*
X71550000Y-29310000D01*
X66760000Y-28860000D02*
X67750000Y-29850000D01*
X67750000Y-29850000D02*
X71010000Y-29850000D01*
D33*
%TO.N,GND*%
X61810000Y-26925000D02*
X61200000Y-26925000D01*
X61200000Y-26925000D02*
X60685000Y-27440000D01*
D32*
X60685000Y-27440000D02*
X60685000Y-28125000D01*
D33*
X68210000Y-26925000D02*
X68800000Y-26925000D01*
D32*
X69335000Y-27460000D02*
X69335000Y-28125000D01*
D33*
X68800000Y-26925000D02*
X69335000Y-27460000D01*
D34*
%TO.N,/deviceC/D-*%
X65260000Y-26775000D02*
X65260000Y-28230000D01*
X64450000Y-28475000D02*
X64260000Y-28285000D01*
X65260000Y-28230000D02*
X65015000Y-28475000D01*
X65015000Y-28475000D02*
X64450000Y-28475000D01*
X64260000Y-28285000D02*
X64260000Y-26775000D01*
%TO.N,/deviceC/D+*%
X65760000Y-26775000D02*
X65760000Y-25418300D01*
X65760000Y-25418300D02*
X65391699Y-25049999D01*
X65391699Y-25049999D02*
X64760000Y-25049999D01*
D32*
%TO.N,Net-(J3-CC1)*%
X49760000Y-26775000D02*
X49760000Y-28915000D01*
X44750000Y-29800000D02*
X44350000Y-29400000D01*
X49760000Y-28915000D02*
X48875000Y-29800000D01*
X48875000Y-29800000D02*
X44750000Y-29800000D01*
X44350000Y-29400000D02*
X44225000Y-29400000D01*
%TO.N,Net-(J3-CC2)*%
X44225000Y-31000000D02*
X44725000Y-30500000D01*
X51550000Y-30500000D02*
X52760000Y-29290000D01*
X52760000Y-29290000D02*
X52760000Y-26775000D01*
X44725000Y-30500000D02*
X51550000Y-30500000D01*
D34*
%TO.N,/deviceC1/D-*%
X50475000Y-28425000D02*
X51050000Y-28425000D01*
X50260000Y-26775000D02*
X50260000Y-28210000D01*
X50260000Y-28210000D02*
X50475000Y-28425000D01*
X51050000Y-28425000D02*
X51250000Y-28225000D01*
X51250000Y-28225000D02*
X51250000Y-26785000D01*
X51250000Y-26785000D02*
X51260000Y-26775000D01*
%TO.N,/deviceC1/D+*%
X51760000Y-26775000D02*
X51760000Y-25418300D01*
X51760000Y-25418300D02*
X51391699Y-25049999D01*
X51391699Y-25049999D02*
X50760000Y-25049999D01*
D33*
%TO.N,+5V*%
X67410000Y-26925000D02*
X67410000Y-25310000D01*
D32*
X67410000Y-25310000D02*
X67400000Y-25300000D01*
D33*
X62610000Y-26925000D02*
X62610000Y-25360000D01*
D32*
X62610000Y-25360000D02*
X62550000Y-25300000D01*
X67600000Y-25400000D02*
X67500000Y-25300000D01*
X67500000Y-25300000D02*
X67400000Y-25300000D01*
D35*
X67400000Y-25300000D02*
X67400000Y-23137500D01*
D32*
%TO.N,Net-(J1-CC2)*%
X92760000Y-32275000D02*
X92760000Y-33690000D01*
X92760000Y-33690000D02*
X90650000Y-35800000D01*
X90650000Y-35800000D02*
X84425000Y-35800000D01*
%TO.N,Net-(J1-CC1)*%
X84425000Y-34000000D02*
X85775000Y-35350000D01*
X85775000Y-35350000D02*
X88750000Y-35350000D01*
X88750000Y-35350000D02*
X89760000Y-34340000D01*
X89760000Y-34340000D02*
X89760000Y-32275000D01*
D33*
%TO.N,GND*%
X87810000Y-32425000D02*
X87400000Y-32425000D01*
X87400000Y-32425000D02*
X86685000Y-33140000D01*
D32*
X86685000Y-33140000D02*
X86685000Y-33625000D01*
D33*
X94210000Y-32425000D02*
X94650000Y-32425000D01*
X94650000Y-32425000D02*
X95335000Y-33110000D01*
D32*
X95335000Y-33110000D02*
X95335000Y-33625000D01*
D33*
%TO.N,+5V*%
X88610000Y-32425000D02*
X88610000Y-30410000D01*
D32*
X88610000Y-30410000D02*
X88600000Y-30400000D01*
D33*
X93410000Y-32425000D02*
X93410000Y-30410000D01*
D32*
X93410000Y-30410000D02*
X93400000Y-30400000D01*
D34*
%TO.N,/hub/D-*%
X91260000Y-32275000D02*
X91260000Y-33690000D01*
X90575000Y-34000000D02*
X90260000Y-33685000D01*
X91260000Y-33690000D02*
X90950000Y-34000000D01*
X90950000Y-34000000D02*
X90575000Y-34000000D01*
X90260000Y-33685000D02*
X90260000Y-32275000D01*
%TO.N,/hub/D+*%
X91760000Y-32275000D02*
X91760000Y-30824300D01*
X91485699Y-30549999D02*
X90760000Y-30549999D01*
X91760000Y-30824300D02*
X91485699Y-30549999D01*
X46500001Y-8850000D02*
X46556151Y-8906150D01*
X72408580Y-8906150D02*
X90723850Y-27221420D01*
X90723850Y-30513849D02*
X90760000Y-30549999D01*
X90760000Y-30549999D02*
X90760000Y-32275000D01*
%TO.N,/hub/D-*%
X90296150Y-30513849D02*
X90260000Y-30549999D01*
X45600000Y-9390000D02*
X46500001Y-9390000D01*
%TO.N,/hub/D+*%
X45600000Y-8850000D02*
X46500001Y-8850000D01*
%TO.N,/hub/D-*%
X46500001Y-9390000D02*
X46556151Y-9333850D01*
X46556151Y-9333850D02*
X72231420Y-9333850D01*
%TO.N,/hub/D+*%
X46556151Y-8906150D02*
X72408580Y-8906150D01*
%TO.N,/hub/D-*%
X72231420Y-9333850D02*
X90296150Y-27398580D01*
%TO.N,/hub/D+*%
X90723850Y-27221420D02*
X90723850Y-30513849D01*
%TO.N,/hub/D-*%
X90296150Y-27398580D02*
X90296150Y-30513849D01*
X90260000Y-30549999D02*
X90260000Y-32275000D01*
%TO.N,/deviceC/D+*%
X45600000Y-9910000D02*
X46500001Y-9910000D01*
%TO.N,/deviceC/D-*%
X64296150Y-23198580D02*
X64296150Y-25013849D01*
%TO.N,/deviceC/D+*%
X64723850Y-23021420D02*
X64723850Y-25013849D01*
X64723850Y-25013849D02*
X64760000Y-25049999D01*
%TO.N,/deviceC/D-*%
X51491420Y-10393850D02*
X64296150Y-23198580D01*
X46500001Y-10450000D02*
X46556151Y-10393850D01*
%TO.N,/deviceC/D+*%
X46500001Y-9910000D02*
X46556151Y-9966150D01*
X46556151Y-9966150D02*
X51668580Y-9966150D01*
X51668580Y-9966150D02*
X64723850Y-23021420D01*
X64760000Y-25049999D02*
X64760000Y-26775000D01*
%TO.N,/deviceC/D-*%
X45600000Y-10450000D02*
X46500001Y-10450000D01*
X46556151Y-10393850D02*
X51491420Y-10393850D01*
X64296150Y-25013849D02*
X64260000Y-25049999D01*
X64260000Y-25049999D02*
X64260000Y-26775000D01*
%TO.N,/deviceC1/D-*%
X46075000Y-11500000D02*
X46126150Y-11448850D01*
%TO.N,/deviceC1/D+*%
X45600000Y-10970000D02*
X46075000Y-10970000D01*
%TO.N,/deviceC1/D-*%
X50296150Y-25013849D02*
X50260000Y-25049999D01*
%TO.N,/deviceC1/D+*%
X46523580Y-11021150D02*
X50723850Y-15221420D01*
X50723850Y-15221420D02*
X50723850Y-25013849D01*
%TO.N,/deviceC1/D-*%
X46126150Y-11448850D02*
X46346420Y-11448850D01*
%TO.N,/deviceC1/D+*%
X46126150Y-11021150D02*
X46523580Y-11021150D01*
X50723850Y-25013849D02*
X50760000Y-25049999D01*
%TO.N,/deviceC1/D-*%
X45600000Y-11500000D02*
X46075000Y-11500000D01*
%TO.N,/deviceC1/D+*%
X50760000Y-25049999D02*
X50760000Y-26775000D01*
%TO.N,/deviceC1/D-*%
X46346420Y-11448850D02*
X50296150Y-15398580D01*
%TO.N,/deviceC1/D+*%
X46075000Y-10970000D02*
X46126150Y-11021150D01*
%TO.N,/deviceC1/D-*%
X50296150Y-15398580D02*
X50296150Y-25013849D01*
X50260000Y-25049999D02*
X50260000Y-26775000D01*
D33*
%TO.N,GND*%
X54210000Y-26925000D02*
X54675000Y-26925000D01*
X54675000Y-26925000D02*
X55335000Y-27585000D01*
D32*
X55335000Y-27585000D02*
X55335000Y-28125000D01*
D33*
X46685000Y-28050000D02*
X46685000Y-27515000D01*
X46685000Y-27515000D02*
X47275000Y-26925000D01*
X47275000Y-26925000D02*
X47810000Y-26925000D01*
D32*
X46685000Y-28125000D02*
X46685000Y-28050000D01*
D33*
%TO.N,+5V*%
X48610000Y-26925000D02*
X48610000Y-25410000D01*
D32*
X48610000Y-25410000D02*
X48600000Y-25400000D01*
D33*
X53400000Y-25400000D02*
X53410000Y-25410000D01*
X53410000Y-25410000D02*
X53410000Y-26905000D01*
D36*
%TO.N,GND*%
X30200000Y-4625000D02*
X32175000Y-4625000D01*
D37*
X45600000Y-7800000D02*
X45000000Y-7200000D01*
D32*
X32200000Y-3025000D02*
X32425000Y-2800000D01*
D37*
X45000000Y-7200000D02*
X45000000Y-5400000D01*
D36*
X42575000Y-5400000D02*
X42575000Y-3600000D01*
X32200000Y-4600000D02*
X32200000Y-3025000D01*
X45000000Y-5400000D02*
X42575000Y-5400000D01*
D32*
X34400000Y-6300000D02*
X34100000Y-6300000D01*
X32175000Y-4625000D02*
X32200000Y-4600000D01*
X32400000Y-4600000D02*
X32200000Y-4600000D01*
D36*
X34100000Y-6300000D02*
X32400000Y-4600000D01*
D35*
%TO.N,+5V*%
X9200000Y-22337500D02*
X9200000Y-24000000D01*
X4800000Y-20375000D02*
X7237500Y-20375000D01*
D32*
X73200000Y-29310000D02*
X73285000Y-29310000D01*
D35*
X58200000Y-20800000D02*
X56262500Y-22737500D01*
D32*
X46600000Y-5400000D02*
X46550000Y-5400000D01*
D37*
X47200000Y-6600000D02*
X47200000Y-6000000D01*
D36*
X42575000Y-29400000D02*
X42575000Y-28525000D01*
D32*
X67400000Y-23137500D02*
X67800000Y-22737500D01*
D36*
X74795000Y-25400000D02*
X67600000Y-25400000D01*
X73285000Y-29310000D02*
X75995000Y-26600000D01*
D35*
X6500000Y-26700000D02*
X6500000Y-29500000D01*
X56262500Y-22737500D02*
X53800000Y-22737500D01*
D37*
X46400000Y-8320000D02*
X47200000Y-7520000D01*
X45600000Y-8320000D02*
X46400000Y-8320000D01*
D35*
X25600000Y-17375000D02*
X27575000Y-17375000D01*
D32*
X29337500Y-19137500D02*
X30000000Y-19137500D01*
D37*
X47200000Y-6000000D02*
X46600000Y-5400000D01*
D35*
X27575000Y-17375000D02*
X27600000Y-17400000D01*
D32*
X58200000Y-20775000D02*
X58200000Y-20800000D01*
D35*
X72200000Y-20775000D02*
X70237500Y-22737500D01*
D36*
X75995000Y-26600000D02*
X74795000Y-25400000D01*
X42575000Y-28525000D02*
X43200000Y-27900000D01*
D35*
X7237500Y-20375000D02*
X9200000Y-22337500D01*
X30000000Y-23500000D02*
X30000000Y-19137500D01*
X9200000Y-24000000D02*
X6500000Y-26700000D01*
X27600000Y-17400000D02*
X29337500Y-19137500D01*
D37*
X47200000Y-7520000D02*
X47200000Y-6600000D01*
D35*
X53400000Y-25400000D02*
X53400000Y-23137500D01*
D36*
X73200000Y-31000000D02*
X73200000Y-29310000D01*
X42575000Y-29400000D02*
X42575000Y-31000000D01*
D32*
X53400000Y-23137500D02*
X53800000Y-22737500D01*
D35*
X70237500Y-22737500D02*
X67800000Y-22737500D01*
D32*
%TO.N,Net-(U3-XIN)*%
X32075000Y-6175000D02*
X32200000Y-6300000D01*
D37*
X35290000Y-9390000D02*
X32200000Y-6300000D01*
D36*
X30200000Y-6175000D02*
X32075000Y-6175000D01*
D37*
X42000000Y-9390000D02*
X35290000Y-9390000D01*
D36*
%TO.N,Net-(U3-XOUT)*%
X33975000Y-2800000D02*
X33975000Y-4175000D01*
D32*
X33975000Y-4175000D02*
X34400000Y-4600000D01*
D37*
X38650000Y-8850000D02*
X34400000Y-4600000D01*
X42000000Y-8850000D02*
X38650000Y-8850000D01*
D32*
%TO.N,Net-(U3-VDD18)*%
X40800000Y-3600000D02*
X41025000Y-3600000D01*
D37*
X39800000Y-4600000D02*
X40800000Y-3600000D01*
X40920000Y-8320000D02*
X39800000Y-7200000D01*
X39800000Y-7200000D02*
X39800000Y-4600000D01*
X42000000Y-8320000D02*
X40920000Y-8320000D01*
%TO.N,Net-(U3-VDD33)*%
X42000000Y-7800000D02*
X41025000Y-6825000D01*
X41025000Y-6825000D02*
X41025000Y-5400000D01*
D36*
%TO.N,Net-(D1-A)*%
X77645000Y-26600000D02*
X79612500Y-26600000D01*
D34*
%TO.N,/deviceA1/D+*%
X41048849Y-11448850D02*
X40853580Y-11448850D01*
X33713850Y-18588580D02*
X33713850Y-22713850D01*
X42000000Y-11500000D02*
X41099999Y-11500000D01*
X33713850Y-22713850D02*
X34500000Y-23500000D01*
X41099999Y-11500000D02*
X41048849Y-11448850D01*
X40853580Y-11448850D02*
X33713850Y-18588580D01*
%TO.N,/deviceA1/D-*%
X33286150Y-18411420D02*
X33286150Y-22713850D01*
X41099999Y-10970000D02*
X41048849Y-11021150D01*
X41048849Y-11021150D02*
X40676420Y-11021150D01*
X40676420Y-11021150D02*
X33286150Y-18411420D01*
X42000000Y-10970000D02*
X41099999Y-10970000D01*
X33286150Y-22713850D02*
X32500000Y-23500000D01*
%TO.N,/deviceA2/D+*%
X42000000Y-10450000D02*
X41099999Y-10450000D01*
X41043849Y-10393850D02*
X26508580Y-10393850D01*
X26508580Y-10393850D02*
X10213850Y-26688580D01*
X10213850Y-26688580D02*
X10213850Y-28713850D01*
X10213850Y-28713850D02*
X11000000Y-29500000D01*
X41099999Y-10450000D02*
X41043849Y-10393850D01*
%TO.N,/deviceA2/D-*%
X41043849Y-9966150D02*
X26331420Y-9966150D01*
X26331420Y-9966150D02*
X9786150Y-26511420D01*
X42000000Y-9910000D02*
X41099999Y-9910000D01*
X41099999Y-9910000D02*
X41043849Y-9966150D01*
X9786150Y-26511420D02*
X9786150Y-28713850D01*
X9786150Y-28713850D02*
X9000000Y-29500000D01*
%TD*%
%TA.AperFunction,Conductor*%
%TO.N,GND*%
G36*
X34593039Y-6319685D02*
G01*
X34638794Y-6372489D01*
X34650000Y-6424000D01*
X34650000Y-7399999D01*
X34899972Y-7399999D01*
X34899986Y-7399998D01*
X35002697Y-7389505D01*
X35169119Y-7334358D01*
X35169124Y-7334356D01*
X35318345Y-7242315D01*
X35442315Y-7118345D01*
X35534356Y-6969124D01*
X35534359Y-6969117D01*
X35558278Y-6896934D01*
X35598050Y-6839489D01*
X35662566Y-6812665D01*
X35731341Y-6824980D01*
X35763665Y-6848256D01*
X37468228Y-8552819D01*
X37501713Y-8614142D01*
X37496729Y-8683834D01*
X37454857Y-8739767D01*
X37389393Y-8764184D01*
X37380547Y-8764500D01*
X35600452Y-8764500D01*
X35533413Y-8744815D01*
X35512771Y-8728181D01*
X34186319Y-7401729D01*
X34152834Y-7340406D01*
X34150000Y-7314048D01*
X34150000Y-6424000D01*
X34169685Y-6356961D01*
X34222489Y-6311206D01*
X34274000Y-6300000D01*
X34526000Y-6300000D01*
X34593039Y-6319685D01*
G37*
%TD.AperFunction*%
%TA.AperFunction,Conductor*%
G36*
X99442539Y-520185D02*
G01*
X99488294Y-572989D01*
X99499500Y-624500D01*
X99499500Y-37551148D01*
X99479815Y-37618187D01*
X99427011Y-37663942D01*
X99415002Y-37668688D01*
X98883363Y-37847358D01*
X98878855Y-37848778D01*
X97921496Y-38130397D01*
X97916936Y-38131644D01*
X97063613Y-38347687D01*
X96993793Y-38345059D01*
X96936477Y-38305100D01*
X96909864Y-38240497D01*
X96909668Y-38216479D01*
X96910000Y-38212751D01*
X96910000Y-38055000D01*
X96134000Y-38055000D01*
X96066961Y-38035315D01*
X96021206Y-37982511D01*
X96010000Y-37931000D01*
X96010000Y-37805000D01*
X95884000Y-37805000D01*
X95816961Y-37785315D01*
X95771206Y-37732511D01*
X95760000Y-37681000D01*
X95760000Y-37555000D01*
X96260000Y-37555000D01*
X96910000Y-37555000D01*
X96910000Y-37397243D01*
X96909999Y-37397239D01*
X96907196Y-37365753D01*
X96907195Y-37365748D01*
X96861913Y-37229293D01*
X96861910Y-37229289D01*
X96780016Y-37111114D01*
X96780014Y-37111112D01*
X96668146Y-37020801D01*
X96668137Y-37020795D01*
X96639640Y-37007114D01*
X96260000Y-36864749D01*
X96260000Y-37555000D01*
X95760000Y-37555000D01*
X95760000Y-36652769D01*
X95759999Y-36652768D01*
X95612103Y-36591507D01*
X95612100Y-36591506D01*
X95585000Y-36586115D01*
X95585000Y-37455272D01*
X95546940Y-37363386D01*
X95476614Y-37293060D01*
X95384728Y-37255000D01*
X95285272Y-37255000D01*
X95193386Y-37293060D01*
X95123060Y-37363386D01*
X95085000Y-37455272D01*
X95085000Y-36586116D01*
X95084999Y-36586115D01*
X95057899Y-36591506D01*
X95057896Y-36591507D01*
X94885008Y-36663119D01*
X94884999Y-36663124D01*
X94729410Y-36767086D01*
X94729406Y-36767089D01*
X94597089Y-36899406D01*
X94597086Y-36899410D01*
X94493124Y-37054999D01*
X94493119Y-37055008D01*
X94421508Y-37227894D01*
X94421506Y-37227902D01*
X94385000Y-37411428D01*
X94385000Y-37555000D01*
X95085000Y-37555000D01*
X95085000Y-38055000D01*
X94385000Y-38055000D01*
X94385000Y-38198571D01*
X94421506Y-38382097D01*
X94421508Y-38382105D01*
X94493119Y-38554991D01*
X94493124Y-38555000D01*
X94546746Y-38635250D01*
X94567624Y-38701927D01*
X94549140Y-38769308D01*
X94497161Y-38815998D01*
X94460162Y-38827036D01*
X93987303Y-38890590D01*
X93982606Y-38891130D01*
X92989241Y-38986264D01*
X92984528Y-38986625D01*
X91988242Y-39043831D01*
X91983519Y-39044012D01*
X90985784Y-39063205D01*
X90981057Y-39063206D01*
X89983315Y-39044357D01*
X89978591Y-39044178D01*
X88982259Y-38987314D01*
X88977546Y-38986954D01*
X87984170Y-38892165D01*
X87979477Y-38891627D01*
X87936666Y-38885888D01*
X87554768Y-38834694D01*
X87490938Y-38806276D01*
X87452605Y-38747861D01*
X87451938Y-38677995D01*
X87468141Y-38642902D01*
X87526875Y-38555000D01*
X87526880Y-38554991D01*
X87598491Y-38382105D01*
X87598493Y-38382097D01*
X87634999Y-38198571D01*
X87635000Y-38198569D01*
X87635000Y-38055000D01*
X86935000Y-38055000D01*
X86935000Y-37555000D01*
X87635000Y-37555000D01*
X87635000Y-37411430D01*
X87634999Y-37411428D01*
X87598493Y-37227902D01*
X87598491Y-37227894D01*
X87526880Y-37055008D01*
X87526875Y-37054999D01*
X87422913Y-36899410D01*
X87422910Y-36899406D01*
X87290593Y-36767089D01*
X87290589Y-36767086D01*
X87135000Y-36663124D01*
X87134987Y-36663117D01*
X87076909Y-36639061D01*
X87022505Y-36595220D01*
X87000440Y-36528926D01*
X87017719Y-36461227D01*
X87068856Y-36413616D01*
X87124361Y-36400500D01*
X90563331Y-36400500D01*
X90563347Y-36400501D01*
X90570943Y-36400501D01*
X90729054Y-36400501D01*
X90729057Y-36400501D01*
X90881785Y-36359577D01*
X90931904Y-36330639D01*
X91018716Y-36280520D01*
X91130520Y-36168716D01*
X91130520Y-36168714D01*
X91140728Y-36158507D01*
X91140729Y-36158504D01*
X93133320Y-34165914D01*
X93194642Y-34132431D01*
X93264334Y-34137415D01*
X93320267Y-34179287D01*
X93340775Y-34221504D01*
X93363719Y-34307136D01*
X93377853Y-34331616D01*
X93439485Y-34438365D01*
X93546635Y-34545515D01*
X93677865Y-34621281D01*
X93824234Y-34660500D01*
X93824236Y-34660500D01*
X93975764Y-34660500D01*
X93975766Y-34660500D01*
X94122135Y-34621281D01*
X94253365Y-34545515D01*
X94298531Y-34500348D01*
X94359852Y-34466864D01*
X94429543Y-34471848D01*
X94485477Y-34513719D01*
X94489522Y-34520071D01*
X94489736Y-34519929D01*
X94597086Y-34680589D01*
X94597089Y-34680593D01*
X94729406Y-34812910D01*
X94729410Y-34812913D01*
X94884999Y-34916875D01*
X94885012Y-34916882D01*
X95057889Y-34988489D01*
X95057896Y-34988491D01*
X95085000Y-34993882D01*
X95085000Y-34124728D01*
X95123060Y-34216614D01*
X95193386Y-34286940D01*
X95285272Y-34325000D01*
X95384728Y-34325000D01*
X95476614Y-34286940D01*
X95546940Y-34216614D01*
X95585000Y-34124728D01*
X95585000Y-34993881D01*
X95612103Y-34988491D01*
X95612109Y-34988489D01*
X95760000Y-34927230D01*
X95760000Y-34715249D01*
X96260000Y-34715249D01*
X96639621Y-34572892D01*
X96639627Y-34572890D01*
X96668146Y-34559199D01*
X96780013Y-34468886D01*
X96780016Y-34468882D01*
X96861908Y-34350714D01*
X96861911Y-34350707D01*
X96907195Y-34214247D01*
X96910000Y-34182754D01*
X96910000Y-33875000D01*
X96260000Y-33875000D01*
X96260000Y-34715249D01*
X95760000Y-34715249D01*
X95760000Y-33375000D01*
X96260000Y-33375000D01*
X96910000Y-33375000D01*
X96910000Y-33067243D01*
X96909999Y-33067239D01*
X96907196Y-33035753D01*
X96907195Y-33035748D01*
X96861913Y-32899293D01*
X96861910Y-32899289D01*
X96780016Y-32781114D01*
X96780014Y-32781112D01*
X96668146Y-32690801D01*
X96668137Y-32690795D01*
X96639640Y-32677114D01*
X96260000Y-32534749D01*
X96260000Y-33375000D01*
X95760000Y-33375000D01*
X95760000Y-32322769D01*
X95759999Y-32322768D01*
X95612103Y-32261507D01*
X95612100Y-32261506D01*
X95585000Y-32256115D01*
X95585000Y-33125272D01*
X95546940Y-33033386D01*
X95476614Y-32963060D01*
X95384728Y-32925000D01*
X95285272Y-32925000D01*
X95193386Y-32963060D01*
X95123060Y-33033386D01*
X95085000Y-33125272D01*
X95085000Y-32256116D01*
X95084999Y-32256115D01*
X95057899Y-32261506D01*
X95057896Y-32261507D01*
X94885008Y-32333119D01*
X94884999Y-32333124D01*
X94729410Y-32437086D01*
X94729406Y-32437089D01*
X94597089Y-32569406D01*
X94597086Y-32569410D01*
X94493124Y-32724999D01*
X94493119Y-32725008D01*
X94421508Y-32897894D01*
X94421506Y-32897900D01*
X94406117Y-32975268D01*
X94373732Y-33037179D01*
X94313016Y-33071753D01*
X94243247Y-33068013D01*
X94186575Y-33027146D01*
X94160994Y-32962128D01*
X94160500Y-32951076D01*
X94160500Y-30336079D01*
X94131659Y-30191092D01*
X94131658Y-30191091D01*
X94131658Y-30191087D01*
X94110693Y-30140472D01*
X94075087Y-30054511D01*
X94075080Y-30054498D01*
X93992952Y-29931585D01*
X93940831Y-29879464D01*
X93888416Y-29827049D01*
X93888027Y-29826660D01*
X93878418Y-29817050D01*
X93878415Y-29817048D01*
X93755501Y-29734919D01*
X93755488Y-29734912D01*
X93618917Y-29678343D01*
X93618907Y-29678340D01*
X93473920Y-29649500D01*
X93473918Y-29649500D01*
X93326082Y-29649500D01*
X93326080Y-29649500D01*
X93181092Y-29678340D01*
X93181082Y-29678343D01*
X93044511Y-29734912D01*
X93044498Y-29734919D01*
X92921584Y-29817048D01*
X92921580Y-29817051D01*
X92817051Y-29921580D01*
X92817048Y-29921584D01*
X92734919Y-30044498D01*
X92734912Y-30044511D01*
X92678343Y-30181082D01*
X92678340Y-30181092D01*
X92649500Y-30326079D01*
X92649500Y-30473918D01*
X92650543Y-30479162D01*
X92649389Y-30492052D01*
X92652921Y-30504504D01*
X92646336Y-30526184D01*
X92644317Y-30548753D01*
X92636377Y-30558974D01*
X92632616Y-30571358D01*
X92615355Y-30586036D01*
X92601455Y-30603931D01*
X92588017Y-30609284D01*
X92579390Y-30616622D01*
X92549175Y-30624760D01*
X92545435Y-30626251D01*
X92543778Y-30626473D01*
X92502517Y-30630909D01*
X92497876Y-30632639D01*
X92485591Y-30634290D01*
X92456857Y-30629886D01*
X92427825Y-30628329D01*
X92422732Y-30624656D01*
X92416528Y-30623706D01*
X92394736Y-30604467D01*
X92371154Y-30587461D01*
X92366600Y-30579627D01*
X92364150Y-30577464D01*
X92363013Y-30573457D01*
X92354521Y-30558847D01*
X92336777Y-30516009D01*
X92336772Y-30516000D01*
X92265549Y-30409408D01*
X92225624Y-30369483D01*
X92174893Y-30318752D01*
X92043845Y-30187704D01*
X91900595Y-30044453D01*
X91900591Y-30044450D01*
X91793998Y-29973226D01*
X91793985Y-29973219D01*
X91675549Y-29924162D01*
X91675539Y-29924159D01*
X91549804Y-29899149D01*
X91549802Y-29899149D01*
X91498700Y-29899149D01*
X91431661Y-29879464D01*
X91385906Y-29826660D01*
X91374700Y-29775149D01*
X91374700Y-27157314D01*
X91349689Y-27031579D01*
X91349688Y-27031578D01*
X91349688Y-27031574D01*
X91343196Y-27015900D01*
X91300629Y-26913133D01*
X91300622Y-26913120D01*
X91229399Y-26806528D01*
X91227680Y-26804809D01*
X91138743Y-26715872D01*
X89301582Y-24878711D01*
X94149500Y-24878711D01*
X94149500Y-25121288D01*
X94181161Y-25361785D01*
X94243947Y-25596104D01*
X94331718Y-25808000D01*
X94336776Y-25820212D01*
X94458064Y-26030289D01*
X94458066Y-26030292D01*
X94458067Y-26030293D01*
X94605733Y-26222736D01*
X94605739Y-26222743D01*
X94777256Y-26394260D01*
X94777262Y-26394265D01*
X94969711Y-26541936D01*
X95179788Y-26663224D01*
X95403900Y-26756054D01*
X95638211Y-26818838D01*
X95776821Y-26837086D01*
X95878711Y-26850500D01*
X95878712Y-26850500D01*
X96121289Y-26850500D01*
X96207858Y-26839103D01*
X96361789Y-26818838D01*
X96596100Y-26756054D01*
X96820212Y-26663224D01*
X97030289Y-26541936D01*
X97222738Y-26394265D01*
X97394265Y-26222738D01*
X97541936Y-26030289D01*
X97663224Y-25820212D01*
X97756054Y-25596100D01*
X97818838Y-25361789D01*
X97850500Y-25121288D01*
X97850500Y-24878712D01*
X97818838Y-24638211D01*
X97756054Y-24403900D01*
X97663224Y-24179788D01*
X97541936Y-23969711D01*
X97411725Y-23800016D01*
X97394266Y-23777263D01*
X97394260Y-23777256D01*
X97222743Y-23605739D01*
X97222736Y-23605733D01*
X97030293Y-23458067D01*
X97030292Y-23458066D01*
X97030289Y-23458064D01*
X96820212Y-23336776D01*
X96785619Y-23322447D01*
X96596104Y-23243947D01*
X96361785Y-23181161D01*
X96121289Y-23149500D01*
X96121288Y-23149500D01*
X95878712Y-23149500D01*
X95878711Y-23149500D01*
X95638214Y-23181161D01*
X95403895Y-23243947D01*
X95179794Y-23336773D01*
X95179785Y-23336777D01*
X94969706Y-23458067D01*
X94777263Y-23605733D01*
X94777256Y-23605739D01*
X94605739Y-23777256D01*
X94605733Y-23777263D01*
X94458067Y-23969706D01*
X94458064Y-23969710D01*
X94458064Y-23969711D01*
X94441817Y-23997851D01*
X94336777Y-24179785D01*
X94336773Y-24179794D01*
X94243947Y-24403895D01*
X94181161Y-24638214D01*
X94149500Y-24878711D01*
X89301582Y-24878711D01*
X86341463Y-21918592D01*
X92173500Y-21918592D01*
X92173500Y-22081407D01*
X92205259Y-22241073D01*
X92205262Y-22241082D01*
X92267562Y-22391490D01*
X92267563Y-22391492D01*
X92358015Y-22526862D01*
X92358018Y-22526866D01*
X92473133Y-22641981D01*
X92473137Y-22641984D01*
X92608505Y-22732435D01*
X92608506Y-22732435D01*
X92608507Y-22732436D01*
X92608509Y-22732437D01*
X92701482Y-22770947D01*
X92758919Y-22794738D01*
X92758921Y-22794738D01*
X92758926Y-22794740D01*
X92918592Y-22826499D01*
X92918595Y-22826500D01*
X92918597Y-22826500D01*
X93081405Y-22826500D01*
X93081406Y-22826499D01*
X93134629Y-22815912D01*
X93241073Y-22794740D01*
X93241076Y-22794738D01*
X93241081Y-22794738D01*
X93391495Y-22732435D01*
X93526863Y-22641984D01*
X93641984Y-22526863D01*
X93732435Y-22391495D01*
X93794738Y-22241081D01*
X93826500Y-22081403D01*
X93826500Y-21918597D01*
X93826500Y-21918594D01*
X93826499Y-21918592D01*
X93794740Y-21758926D01*
X93794737Y-21758917D01*
X93782802Y-21730104D01*
X93766451Y-21690627D01*
X93732437Y-21608509D01*
X93732436Y-21608507D01*
X93717046Y-21585475D01*
X93641984Y-21473137D01*
X93641981Y-21473133D01*
X93526866Y-21358018D01*
X93526862Y-21358015D01*
X93391492Y-21267563D01*
X93391490Y-21267562D01*
X93241082Y-21205262D01*
X93241073Y-21205259D01*
X93081406Y-21173500D01*
X93081403Y-21173500D01*
X92918597Y-21173500D01*
X92918594Y-21173500D01*
X92758926Y-21205259D01*
X92758917Y-21205262D01*
X92608509Y-21267562D01*
X92608507Y-21267563D01*
X92473137Y-21358015D01*
X92473133Y-21358018D01*
X92358018Y-21473133D01*
X92358015Y-21473137D01*
X92267563Y-21608507D01*
X92267562Y-21608509D01*
X92205262Y-21758917D01*
X92205259Y-21758926D01*
X92173500Y-21918592D01*
X86341463Y-21918592D01*
X79680555Y-15257684D01*
X72823476Y-8400604D01*
X72823472Y-8400601D01*
X72716879Y-8329377D01*
X72716866Y-8329370D01*
X72598430Y-8280313D01*
X72598420Y-8280310D01*
X72472685Y-8255300D01*
X72472683Y-8255300D01*
X47648651Y-8255300D01*
X47627405Y-8249061D01*
X47605319Y-8247482D01*
X47594535Y-8239409D01*
X47581612Y-8235615D01*
X47567113Y-8218882D01*
X47549385Y-8205612D01*
X47544676Y-8192989D01*
X47535857Y-8182811D01*
X47532705Y-8160895D01*
X47524967Y-8140148D01*
X47527830Y-8126985D01*
X47525913Y-8113653D01*
X47535111Y-8093510D01*
X47539818Y-8071875D01*
X47553088Y-8054145D01*
X47554938Y-8050097D01*
X47560952Y-8043636D01*
X47598729Y-8005860D01*
X47598733Y-8005858D01*
X47685858Y-7918733D01*
X47747486Y-7826500D01*
X47754312Y-7816285D01*
X47786576Y-7738393D01*
X47801463Y-7702452D01*
X47808715Y-7665992D01*
X47825108Y-7583581D01*
X47825110Y-7583569D01*
X47825499Y-7581610D01*
X47825500Y-7581608D01*
X47825500Y-7197025D01*
X47829764Y-7164787D01*
X47832449Y-7154815D01*
X47896050Y-6918592D01*
X92173500Y-6918592D01*
X92173500Y-7081407D01*
X92205259Y-7241073D01*
X92205262Y-7241082D01*
X92267562Y-7391490D01*
X92267563Y-7391492D01*
X92358015Y-7526862D01*
X92358017Y-7526865D01*
X92473133Y-7641981D01*
X92473137Y-7641984D01*
X92608505Y-7732435D01*
X92608506Y-7732435D01*
X92608507Y-7732436D01*
X92608509Y-7732437D01*
X92677021Y-7760815D01*
X92758919Y-7794738D01*
X92758921Y-7794738D01*
X92758926Y-7794740D01*
X92918592Y-7826499D01*
X92918595Y-7826500D01*
X92918597Y-7826500D01*
X93081405Y-7826500D01*
X93081406Y-7826499D01*
X93150720Y-7812712D01*
X93241073Y-7794740D01*
X93241076Y-7794738D01*
X93241081Y-7794738D01*
X93391495Y-7732435D01*
X93526863Y-7641984D01*
X93580700Y-7588147D01*
X93641983Y-7526865D01*
X93641984Y-7526863D01*
X93732435Y-7391495D01*
X93794738Y-7241081D01*
X93796249Y-7233488D01*
X93819748Y-7115348D01*
X93826500Y-7081403D01*
X93826500Y-6918597D01*
X93826500Y-6918594D01*
X93826499Y-6918592D01*
X93794740Y-6758926D01*
X93794737Y-6758917D01*
X93732437Y-6608509D01*
X93732436Y-6608507D01*
X93710248Y-6575301D01*
X93641984Y-6473137D01*
X93641981Y-6473133D01*
X93526866Y-6358018D01*
X93526862Y-6358015D01*
X93391492Y-6267563D01*
X93391490Y-6267562D01*
X93241082Y-6205262D01*
X93241073Y-6205259D01*
X93081406Y-6173500D01*
X93081403Y-6173500D01*
X92918597Y-6173500D01*
X92918594Y-6173500D01*
X92758926Y-6205259D01*
X92758917Y-6205262D01*
X92608509Y-6267562D01*
X92608507Y-6267563D01*
X92473137Y-6358015D01*
X92473133Y-6358018D01*
X92358018Y-6473133D01*
X92358015Y-6473137D01*
X92267563Y-6608507D01*
X92267562Y-6608509D01*
X92205262Y-6758917D01*
X92205259Y-6758926D01*
X92173500Y-6918592D01*
X47896050Y-6918592D01*
X47930074Y-6792224D01*
X47934019Y-6776581D01*
X47934187Y-6775867D01*
X47945429Y-6707153D01*
X47945121Y-6700956D01*
X47950500Y-6673918D01*
X47950500Y-6526082D01*
X47950101Y-6524078D01*
X47939968Y-6473137D01*
X47935795Y-6452161D01*
X47934311Y-6442856D01*
X47934007Y-6440342D01*
X47930074Y-6407775D01*
X47829764Y-6035211D01*
X47825500Y-6002973D01*
X47825500Y-5938393D01*
X47825499Y-5938389D01*
X47818191Y-5901647D01*
X47801463Y-5817548D01*
X47774083Y-5751447D01*
X47754312Y-5703714D01*
X47710260Y-5637787D01*
X47685858Y-5601267D01*
X47685856Y-5601264D01*
X47681993Y-5596557D01*
X47683169Y-5595591D01*
X47659612Y-5558642D01*
X47508007Y-5143020D01*
X47501249Y-5104774D01*
X47500659Y-5104805D01*
X47500498Y-5101644D01*
X47490349Y-5002292D01*
X47490348Y-5002289D01*
X47455897Y-4898322D01*
X47437003Y-4841303D01*
X47436999Y-4841297D01*
X47436998Y-4841294D01*
X47347970Y-4696959D01*
X47347967Y-4696955D01*
X47228044Y-4577032D01*
X47228040Y-4577029D01*
X47083705Y-4488001D01*
X47083699Y-4487998D01*
X47083697Y-4487997D01*
X47047492Y-4476000D01*
X46922709Y-4434651D01*
X46823346Y-4424500D01*
X46276662Y-4424500D01*
X46276644Y-4424501D01*
X46177292Y-4434650D01*
X46177289Y-4434651D01*
X46016305Y-4487996D01*
X46016294Y-4488001D01*
X45871959Y-4577029D01*
X45871953Y-4577033D01*
X45862324Y-4586663D01*
X45801000Y-4620146D01*
X45731308Y-4615159D01*
X45686965Y-4586660D01*
X45677732Y-4577427D01*
X45677728Y-4577424D01*
X45533492Y-4488457D01*
X45533481Y-4488452D01*
X45372606Y-4435144D01*
X45273322Y-4425000D01*
X45250000Y-4425000D01*
X45250000Y-6374999D01*
X45273308Y-6374999D01*
X45273322Y-6374998D01*
X45372607Y-6364855D01*
X45533481Y-6311547D01*
X45533492Y-6311542D01*
X45677731Y-6222573D01*
X45686959Y-6213345D01*
X45748279Y-6179856D01*
X45817971Y-6184835D01*
X45862327Y-6213339D01*
X45871955Y-6222967D01*
X45871959Y-6222970D01*
X46016294Y-6311998D01*
X46016297Y-6311999D01*
X46016303Y-6312003D01*
X46177292Y-6365349D01*
X46247182Y-6372489D01*
X46259916Y-6373790D01*
X46287696Y-6379908D01*
X46335231Y-6396280D01*
X46365882Y-6406838D01*
X46422856Y-6447281D01*
X46448921Y-6512107D01*
X46449500Y-6524078D01*
X46449500Y-6526081D01*
X46449500Y-6526082D01*
X46449500Y-6673918D01*
X46449500Y-6673920D01*
X46449499Y-6673920D01*
X46464198Y-6747809D01*
X46465686Y-6757130D01*
X46469924Y-6792219D01*
X46469924Y-6792220D01*
X46541926Y-7059642D01*
X46540348Y-7129494D01*
X46501255Y-7187404D01*
X46437060Y-7214985D01*
X46378858Y-7208062D01*
X46307382Y-7181403D01*
X46307372Y-7181401D01*
X46247844Y-7175000D01*
X45725000Y-7175000D01*
X45725000Y-7570500D01*
X45722449Y-7579185D01*
X45723738Y-7588147D01*
X45712759Y-7612187D01*
X45705315Y-7637539D01*
X45698474Y-7643466D01*
X45694713Y-7651703D01*
X45672478Y-7665992D01*
X45652511Y-7683294D01*
X45641996Y-7685581D01*
X45635935Y-7689477D01*
X45601000Y-7694500D01*
X45599000Y-7694500D01*
X45531961Y-7674815D01*
X45486206Y-7622011D01*
X45475000Y-7570500D01*
X45475000Y-7175000D01*
X44952155Y-7175000D01*
X44892627Y-7181401D01*
X44892620Y-7181403D01*
X44757913Y-7231645D01*
X44757906Y-7231649D01*
X44642812Y-7317809D01*
X44642809Y-7317812D01*
X44556649Y-7432906D01*
X44556645Y-7432913D01*
X44506403Y-7567620D01*
X44506401Y-7567627D01*
X44500000Y-7627155D01*
X44500000Y-7675000D01*
X44516345Y-7675000D01*
X44529264Y-7678793D01*
X44542696Y-7677832D01*
X44562136Y-7688445D01*
X44583384Y-7694685D01*
X44592201Y-7704860D01*
X44604021Y-7711314D01*
X44614637Y-7730752D01*
X44629139Y-7747489D01*
X44631055Y-7760815D01*
X44637510Y-7772635D01*
X44635931Y-7794726D01*
X44639083Y-7816647D01*
X44633380Y-7830415D01*
X44632529Y-7842327D01*
X44615616Y-7873305D01*
X44614119Y-7875305D01*
X44558188Y-7917179D01*
X44514848Y-7925000D01*
X44500000Y-7925000D01*
X44500000Y-7972844D01*
X44507231Y-8040087D01*
X44505935Y-8040226D01*
X44505935Y-8079718D01*
X44506738Y-8079805D01*
X44505935Y-8087273D01*
X44505935Y-8087404D01*
X44505909Y-8087512D01*
X44500250Y-8140148D01*
X44499501Y-8147123D01*
X44499500Y-8147136D01*
X44499500Y-8492869D01*
X44499501Y-8492876D01*
X44505909Y-8552485D01*
X44506855Y-8556489D01*
X44506856Y-8613506D01*
X44505910Y-8617507D01*
X44505909Y-8617517D01*
X44499500Y-8677127D01*
X44499500Y-8677134D01*
X44499500Y-8677135D01*
X44499500Y-9022869D01*
X44499501Y-9022874D01*
X44505909Y-9082484D01*
X44507692Y-9090028D01*
X44504749Y-9090723D01*
X44508719Y-9146381D01*
X44507667Y-9149961D01*
X44507693Y-9149968D01*
X44505908Y-9157520D01*
X44499501Y-9217117D01*
X44499501Y-9217123D01*
X44499500Y-9217136D01*
X44499500Y-9562869D01*
X44499501Y-9562876D01*
X44506738Y-9630196D01*
X44505673Y-9630310D01*
X44505674Y-9669689D01*
X44506739Y-9669804D01*
X44505910Y-9677514D01*
X44505909Y-9677517D01*
X44499500Y-9737127D01*
X44499500Y-9737134D01*
X44499500Y-9737135D01*
X44499500Y-10082869D01*
X44499501Y-10082874D01*
X44505909Y-10142484D01*
X44507692Y-10150028D01*
X44504749Y-10150723D01*
X44508719Y-10206381D01*
X44507667Y-10209961D01*
X44507693Y-10209968D01*
X44505908Y-10217520D01*
X44499501Y-10277117D01*
X44499501Y-10277123D01*
X44499500Y-10277136D01*
X44499500Y-10622869D01*
X44499501Y-10622876D01*
X44506738Y-10690196D01*
X44505673Y-10690310D01*
X44505674Y-10729689D01*
X44506739Y-10729804D01*
X44505910Y-10737514D01*
X44505909Y-10737517D01*
X44499500Y-10797127D01*
X44499500Y-10797134D01*
X44499500Y-10797135D01*
X44499500Y-11142869D01*
X44499501Y-11142876D01*
X44505909Y-11202485D01*
X44506855Y-11206489D01*
X44506856Y-11263506D01*
X44505910Y-11267507D01*
X44505909Y-11267517D01*
X44499500Y-11327127D01*
X44499500Y-11327134D01*
X44499500Y-11327135D01*
X44499500Y-11672869D01*
X44499501Y-11672876D01*
X44505908Y-11732483D01*
X44556202Y-11867328D01*
X44556206Y-11867335D01*
X44642452Y-11982544D01*
X44642455Y-11982547D01*
X44757664Y-12068793D01*
X44757671Y-12068797D01*
X44802618Y-12085561D01*
X44892517Y-12119091D01*
X44952127Y-12125500D01*
X45396237Y-12125499D01*
X45420429Y-12127882D01*
X45535894Y-12150850D01*
X45535897Y-12150850D01*
X46010897Y-12150850D01*
X46076617Y-12150850D01*
X46143656Y-12170535D01*
X46164298Y-12187169D01*
X49608981Y-15631852D01*
X49642466Y-15693175D01*
X49645300Y-15719533D01*
X49645300Y-24808599D01*
X49642073Y-24836704D01*
X49639762Y-24846630D01*
X49634162Y-24860153D01*
X49619716Y-24932772D01*
X49619261Y-24934732D01*
X49603023Y-24963473D01*
X49587720Y-24992730D01*
X49585914Y-24993757D01*
X49584894Y-24995565D01*
X49555705Y-25010960D01*
X49527004Y-25027304D01*
X49523620Y-25027883D01*
X49523094Y-25028161D01*
X49522364Y-25028098D01*
X49511744Y-25029916D01*
X49502519Y-25030907D01*
X49502516Y-25030908D01*
X49399760Y-25069233D01*
X49330068Y-25074217D01*
X49268745Y-25040731D01*
X49253325Y-25021941D01*
X49192951Y-24931584D01*
X49088416Y-24827049D01*
X49088413Y-24827046D01*
X49078418Y-24817050D01*
X49078415Y-24817048D01*
X48955501Y-24734919D01*
X48955488Y-24734912D01*
X48818917Y-24678343D01*
X48818907Y-24678340D01*
X48673920Y-24649500D01*
X48673918Y-24649500D01*
X48526082Y-24649500D01*
X48526080Y-24649500D01*
X48381092Y-24678340D01*
X48381082Y-24678343D01*
X48244511Y-24734912D01*
X48244498Y-24734919D01*
X48121584Y-24817048D01*
X48121580Y-24817051D01*
X48017051Y-24921580D01*
X48017048Y-24921584D01*
X47934919Y-25044498D01*
X47934912Y-25044511D01*
X47878343Y-25181082D01*
X47878340Y-25181092D01*
X47849500Y-25326079D01*
X47849500Y-25473919D01*
X47857117Y-25512209D01*
X47859500Y-25536402D01*
X47859500Y-27351078D01*
X47839815Y-27418117D01*
X47787011Y-27463872D01*
X47717853Y-27473816D01*
X47654297Y-27444791D01*
X47616523Y-27386013D01*
X47613883Y-27375269D01*
X47598493Y-27297902D01*
X47598491Y-27297894D01*
X47526880Y-27125008D01*
X47526875Y-27124999D01*
X47422913Y-26969410D01*
X47422910Y-26969406D01*
X47290593Y-26837089D01*
X47290589Y-26837086D01*
X47135000Y-26733124D01*
X47134991Y-26733119D01*
X46962103Y-26661507D01*
X46962100Y-26661506D01*
X46935000Y-26656115D01*
X46935000Y-27525272D01*
X46896940Y-27433386D01*
X46826614Y-27363060D01*
X46734728Y-27325000D01*
X46635272Y-27325000D01*
X46543386Y-27363060D01*
X46473060Y-27433386D01*
X46435000Y-27525272D01*
X46435000Y-26656116D01*
X46434999Y-26656115D01*
X46407899Y-26661506D01*
X46407896Y-26661507D01*
X46260000Y-26722768D01*
X46260000Y-27901000D01*
X46240315Y-27968039D01*
X46187511Y-28013794D01*
X46136000Y-28025000D01*
X46010000Y-28025000D01*
X46010000Y-28151000D01*
X45990315Y-28218039D01*
X45937511Y-28263794D01*
X45886000Y-28275000D01*
X45110000Y-28275000D01*
X45110000Y-28519980D01*
X45090315Y-28587019D01*
X45037511Y-28632774D01*
X44968353Y-28642718D01*
X44904797Y-28613693D01*
X44898319Y-28607661D01*
X44860188Y-28569530D01*
X44845687Y-28560764D01*
X44714606Y-28481522D01*
X44552196Y-28430914D01*
X44552194Y-28430913D01*
X44552192Y-28430913D01*
X44498848Y-28426066D01*
X44481616Y-28424500D01*
X43980659Y-28424500D01*
X43913620Y-28404815D01*
X43867865Y-28352011D01*
X43857921Y-28282853D01*
X43866098Y-28253047D01*
X43874696Y-28232290D01*
X43921658Y-28118913D01*
X43940339Y-28025000D01*
X43950500Y-27973920D01*
X43950500Y-27826079D01*
X43921659Y-27681092D01*
X43921658Y-27681091D01*
X43921658Y-27681087D01*
X43894146Y-27614667D01*
X43865087Y-27544511D01*
X43865082Y-27544502D01*
X43857657Y-27533389D01*
X43857656Y-27533387D01*
X43813461Y-27467245D01*
X45110000Y-27467245D01*
X45110000Y-27775000D01*
X45760000Y-27775000D01*
X45760000Y-26934748D01*
X45380378Y-27077106D01*
X45351853Y-27090800D01*
X45239986Y-27181113D01*
X45239983Y-27181117D01*
X45158091Y-27299285D01*
X45158088Y-27299292D01*
X45112804Y-27435752D01*
X45110000Y-27467245D01*
X43813461Y-27467245D01*
X43782951Y-27421584D01*
X43782948Y-27421580D01*
X43678419Y-27317051D01*
X43678415Y-27317048D01*
X43555501Y-27234919D01*
X43555488Y-27234912D01*
X43418917Y-27178343D01*
X43418907Y-27178340D01*
X43273920Y-27149500D01*
X43273918Y-27149500D01*
X43126082Y-27149500D01*
X43126080Y-27149500D01*
X42981092Y-27178340D01*
X42981082Y-27178343D01*
X42844511Y-27234912D01*
X42844498Y-27234919D01*
X42721585Y-27317047D01*
X42617050Y-27421583D01*
X42617042Y-27421592D01*
X42613612Y-27426726D01*
X42596770Y-27446394D01*
X42596847Y-27446467D01*
X42595328Y-27448077D01*
X42594468Y-27449083D01*
X42593815Y-27449683D01*
X42593811Y-27449687D01*
X42323471Y-27780931D01*
X42311826Y-27796055D01*
X42301260Y-27808082D01*
X42030888Y-28078453D01*
X42030887Y-28078454D01*
X41954223Y-28193192D01*
X41901421Y-28320668D01*
X41901418Y-28320678D01*
X41890712Y-28374503D01*
X41886024Y-28391585D01*
X41716123Y-28872909D01*
X41702390Y-28928170D01*
X41700436Y-28935152D01*
X41680914Y-28997803D01*
X41680553Y-29001772D01*
X41674500Y-29068384D01*
X41674500Y-29731616D01*
X41679119Y-29782446D01*
X41680914Y-29802196D01*
X41680915Y-29802202D01*
X41707614Y-29887886D01*
X41710841Y-29900559D01*
X41716124Y-29927093D01*
X41797887Y-30158725D01*
X41801640Y-30228494D01*
X41797887Y-30241273D01*
X41716123Y-30472909D01*
X41702390Y-30528170D01*
X41700436Y-30535152D01*
X41680914Y-30597803D01*
X41674500Y-30668386D01*
X41674500Y-31331613D01*
X41680913Y-31402192D01*
X41680913Y-31402194D01*
X41680914Y-31402196D01*
X41731522Y-31564606D01*
X41770624Y-31629289D01*
X41819530Y-31710188D01*
X41939811Y-31830469D01*
X41939813Y-31830470D01*
X41939815Y-31830472D01*
X42085394Y-31918478D01*
X42247804Y-31969086D01*
X42318384Y-31975500D01*
X42318387Y-31975500D01*
X42831613Y-31975500D01*
X42831616Y-31975500D01*
X42902196Y-31969086D01*
X43064606Y-31918478D01*
X43210185Y-31830472D01*
X43248318Y-31792339D01*
X43312319Y-31728339D01*
X43373642Y-31694854D01*
X43443334Y-31699838D01*
X43487681Y-31728339D01*
X43589811Y-31830469D01*
X43589813Y-31830470D01*
X43589815Y-31830472D01*
X43735394Y-31918478D01*
X43897804Y-31969086D01*
X43968384Y-31975500D01*
X43968387Y-31975500D01*
X44481613Y-31975500D01*
X44481616Y-31975500D01*
X44552196Y-31969086D01*
X44714606Y-31918478D01*
X44860185Y-31830472D01*
X44879229Y-31811428D01*
X44898319Y-31792339D01*
X44959642Y-31758854D01*
X45029334Y-31763838D01*
X45085267Y-31805710D01*
X45109684Y-31871174D01*
X45110000Y-31880020D01*
X45110000Y-31955000D01*
X45886000Y-31955000D01*
X45953039Y-31974685D01*
X45998794Y-32027489D01*
X46010000Y-32079000D01*
X46010000Y-32331000D01*
X45990315Y-32398039D01*
X45937511Y-32443794D01*
X45886000Y-32455000D01*
X45110000Y-32455000D01*
X45110000Y-32612760D01*
X45112803Y-32644246D01*
X45112804Y-32644251D01*
X45158086Y-32780706D01*
X45158089Y-32780711D01*
X45174832Y-32804871D01*
X45196838Y-32871184D01*
X45179498Y-32938868D01*
X45128319Y-32986433D01*
X45072913Y-32999500D01*
X26516580Y-32999500D01*
X26467364Y-32996237D01*
X26450895Y-32999500D01*
X26434108Y-32999500D01*
X26390447Y-33011198D01*
X26382460Y-33013057D01*
X26338093Y-33021848D01*
X26338087Y-33021850D01*
X26333944Y-33023889D01*
X26333945Y-33023890D01*
X26323028Y-33029263D01*
X26306814Y-33033608D01*
X26264100Y-33058268D01*
X26260413Y-33060083D01*
X26260409Y-33060083D01*
X26219857Y-33080044D01*
X26219855Y-33080046D01*
X26216372Y-33083096D01*
X26215985Y-33083433D01*
X26206995Y-33091237D01*
X26192686Y-33099500D01*
X26161082Y-33131102D01*
X26157780Y-33133970D01*
X26157589Y-33134057D01*
X26156385Y-33135163D01*
X25440698Y-33738214D01*
X25437038Y-33741181D01*
X24686490Y-34326330D01*
X24682720Y-34329156D01*
X23910461Y-34885384D01*
X23906586Y-34888064D01*
X23113794Y-35414527D01*
X23109820Y-35417059D01*
X22297558Y-35913048D01*
X22293491Y-35915426D01*
X21463021Y-36380173D01*
X21458867Y-36382396D01*
X20611294Y-36815282D01*
X20607058Y-36817345D01*
X19743660Y-37217716D01*
X19739349Y-37219616D01*
X18861392Y-37586884D01*
X18857011Y-37588620D01*
X17965692Y-37922286D01*
X17961249Y-37923853D01*
X17057947Y-38223402D01*
X17053448Y-38224800D01*
X16139385Y-38489825D01*
X16134835Y-38491051D01*
X15211374Y-38721158D01*
X15206782Y-38722210D01*
X14275243Y-38917068D01*
X14270613Y-38917945D01*
X13332337Y-39077275D01*
X13327678Y-39077975D01*
X12384048Y-39201542D01*
X12379366Y-39202065D01*
X11431715Y-39289696D01*
X11427016Y-39290041D01*
X10476708Y-39341607D01*
X10471999Y-39341773D01*
X9520425Y-39357199D01*
X9515713Y-39357186D01*
X8564212Y-39336451D01*
X8559505Y-39336258D01*
X7609551Y-39279395D01*
X7604854Y-39279025D01*
X6657681Y-39186108D01*
X6653001Y-39185559D01*
X5710043Y-39056726D01*
X5705388Y-39055999D01*
X4768056Y-38891445D01*
X4763432Y-38890543D01*
X3832975Y-38690487D01*
X3828388Y-38689409D01*
X2906230Y-38454156D01*
X2901688Y-38452905D01*
X1989125Y-38182787D01*
X1984633Y-38181364D01*
X1082977Y-37876770D01*
X1078562Y-37875184D01*
X580379Y-37685513D01*
X524731Y-37643263D01*
X500759Y-37577635D01*
X500500Y-37569628D01*
X500500Y-32062533D01*
X1075000Y-32062533D01*
X1075000Y-32357466D01*
X1075001Y-32357483D01*
X1113496Y-32649884D01*
X1113499Y-32649897D01*
X1189835Y-32934790D01*
X1189838Y-32934800D01*
X1302704Y-33207281D01*
X1302709Y-33207292D01*
X1450174Y-33462707D01*
X1450180Y-33462715D01*
X1566777Y-33614667D01*
X2352912Y-32828532D01*
X2447829Y-32959175D01*
X2575825Y-33087171D01*
X2706466Y-33182086D01*
X1920331Y-33968221D01*
X2072284Y-34084819D01*
X2072292Y-34084825D01*
X2327707Y-34232290D01*
X2327718Y-34232295D01*
X2600199Y-34345161D01*
X2600209Y-34345164D01*
X2885102Y-34421500D01*
X2885115Y-34421503D01*
X3177516Y-34459998D01*
X3177534Y-34460000D01*
X3472466Y-34460000D01*
X3472483Y-34459998D01*
X3764884Y-34421503D01*
X3764897Y-34421500D01*
X4049790Y-34345164D01*
X4049800Y-34345161D01*
X4322281Y-34232295D01*
X4322292Y-34232290D01*
X4577707Y-34084825D01*
X4577725Y-34084813D01*
X4729667Y-33968222D01*
X4729667Y-33968220D01*
X3943533Y-33182086D01*
X4074175Y-33087171D01*
X4202171Y-32959175D01*
X4297086Y-32828533D01*
X5083220Y-33614667D01*
X5083222Y-33614667D01*
X5199813Y-33462725D01*
X5199825Y-33462707D01*
X5347290Y-33207292D01*
X5347295Y-33207281D01*
X5460161Y-32934800D01*
X5460164Y-32934790D01*
X5536500Y-32649897D01*
X5536503Y-32649884D01*
X5574998Y-32357483D01*
X5575000Y-32357466D01*
X5575000Y-32062533D01*
X14425000Y-32062533D01*
X14425000Y-32357466D01*
X14425001Y-32357483D01*
X14463496Y-32649884D01*
X14463499Y-32649897D01*
X14539835Y-32934790D01*
X14539838Y-32934800D01*
X14652704Y-33207281D01*
X14652709Y-33207292D01*
X14800174Y-33462707D01*
X14800180Y-33462715D01*
X14916777Y-33614667D01*
X15702912Y-32828532D01*
X15797829Y-32959175D01*
X15925825Y-33087171D01*
X16056466Y-33182086D01*
X15270331Y-33968221D01*
X15422284Y-34084819D01*
X15422292Y-34084825D01*
X15677707Y-34232290D01*
X15677718Y-34232295D01*
X15950199Y-34345161D01*
X15950209Y-34345164D01*
X16235102Y-34421500D01*
X16235115Y-34421503D01*
X16527516Y-34459998D01*
X16527534Y-34460000D01*
X16822466Y-34460000D01*
X16822483Y-34459998D01*
X17114884Y-34421503D01*
X17114897Y-34421500D01*
X17399790Y-34345164D01*
X17399800Y-34345161D01*
X17672281Y-34232295D01*
X17672292Y-34232290D01*
X17927707Y-34084825D01*
X17927725Y-34084813D01*
X18079667Y-33968222D01*
X18079667Y-33968220D01*
X17293533Y-33182086D01*
X17424175Y-33087171D01*
X17552171Y-32959175D01*
X17647086Y-32828533D01*
X18433220Y-33614667D01*
X18433222Y-33614667D01*
X18549813Y-33462725D01*
X18549825Y-33462707D01*
X18697290Y-33207292D01*
X18697295Y-33207281D01*
X18810161Y-32934800D01*
X18810164Y-32934790D01*
X18886500Y-32649897D01*
X18886503Y-32649884D01*
X18924998Y-32357483D01*
X18925000Y-32357466D01*
X18925000Y-32062533D01*
X18924998Y-32062516D01*
X18886503Y-31770115D01*
X18886500Y-31770102D01*
X18810164Y-31485209D01*
X18810161Y-31485199D01*
X18697295Y-31212718D01*
X18697290Y-31212707D01*
X18549825Y-30957292D01*
X18549819Y-30957284D01*
X18433221Y-30805331D01*
X17647086Y-31591466D01*
X17552171Y-31460825D01*
X17424175Y-31332829D01*
X17293532Y-31237912D01*
X18079667Y-30451777D01*
X17927715Y-30335180D01*
X17927707Y-30335174D01*
X17672292Y-30187709D01*
X17672281Y-30187704D01*
X17399800Y-30074838D01*
X17399790Y-30074835D01*
X17114897Y-29998499D01*
X17114884Y-29998496D01*
X16822483Y-29960001D01*
X16822466Y-29960000D01*
X16527534Y-29960000D01*
X16527516Y-29960001D01*
X16235115Y-29998496D01*
X16235102Y-29998499D01*
X15950209Y-30074835D01*
X15950199Y-30074838D01*
X15677718Y-30187704D01*
X15677707Y-30187709D01*
X15422292Y-30335174D01*
X15422276Y-30335185D01*
X15270331Y-30451775D01*
X15270331Y-30451777D01*
X16056466Y-31237912D01*
X15925825Y-31332829D01*
X15797829Y-31460825D01*
X15702912Y-31591466D01*
X14916777Y-30805331D01*
X14916775Y-30805331D01*
X14800185Y-30957276D01*
X14800174Y-30957292D01*
X14652709Y-31212707D01*
X14652704Y-31212718D01*
X14539838Y-31485199D01*
X14539835Y-31485209D01*
X14463499Y-31770102D01*
X14463496Y-31770115D01*
X14425001Y-32062516D01*
X14425000Y-32062533D01*
X5575000Y-32062533D01*
X5574998Y-32062516D01*
X5536503Y-31770115D01*
X5536500Y-31770102D01*
X5460164Y-31485209D01*
X5460161Y-31485199D01*
X5347295Y-31212718D01*
X5347290Y-31212707D01*
X5199825Y-30957292D01*
X5199819Y-30957284D01*
X5083221Y-30805331D01*
X4297086Y-31591466D01*
X4202171Y-31460825D01*
X4074175Y-31332829D01*
X3943532Y-31237912D01*
X4729667Y-30451777D01*
X4577715Y-30335180D01*
X4577707Y-30335174D01*
X4322292Y-30187709D01*
X4322281Y-30187704D01*
X4049800Y-30074838D01*
X4049790Y-30074835D01*
X3764897Y-29998499D01*
X3764884Y-29998496D01*
X3472483Y-29960001D01*
X3472466Y-29960000D01*
X3177534Y-29960000D01*
X3177516Y-29960001D01*
X2885115Y-29998496D01*
X2885102Y-29998499D01*
X2600209Y-30074835D01*
X2600199Y-30074838D01*
X2327718Y-30187704D01*
X2327707Y-30187709D01*
X2072292Y-30335174D01*
X2072276Y-30335185D01*
X1920331Y-30451775D01*
X1920331Y-30451777D01*
X2706466Y-31237912D01*
X2575825Y-31332829D01*
X2447829Y-31460825D01*
X2352912Y-31591466D01*
X1566777Y-30805331D01*
X1566775Y-30805331D01*
X1450185Y-30957276D01*
X1450174Y-30957292D01*
X1302709Y-31212707D01*
X1302704Y-31212718D01*
X1189838Y-31485199D01*
X1189835Y-31485209D01*
X1113499Y-31770102D01*
X1113496Y-31770115D01*
X1075001Y-32062516D01*
X1075000Y-32062533D01*
X500500Y-32062533D01*
X500500Y-24878711D01*
X2149500Y-24878711D01*
X2149500Y-25121288D01*
X2181161Y-25361785D01*
X2243947Y-25596104D01*
X2331718Y-25808000D01*
X2336776Y-25820212D01*
X2458064Y-26030289D01*
X2458066Y-26030292D01*
X2458067Y-26030293D01*
X2605733Y-26222736D01*
X2605739Y-26222743D01*
X2777256Y-26394260D01*
X2777262Y-26394265D01*
X2969711Y-26541936D01*
X3179788Y-26663224D01*
X3403900Y-26756054D01*
X3638211Y-26818838D01*
X3776821Y-26837086D01*
X3878711Y-26850500D01*
X3878712Y-26850500D01*
X4121289Y-26850500D01*
X4207858Y-26839103D01*
X4361789Y-26818838D01*
X4596100Y-26756054D01*
X4820212Y-26663224D01*
X5030289Y-26541936D01*
X5222738Y-26394265D01*
X5394265Y-26222738D01*
X5541936Y-26030289D01*
X5663224Y-25820212D01*
X5756054Y-25596100D01*
X5818838Y-25361789D01*
X5850500Y-25121288D01*
X5850500Y-24878712D01*
X5818838Y-24638211D01*
X5756054Y-24403900D01*
X5663224Y-24179788D01*
X5541936Y-23969711D01*
X5411725Y-23800016D01*
X5394266Y-23777263D01*
X5394260Y-23777256D01*
X5222743Y-23605739D01*
X5222736Y-23605733D01*
X5030293Y-23458067D01*
X5030292Y-23458066D01*
X5030289Y-23458064D01*
X4820212Y-23336776D01*
X4785619Y-23322447D01*
X4596104Y-23243947D01*
X4361785Y-23181161D01*
X4121289Y-23149500D01*
X4121288Y-23149500D01*
X3878712Y-23149500D01*
X3878711Y-23149500D01*
X3638214Y-23181161D01*
X3403895Y-23243947D01*
X3179794Y-23336773D01*
X3179785Y-23336777D01*
X2969706Y-23458067D01*
X2777263Y-23605733D01*
X2777256Y-23605739D01*
X2605739Y-23777256D01*
X2605733Y-23777263D01*
X2458067Y-23969706D01*
X2458064Y-23969710D01*
X2458064Y-23969711D01*
X2441817Y-23997851D01*
X2336777Y-24179785D01*
X2336773Y-24179794D01*
X2243947Y-24403895D01*
X2181161Y-24638214D01*
X2149500Y-24878711D01*
X500500Y-24878711D01*
X500500Y-20101647D01*
X3824500Y-20101647D01*
X3824500Y-20648337D01*
X3824501Y-20648355D01*
X3834650Y-20747707D01*
X3834651Y-20747710D01*
X3887996Y-20908694D01*
X3888001Y-20908705D01*
X3977029Y-21053040D01*
X3977032Y-21053044D01*
X4096955Y-21172967D01*
X4096959Y-21172970D01*
X4241294Y-21261998D01*
X4241297Y-21261999D01*
X4241303Y-21262003D01*
X4402292Y-21315349D01*
X4501655Y-21325500D01*
X5098344Y-21325499D01*
X5098352Y-21325498D01*
X5098355Y-21325498D01*
X5121434Y-21323140D01*
X5197708Y-21315349D01*
X5229068Y-21304956D01*
X5250315Y-21300666D01*
X5250216Y-21300008D01*
X5254594Y-21299342D01*
X5254606Y-21299342D01*
X5789998Y-21178540D01*
X5817290Y-21175500D01*
X6356290Y-21175500D01*
X6423329Y-21195185D01*
X6469084Y-21247989D01*
X6479028Y-21317147D01*
X6450003Y-21380703D01*
X6443971Y-21387181D01*
X6358018Y-21473133D01*
X6358015Y-21473137D01*
X6267563Y-21608507D01*
X6267562Y-21608509D01*
X6205262Y-21758917D01*
X6205259Y-21758926D01*
X6173500Y-21918592D01*
X6173500Y-22081407D01*
X6205259Y-22241073D01*
X6205262Y-22241082D01*
X6267562Y-22391490D01*
X6267563Y-22391492D01*
X6358015Y-22526862D01*
X6358018Y-22526866D01*
X6473133Y-22641981D01*
X6473137Y-22641984D01*
X6608505Y-22732435D01*
X6608506Y-22732435D01*
X6608507Y-22732436D01*
X6608509Y-22732437D01*
X6701482Y-22770947D01*
X6758919Y-22794738D01*
X6758921Y-22794738D01*
X6758926Y-22794740D01*
X6918592Y-22826499D01*
X6918595Y-22826500D01*
X6918597Y-22826500D01*
X7081405Y-22826500D01*
X7081406Y-22826499D01*
X7134629Y-22815912D01*
X7241073Y-22794740D01*
X7241076Y-22794738D01*
X7241081Y-22794738D01*
X7391495Y-22732435D01*
X7526863Y-22641984D01*
X7596865Y-22571981D01*
X7620965Y-22558821D01*
X7643226Y-22542751D01*
X7651187Y-22542319D01*
X7658186Y-22538498D01*
X7685573Y-22540456D01*
X7712993Y-22538971D01*
X7719925Y-22542913D01*
X7727878Y-22543482D01*
X7749860Y-22559937D01*
X7773728Y-22573511D01*
X7780473Y-22582853D01*
X7783812Y-22585353D01*
X7794388Y-22602127D01*
X7809259Y-22630517D01*
X7885343Y-22775768D01*
X7899500Y-22833304D01*
X7899500Y-23720937D01*
X7898865Y-23733472D01*
X7894961Y-23771886D01*
X7907195Y-24104724D01*
X7889986Y-24172442D01*
X7870960Y-24196960D01*
X6457922Y-25610000D01*
X5989711Y-26078211D01*
X5956216Y-26111706D01*
X5878209Y-26189712D01*
X5790609Y-26320814D01*
X5790602Y-26320827D01*
X5730264Y-26466498D01*
X5730261Y-26466510D01*
X5699500Y-26621153D01*
X5699500Y-27791823D01*
X5681533Y-27856111D01*
X5310497Y-28468080D01*
X5310487Y-28468099D01*
X5310291Y-28468552D01*
X5310292Y-28468553D01*
X5304505Y-28481907D01*
X5294204Y-28495669D01*
X5267384Y-28567575D01*
X5266100Y-28570539D01*
X5266098Y-28570540D01*
X5255941Y-28593985D01*
X5255938Y-28593991D01*
X5254244Y-28600048D01*
X5253892Y-28601433D01*
X5253859Y-28601424D01*
X5253857Y-28601434D01*
X5253786Y-28601414D01*
X5249754Y-28614843D01*
X5243909Y-28630514D01*
X5243908Y-28630520D01*
X5237501Y-28690116D01*
X5237500Y-28690135D01*
X5237500Y-30309870D01*
X5237501Y-30309876D01*
X5243908Y-30369483D01*
X5294202Y-30504328D01*
X5294206Y-30504335D01*
X5380452Y-30619544D01*
X5380455Y-30619547D01*
X5495664Y-30705793D01*
X5495671Y-30705797D01*
X5630517Y-30756091D01*
X5630516Y-30756091D01*
X5637444Y-30756835D01*
X5690127Y-30762500D01*
X7309872Y-30762499D01*
X7369483Y-30756091D01*
X7504331Y-30705796D01*
X7619546Y-30619546D01*
X7705796Y-30504331D01*
X7756091Y-30369483D01*
X7762299Y-30311739D01*
X7789034Y-30247193D01*
X7846426Y-30207344D01*
X7916251Y-30204849D01*
X7976341Y-30240501D01*
X7985904Y-30252112D01*
X8027869Y-30309870D01*
X8037019Y-30322464D01*
X8177536Y-30462981D01*
X8338306Y-30579787D01*
X8415146Y-30618939D01*
X8515367Y-30670005D01*
X8515370Y-30670006D01*
X8549835Y-30681204D01*
X8704364Y-30731413D01*
X8900639Y-30762500D01*
X8900640Y-30762500D01*
X9099360Y-30762500D01*
X9099361Y-30762500D01*
X9295636Y-30731413D01*
X9484632Y-30670005D01*
X9661694Y-30579787D01*
X9822464Y-30462981D01*
X9912319Y-30373126D01*
X9973642Y-30339641D01*
X10043334Y-30344625D01*
X10087681Y-30373126D01*
X10177536Y-30462981D01*
X10338306Y-30579787D01*
X10415146Y-30618939D01*
X10515367Y-30670005D01*
X10515370Y-30670006D01*
X10549835Y-30681204D01*
X10704364Y-30731413D01*
X10900639Y-30762500D01*
X10900640Y-30762500D01*
X11099360Y-30762500D01*
X11099361Y-30762500D01*
X11295636Y-30731413D01*
X11484632Y-30670005D01*
X11661694Y-30579787D01*
X11822464Y-30462981D01*
X11962981Y-30322464D01*
X12079787Y-30161694D01*
X12139796Y-30043919D01*
X12187769Y-29993124D01*
X12255590Y-29976329D01*
X12321725Y-29998866D01*
X12360765Y-30043920D01*
X12420641Y-30161432D01*
X12447730Y-30198715D01*
X12447731Y-30198716D01*
X13049697Y-29596749D01*
X13071349Y-29677553D01*
X13131909Y-29782446D01*
X13217554Y-29868091D01*
X13322447Y-29928651D01*
X13403250Y-29950302D01*
X12801283Y-30552268D01*
X12801283Y-30552269D01*
X12838567Y-30579358D01*
X13015562Y-30669542D01*
X13204477Y-30730924D01*
X13400679Y-30762000D01*
X13599321Y-30762000D01*
X13795520Y-30730924D01*
X13795523Y-30730924D01*
X13984437Y-30669542D01*
X14161425Y-30579362D01*
X14198716Y-30552268D01*
X13596750Y-29950302D01*
X13677553Y-29928651D01*
X13782446Y-29868091D01*
X13868091Y-29782446D01*
X13928651Y-29677553D01*
X13950302Y-29596749D01*
X14552268Y-30198715D01*
X14579362Y-30161425D01*
X14669542Y-29984437D01*
X14730924Y-29795523D01*
X14730924Y-29795520D01*
X14762000Y-29599321D01*
X14762000Y-29400678D01*
X14730924Y-29204479D01*
X14730924Y-29204476D01*
X14669542Y-29015562D01*
X14579358Y-28838567D01*
X14552268Y-28801283D01*
X13950302Y-29403249D01*
X13928651Y-29322447D01*
X13868091Y-29217554D01*
X13782446Y-29131909D01*
X13677553Y-29071349D01*
X13596749Y-29049697D01*
X14198716Y-28447731D01*
X14198715Y-28447730D01*
X14161432Y-28420641D01*
X13984437Y-28330457D01*
X13795522Y-28269075D01*
X13599321Y-28238000D01*
X13400679Y-28238000D01*
X13204479Y-28269075D01*
X13204476Y-28269075D01*
X13015562Y-28330457D01*
X12838564Y-28420643D01*
X12801283Y-28447729D01*
X12801282Y-28447730D01*
X13403250Y-29049697D01*
X13322447Y-29071349D01*
X13217554Y-29131909D01*
X13131909Y-29217554D01*
X13071349Y-29322447D01*
X13049697Y-29403250D01*
X12447730Y-28801282D01*
X12447729Y-28801283D01*
X12420641Y-28838566D01*
X12360764Y-28956080D01*
X12312790Y-29006875D01*
X12244968Y-29023670D01*
X12178834Y-29001132D01*
X12139796Y-28956080D01*
X12079787Y-28838306D01*
X11962981Y-28677536D01*
X11822464Y-28537019D01*
X11676423Y-28430914D01*
X11661693Y-28420212D01*
X11623194Y-28400595D01*
X11622334Y-28400153D01*
X10931542Y-28041339D01*
X10920905Y-28031134D01*
X10907497Y-28025011D01*
X10896200Y-28007432D01*
X10881123Y-27992968D01*
X10877032Y-27977606D01*
X10869723Y-27966233D01*
X10864700Y-27931298D01*
X10864700Y-27009533D01*
X10884385Y-26942494D01*
X10901019Y-26921852D01*
X11760338Y-26062533D01*
X24575000Y-26062533D01*
X24575000Y-26357466D01*
X24575001Y-26357483D01*
X24613496Y-26649884D01*
X24613499Y-26649897D01*
X24689835Y-26934790D01*
X24689838Y-26934800D01*
X24802704Y-27207281D01*
X24802709Y-27207292D01*
X24950174Y-27462707D01*
X24950180Y-27462715D01*
X25066777Y-27614667D01*
X25852912Y-26828531D01*
X25947829Y-26959175D01*
X26075825Y-27087171D01*
X26206466Y-27182086D01*
X25420331Y-27968221D01*
X25572284Y-28084819D01*
X25572292Y-28084825D01*
X25827707Y-28232290D01*
X25827718Y-28232295D01*
X26100199Y-28345161D01*
X26100209Y-28345164D01*
X26385102Y-28421500D01*
X26385115Y-28421503D01*
X26677516Y-28459998D01*
X26677534Y-28460000D01*
X26972466Y-28460000D01*
X26972483Y-28459998D01*
X27264884Y-28421503D01*
X27264897Y-28421500D01*
X27549790Y-28345164D01*
X27549800Y-28345161D01*
X27822281Y-28232295D01*
X27822292Y-28232290D01*
X28077707Y-28084825D01*
X28077725Y-28084813D01*
X28229667Y-27968222D01*
X28229667Y-27968220D01*
X27443533Y-27182086D01*
X27574175Y-27087171D01*
X27702171Y-26959175D01*
X27797086Y-26828533D01*
X28583220Y-27614667D01*
X28583222Y-27614667D01*
X28699813Y-27462725D01*
X28699825Y-27462707D01*
X28847290Y-27207292D01*
X28847295Y-27207281D01*
X28960161Y-26934800D01*
X28960164Y-26934790D01*
X29036500Y-26649897D01*
X29036503Y-26649884D01*
X29074998Y-26357483D01*
X29075000Y-26357466D01*
X29075000Y-26062533D01*
X37925000Y-26062533D01*
X37925000Y-26357466D01*
X37925001Y-26357483D01*
X37963496Y-26649884D01*
X37963499Y-26649897D01*
X38039835Y-26934790D01*
X38039838Y-26934800D01*
X38152704Y-27207281D01*
X38152709Y-27207292D01*
X38300174Y-27462707D01*
X38300180Y-27462715D01*
X38416777Y-27614667D01*
X39202912Y-26828531D01*
X39297829Y-26959175D01*
X39425825Y-27087171D01*
X39556466Y-27182086D01*
X38770331Y-27968221D01*
X38922284Y-28084819D01*
X38922292Y-28084825D01*
X39177707Y-28232290D01*
X39177718Y-28232295D01*
X39450199Y-28345161D01*
X39450209Y-28345164D01*
X39735102Y-28421500D01*
X39735115Y-28421503D01*
X40027516Y-28459998D01*
X40027534Y-28460000D01*
X40322466Y-28460000D01*
X40322483Y-28459998D01*
X40614884Y-28421503D01*
X40614897Y-28421500D01*
X40899790Y-28345164D01*
X40899800Y-28345161D01*
X41172281Y-28232295D01*
X41172292Y-28232290D01*
X41427707Y-28084825D01*
X41427725Y-28084813D01*
X41579667Y-27968222D01*
X41579667Y-27968220D01*
X40793533Y-27182086D01*
X40924175Y-27087171D01*
X41052171Y-26959175D01*
X41147086Y-26828533D01*
X41933220Y-27614667D01*
X41933222Y-27614667D01*
X42049813Y-27462725D01*
X42049825Y-27462707D01*
X42197290Y-27207292D01*
X42197295Y-27207281D01*
X42310161Y-26934800D01*
X42310164Y-26934790D01*
X42386500Y-26649897D01*
X42386503Y-26649884D01*
X42424998Y-26357483D01*
X42425000Y-26357466D01*
X42425000Y-26062533D01*
X42424998Y-26062516D01*
X42386503Y-25770115D01*
X42386500Y-25770102D01*
X42310164Y-25485209D01*
X42310161Y-25485199D01*
X42197295Y-25212718D01*
X42197290Y-25212707D01*
X42049825Y-24957292D01*
X42049819Y-24957284D01*
X41933221Y-24805331D01*
X41147086Y-25591466D01*
X41052171Y-25460825D01*
X40924175Y-25332829D01*
X40793532Y-25237912D01*
X41579667Y-24451777D01*
X41427715Y-24335180D01*
X41427707Y-24335174D01*
X41172292Y-24187709D01*
X41172281Y-24187704D01*
X40899800Y-24074838D01*
X40899790Y-24074835D01*
X40614897Y-23998499D01*
X40614884Y-23998496D01*
X40322483Y-23960001D01*
X40322466Y-23960000D01*
X40027534Y-23960000D01*
X40027516Y-23960001D01*
X39735115Y-23998496D01*
X39735102Y-23998499D01*
X39450209Y-24074835D01*
X39450199Y-24074838D01*
X39177718Y-24187704D01*
X39177707Y-24187709D01*
X38922292Y-24335174D01*
X38922276Y-24335185D01*
X38770331Y-24451775D01*
X38770331Y-24451777D01*
X39556466Y-25237912D01*
X39425825Y-25332829D01*
X39297829Y-25460825D01*
X39202912Y-25591466D01*
X38416777Y-24805331D01*
X38416775Y-24805331D01*
X38300185Y-24957276D01*
X38300174Y-24957292D01*
X38152709Y-25212707D01*
X38152704Y-25212718D01*
X38039838Y-25485199D01*
X38039835Y-25485209D01*
X37963499Y-25770102D01*
X37963496Y-25770115D01*
X37925001Y-26062516D01*
X37925000Y-26062533D01*
X29075000Y-26062533D01*
X29074998Y-26062516D01*
X29036503Y-25770115D01*
X29036500Y-25770102D01*
X28960164Y-25485209D01*
X28960161Y-25485199D01*
X28847295Y-25212718D01*
X28847290Y-25212707D01*
X28699825Y-24957292D01*
X28699819Y-24957284D01*
X28583221Y-24805331D01*
X27797086Y-25591466D01*
X27702171Y-25460825D01*
X27574175Y-25332829D01*
X27443532Y-25237912D01*
X28229667Y-24451777D01*
X28077715Y-24335180D01*
X28077707Y-24335174D01*
X27822292Y-24187709D01*
X27822281Y-24187704D01*
X27549800Y-24074838D01*
X27549790Y-24074835D01*
X27264897Y-23998499D01*
X27264884Y-23998496D01*
X26972483Y-23960001D01*
X26972466Y-23960000D01*
X26677534Y-23960000D01*
X26677516Y-23960001D01*
X26385115Y-23998496D01*
X26385102Y-23998499D01*
X26100209Y-24074835D01*
X26100199Y-24074838D01*
X25827718Y-24187704D01*
X25827707Y-24187709D01*
X25572292Y-24335174D01*
X25572276Y-24335185D01*
X25420331Y-24451775D01*
X25420331Y-24451777D01*
X26206466Y-25237912D01*
X26075825Y-25332829D01*
X25947829Y-25460825D01*
X25852912Y-25591466D01*
X25066777Y-24805331D01*
X25066775Y-24805331D01*
X24950185Y-24957276D01*
X24950174Y-24957292D01*
X24802709Y-25212707D01*
X24802704Y-25212718D01*
X24689838Y-25485199D01*
X24689835Y-25485209D01*
X24613499Y-25770102D01*
X24613496Y-25770115D01*
X24575001Y-26062516D01*
X24575000Y-26062533D01*
X11760338Y-26062533D01*
X22271194Y-15551677D01*
X24625000Y-15551677D01*
X24625000Y-15575000D01*
X25350000Y-15575000D01*
X25850000Y-15575000D01*
X26574999Y-15575000D01*
X26574999Y-15551692D01*
X26574998Y-15551677D01*
X26572271Y-15524986D01*
X28700001Y-15524986D01*
X28710494Y-15627697D01*
X28765641Y-15794119D01*
X28765643Y-15794124D01*
X28857684Y-15943345D01*
X28981654Y-16067315D01*
X29130875Y-16159356D01*
X29130880Y-16159358D01*
X29297302Y-16214505D01*
X29297309Y-16214506D01*
X29400019Y-16224999D01*
X29749999Y-16224999D01*
X30250000Y-16224999D01*
X30599972Y-16224999D01*
X30599986Y-16224998D01*
X30702697Y-16214505D01*
X30869119Y-16159358D01*
X30869124Y-16159356D01*
X31018345Y-16067315D01*
X31142315Y-15943345D01*
X31234356Y-15794124D01*
X31234358Y-15794119D01*
X31289505Y-15627697D01*
X31289506Y-15627690D01*
X31299999Y-15524986D01*
X31300000Y-15524973D01*
X31300000Y-14312500D01*
X30250000Y-14312500D01*
X30250000Y-16224999D01*
X29749999Y-16224999D01*
X29750000Y-16224998D01*
X29750000Y-14312500D01*
X28700001Y-14312500D01*
X28700001Y-15524986D01*
X26572271Y-15524986D01*
X26564855Y-15452392D01*
X26511547Y-15291518D01*
X26511542Y-15291507D01*
X26422575Y-15147271D01*
X26422572Y-15147267D01*
X26302732Y-15027427D01*
X26302728Y-15027424D01*
X26158492Y-14938457D01*
X26158481Y-14938452D01*
X25997606Y-14885144D01*
X25898322Y-14875000D01*
X25850000Y-14875000D01*
X25850000Y-15575000D01*
X25350000Y-15575000D01*
X25350000Y-14875000D01*
X25349999Y-14874999D01*
X25301693Y-14875000D01*
X25301675Y-14875001D01*
X25202392Y-14885144D01*
X25041518Y-14938452D01*
X25041507Y-14938457D01*
X24897271Y-15027424D01*
X24897267Y-15027427D01*
X24777427Y-15147267D01*
X24777424Y-15147271D01*
X24688457Y-15291507D01*
X24688452Y-15291518D01*
X24635144Y-15452393D01*
X24625000Y-15551677D01*
X22271194Y-15551677D01*
X25222858Y-12600013D01*
X28700000Y-12600013D01*
X28700000Y-13812500D01*
X29750000Y-13812500D01*
X30250000Y-13812500D01*
X31299999Y-13812500D01*
X31299999Y-12600028D01*
X31299998Y-12600013D01*
X31289505Y-12497302D01*
X31234358Y-12330880D01*
X31234356Y-12330875D01*
X31142315Y-12181654D01*
X31018345Y-12057684D01*
X30869124Y-11965643D01*
X30869119Y-11965641D01*
X30702697Y-11910494D01*
X30702690Y-11910493D01*
X30599986Y-11900000D01*
X30250000Y-11900000D01*
X30250000Y-13812500D01*
X29750000Y-13812500D01*
X29750000Y-11900000D01*
X29400028Y-11900000D01*
X29400012Y-11900001D01*
X29297302Y-11910494D01*
X29130880Y-11965641D01*
X29130875Y-11965643D01*
X28981654Y-12057684D01*
X28857684Y-12181654D01*
X28765643Y-12330875D01*
X28765641Y-12330880D01*
X28710494Y-12497302D01*
X28710493Y-12497309D01*
X28700000Y-12600013D01*
X25222858Y-12600013D01*
X26741852Y-11081019D01*
X26803175Y-11047534D01*
X26829533Y-11044700D01*
X39433067Y-11044700D01*
X39500106Y-11064385D01*
X39545861Y-11117189D01*
X39555805Y-11186347D01*
X39526780Y-11249903D01*
X39520748Y-11256381D01*
X32871257Y-17905872D01*
X32838677Y-17938452D01*
X32780600Y-17996528D01*
X32709377Y-18103120D01*
X32709370Y-18103133D01*
X32660313Y-18221569D01*
X32660310Y-18221579D01*
X32635300Y-18347314D01*
X32635300Y-21931299D01*
X32615615Y-21998338D01*
X32568458Y-22041340D01*
X31878670Y-22399631D01*
X31878606Y-22399665D01*
X31877304Y-22400342D01*
X31838306Y-22420213D01*
X31832581Y-22424372D01*
X31830981Y-22425260D01*
X31829895Y-22425902D01*
X31828737Y-22426718D01*
X31828730Y-22426723D01*
X31763278Y-22472922D01*
X31758098Y-22477524D01*
X31757711Y-22477088D01*
X31748044Y-22485791D01*
X31677536Y-22537018D01*
X31537021Y-22677533D01*
X31537014Y-22677542D01*
X31485904Y-22747888D01*
X31469596Y-22760463D01*
X31456743Y-22776554D01*
X31442488Y-22781366D01*
X31430574Y-22790554D01*
X31410054Y-22792316D01*
X31390544Y-22798903D01*
X31375950Y-22795244D01*
X31360961Y-22796532D01*
X31342747Y-22786921D01*
X31322771Y-22781914D01*
X31312472Y-22770947D01*
X31299166Y-22763926D01*
X31289038Y-22745992D01*
X31274942Y-22730981D01*
X31268754Y-22710073D01*
X31264809Y-22703087D01*
X31263653Y-22697542D01*
X31262499Y-22691299D01*
X31262499Y-22690128D01*
X31256091Y-22630517D01*
X31247023Y-22606207D01*
X31245827Y-22600476D01*
X31239281Y-22585091D01*
X31237235Y-22579964D01*
X31205796Y-22495669D01*
X31204211Y-22493551D01*
X31191748Y-22471904D01*
X31191521Y-22472021D01*
X31189507Y-22468095D01*
X31189501Y-22468079D01*
X30867509Y-21937000D01*
X30818467Y-21856112D01*
X30813911Y-21839811D01*
X30805523Y-21826759D01*
X30800500Y-21791824D01*
X30800500Y-21759584D01*
X30813768Y-21703777D01*
X30813769Y-21703776D01*
X31229691Y-20878512D01*
X31229698Y-20878497D01*
X31234772Y-20869421D01*
X31234810Y-20869341D01*
X31234810Y-20869339D01*
X31234814Y-20869334D01*
X31235258Y-20867992D01*
X31240101Y-20855634D01*
X31246339Y-20841929D01*
X31247041Y-20840208D01*
X31273877Y-20751578D01*
X31274835Y-20748554D01*
X31289999Y-20702797D01*
X31300500Y-20600009D01*
X31300499Y-17674992D01*
X31289999Y-17572203D01*
X31234814Y-17405666D01*
X31142712Y-17256344D01*
X31018656Y-17132288D01*
X30869334Y-17040186D01*
X30702797Y-16985001D01*
X30702795Y-16985000D01*
X30600010Y-16974500D01*
X29399998Y-16974500D01*
X29399981Y-16974501D01*
X29297203Y-16985000D01*
X29297200Y-16985001D01*
X29130668Y-17040185D01*
X29130663Y-17040187D01*
X28981342Y-17132289D01*
X28857287Y-17256344D01*
X28837044Y-17289164D01*
X28785096Y-17335888D01*
X28716133Y-17347109D01*
X28652051Y-17319265D01*
X28643825Y-17311747D01*
X28110289Y-16778211D01*
X28085289Y-16753211D01*
X28085288Y-16753210D01*
X28085287Y-16753209D01*
X27954185Y-16665609D01*
X27954172Y-16665602D01*
X27808501Y-16605264D01*
X27808489Y-16605261D01*
X27653845Y-16574500D01*
X27653842Y-16574500D01*
X26617297Y-16574500D01*
X26590003Y-16571459D01*
X26575241Y-16568128D01*
X26514179Y-16534170D01*
X26481169Y-16472590D01*
X26486692Y-16402939D01*
X26496998Y-16382069D01*
X26511545Y-16358485D01*
X26511547Y-16358481D01*
X26564855Y-16197606D01*
X26574999Y-16098322D01*
X26575000Y-16098309D01*
X26575000Y-16075000D01*
X24625001Y-16075000D01*
X24625001Y-16098322D01*
X24635144Y-16197607D01*
X24688452Y-16358481D01*
X24688457Y-16358492D01*
X24777424Y-16502728D01*
X24777427Y-16502732D01*
X24786660Y-16511965D01*
X24820145Y-16573288D01*
X24815161Y-16642980D01*
X24786663Y-16687324D01*
X24777033Y-16696953D01*
X24777029Y-16696959D01*
X24688001Y-16841294D01*
X24687996Y-16841305D01*
X24634651Y-17002290D01*
X24624500Y-17101647D01*
X24624500Y-17648337D01*
X24624501Y-17648355D01*
X24634650Y-17747707D01*
X24634651Y-17747710D01*
X24687996Y-17908694D01*
X24688001Y-17908705D01*
X24777029Y-18053040D01*
X24777032Y-18053044D01*
X24896955Y-18172967D01*
X24896959Y-18172970D01*
X25041294Y-18261998D01*
X25041297Y-18261999D01*
X25041303Y-18262003D01*
X25202292Y-18315349D01*
X25301655Y-18325500D01*
X25898344Y-18325499D01*
X25898352Y-18325498D01*
X25898355Y-18325498D01*
X25921434Y-18323140D01*
X25997708Y-18315349D01*
X26029068Y-18304956D01*
X26050315Y-18300666D01*
X26050216Y-18300008D01*
X26054594Y-18299342D01*
X26054606Y-18299342D01*
X26589998Y-18178540D01*
X26617290Y-18175500D01*
X27192060Y-18175500D01*
X27259099Y-18195185D01*
X27279741Y-18211819D01*
X28015820Y-18947898D01*
X28030487Y-18965573D01*
X28032851Y-18969029D01*
X28032853Y-18969032D01*
X28032854Y-18969033D01*
X28660645Y-19759356D01*
X28672595Y-19774399D01*
X28698879Y-19839136D01*
X28699500Y-19851526D01*
X28699500Y-20600001D01*
X28699501Y-20600019D01*
X28710000Y-20702796D01*
X28710001Y-20702799D01*
X28765185Y-20869334D01*
X28765224Y-20869416D01*
X28770297Y-20878489D01*
X28770306Y-20878508D01*
X28770308Y-20878512D01*
X29186232Y-21703777D01*
X29189267Y-21716542D01*
X29194477Y-21724649D01*
X29199500Y-21759584D01*
X29199500Y-21791823D01*
X29181533Y-21856111D01*
X28810497Y-22468080D01*
X28810487Y-22468099D01*
X28810291Y-22468552D01*
X28810292Y-22468553D01*
X28804505Y-22481907D01*
X28794204Y-22495669D01*
X28767384Y-22567575D01*
X28766100Y-22570539D01*
X28766098Y-22570540D01*
X28755941Y-22593985D01*
X28755938Y-22593991D01*
X28754244Y-22600048D01*
X28753892Y-22601433D01*
X28753859Y-22601424D01*
X28753857Y-22601434D01*
X28753786Y-22601414D01*
X28749754Y-22614843D01*
X28743909Y-22630514D01*
X28743908Y-22630520D01*
X28737501Y-22690116D01*
X28737500Y-22690135D01*
X28737500Y-24309870D01*
X28737501Y-24309876D01*
X28743908Y-24369483D01*
X28794202Y-24504328D01*
X28794206Y-24504335D01*
X28880452Y-24619544D01*
X28880455Y-24619547D01*
X28995664Y-24705793D01*
X28995671Y-24705797D01*
X29130517Y-24756091D01*
X29130516Y-24756091D01*
X29137444Y-24756835D01*
X29190127Y-24762500D01*
X30809872Y-24762499D01*
X30869483Y-24756091D01*
X31004331Y-24705796D01*
X31119546Y-24619546D01*
X31205796Y-24504331D01*
X31256091Y-24369483D01*
X31262299Y-24311739D01*
X31289034Y-24247193D01*
X31346426Y-24207344D01*
X31416251Y-24204849D01*
X31476341Y-24240501D01*
X31485904Y-24252112D01*
X31522730Y-24302797D01*
X31537019Y-24322464D01*
X31677536Y-24462981D01*
X31838306Y-24579787D01*
X31914590Y-24618656D01*
X32015367Y-24670005D01*
X32015370Y-24670006D01*
X32045560Y-24679815D01*
X32204364Y-24731413D01*
X32400639Y-24762500D01*
X32400640Y-24762500D01*
X32599360Y-24762500D01*
X32599361Y-24762500D01*
X32795636Y-24731413D01*
X32984632Y-24670005D01*
X33161694Y-24579787D01*
X33322464Y-24462981D01*
X33412319Y-24373126D01*
X33473642Y-24339641D01*
X33543334Y-24344625D01*
X33587681Y-24373126D01*
X33677536Y-24462981D01*
X33838306Y-24579787D01*
X33914590Y-24618656D01*
X34015367Y-24670005D01*
X34015370Y-24670006D01*
X34045560Y-24679815D01*
X34204364Y-24731413D01*
X34400639Y-24762500D01*
X34400640Y-24762500D01*
X34599360Y-24762500D01*
X34599361Y-24762500D01*
X34795636Y-24731413D01*
X34984632Y-24670005D01*
X35161694Y-24579787D01*
X35322464Y-24462981D01*
X35462981Y-24322464D01*
X35579787Y-24161694D01*
X35639796Y-24043919D01*
X35687769Y-23993124D01*
X35755590Y-23976329D01*
X35821725Y-23998866D01*
X35860765Y-24043920D01*
X35920641Y-24161432D01*
X35947730Y-24198715D01*
X35947731Y-24198716D01*
X36549697Y-23596749D01*
X36571349Y-23677553D01*
X36631909Y-23782446D01*
X36717554Y-23868091D01*
X36822447Y-23928651D01*
X36903250Y-23950302D01*
X36301283Y-24552268D01*
X36301283Y-24552269D01*
X36338567Y-24579358D01*
X36515562Y-24669542D01*
X36704477Y-24730924D01*
X36900679Y-24762000D01*
X37099321Y-24762000D01*
X37295520Y-24730924D01*
X37295523Y-24730924D01*
X37484437Y-24669542D01*
X37661425Y-24579362D01*
X37698716Y-24552268D01*
X37096750Y-23950302D01*
X37177553Y-23928651D01*
X37282446Y-23868091D01*
X37368091Y-23782446D01*
X37428651Y-23677553D01*
X37450302Y-23596749D01*
X38052268Y-24198715D01*
X38079362Y-24161425D01*
X38169542Y-23984437D01*
X38230924Y-23795523D01*
X38230924Y-23795520D01*
X38262000Y-23599321D01*
X38262000Y-23400678D01*
X38230924Y-23204479D01*
X38230924Y-23204476D01*
X38169542Y-23015562D01*
X38079358Y-22838567D01*
X38052268Y-22801283D01*
X37450302Y-23403249D01*
X37428651Y-23322447D01*
X37368091Y-23217554D01*
X37282446Y-23131909D01*
X37177553Y-23071349D01*
X37096749Y-23049697D01*
X37698716Y-22447731D01*
X37698715Y-22447730D01*
X37661432Y-22420641D01*
X37484437Y-22330457D01*
X37295522Y-22269075D01*
X37099321Y-22238000D01*
X36900679Y-22238000D01*
X36704479Y-22269075D01*
X36704476Y-22269075D01*
X36515562Y-22330457D01*
X36338564Y-22420643D01*
X36301283Y-22447729D01*
X36301282Y-22447730D01*
X36903250Y-23049697D01*
X36822447Y-23071349D01*
X36717554Y-23131909D01*
X36631909Y-23217554D01*
X36571349Y-23322447D01*
X36549697Y-23403250D01*
X35947730Y-22801282D01*
X35947729Y-22801283D01*
X35920641Y-22838566D01*
X35860764Y-22956080D01*
X35812790Y-23006875D01*
X35744968Y-23023670D01*
X35678834Y-23001132D01*
X35639796Y-22956080D01*
X35579787Y-22838306D01*
X35462981Y-22677536D01*
X35322464Y-22537019D01*
X35178028Y-22432080D01*
X35161693Y-22420212D01*
X35123194Y-22400595D01*
X35122334Y-22400153D01*
X34431542Y-22041339D01*
X34381123Y-21992968D01*
X34364700Y-21931298D01*
X34364700Y-18909533D01*
X34384385Y-18842494D01*
X34401019Y-18821852D01*
X41035702Y-12187169D01*
X41097025Y-12153684D01*
X41123383Y-12150850D01*
X42064105Y-12150850D01*
X42179571Y-12127882D01*
X42203763Y-12125499D01*
X42647871Y-12125499D01*
X42647872Y-12125499D01*
X42707483Y-12119091D01*
X42842331Y-12068796D01*
X42957546Y-11982546D01*
X43043796Y-11867331D01*
X43094091Y-11732483D01*
X43100500Y-11672873D01*
X43100499Y-11327128D01*
X43094091Y-11267517D01*
X43094090Y-11267515D01*
X43093147Y-11263523D01*
X43093146Y-11206482D01*
X43094089Y-11202488D01*
X43094088Y-11202488D01*
X43094091Y-11202483D01*
X43100500Y-11142873D01*
X43100499Y-10797128D01*
X43094091Y-10737517D01*
X43093262Y-10729803D01*
X43094330Y-10729688D01*
X43094330Y-10690311D01*
X43093261Y-10690197D01*
X43094089Y-10682485D01*
X43094091Y-10682483D01*
X43100500Y-10622873D01*
X43100499Y-10277128D01*
X43094091Y-10217517D01*
X43094090Y-10217515D01*
X43094090Y-10217512D01*
X43092308Y-10209969D01*
X43095260Y-10209271D01*
X43091269Y-10153674D01*
X43092334Y-10150044D01*
X43092306Y-10150038D01*
X43094089Y-10142488D01*
X43094088Y-10142488D01*
X43094091Y-10142483D01*
X43100500Y-10082873D01*
X43100499Y-9737128D01*
X43094091Y-9677517D01*
X43093262Y-9669803D01*
X43094330Y-9669688D01*
X43094330Y-9630311D01*
X43093261Y-9630197D01*
X43094089Y-9622485D01*
X43094091Y-9622483D01*
X43100500Y-9562873D01*
X43100499Y-9217128D01*
X43094091Y-9157517D01*
X43094090Y-9157515D01*
X43094090Y-9157512D01*
X43092308Y-9149969D01*
X43095260Y-9149271D01*
X43091269Y-9093674D01*
X43092334Y-9090044D01*
X43092306Y-9090038D01*
X43094089Y-9082488D01*
X43094088Y-9082488D01*
X43094091Y-9082483D01*
X43100500Y-9022873D01*
X43100499Y-8677128D01*
X43094091Y-8617517D01*
X43094090Y-8617515D01*
X43093147Y-8613523D01*
X43093146Y-8556482D01*
X43094089Y-8552488D01*
X43094088Y-8552488D01*
X43094091Y-8552483D01*
X43100500Y-8492873D01*
X43100499Y-8147128D01*
X43094091Y-8087517D01*
X43093262Y-8079803D01*
X43094330Y-8079688D01*
X43094330Y-8040311D01*
X43093261Y-8040197D01*
X43094089Y-8032485D01*
X43094091Y-8032483D01*
X43100500Y-7972873D01*
X43100499Y-7627128D01*
X43094091Y-7567517D01*
X43053390Y-7458393D01*
X43043797Y-7432671D01*
X43043793Y-7432664D01*
X42957547Y-7317455D01*
X42957544Y-7317452D01*
X42842335Y-7231206D01*
X42842328Y-7231202D01*
X42707482Y-7180908D01*
X42707483Y-7180908D01*
X42647883Y-7174501D01*
X42647881Y-7174500D01*
X42647873Y-7174500D01*
X42647865Y-7174500D01*
X42310452Y-7174500D01*
X42243413Y-7154815D01*
X42222771Y-7138181D01*
X41686819Y-6602229D01*
X41672115Y-6575301D01*
X41655523Y-6549483D01*
X41654631Y-6543282D01*
X41653334Y-6540906D01*
X41650500Y-6514548D01*
X41650500Y-6489187D01*
X41664611Y-6431738D01*
X41742350Y-6283038D01*
X41790853Y-6232749D01*
X41858846Y-6216665D01*
X41917335Y-6234951D01*
X42041507Y-6311542D01*
X42041518Y-6311547D01*
X42202393Y-6364855D01*
X42301683Y-6374999D01*
X42825000Y-6374999D01*
X42848308Y-6374999D01*
X42848322Y-6374998D01*
X42947607Y-6364855D01*
X43108481Y-6311547D01*
X43108492Y-6311542D01*
X43252728Y-6222575D01*
X43252732Y-6222572D01*
X43372572Y-6102732D01*
X43372575Y-6102728D01*
X43461542Y-5958492D01*
X43461547Y-5958481D01*
X43514855Y-5797606D01*
X43524999Y-5698322D01*
X44050001Y-5698322D01*
X44060144Y-5797607D01*
X44113452Y-5958481D01*
X44113457Y-5958492D01*
X44202424Y-6102728D01*
X44202427Y-6102732D01*
X44322267Y-6222572D01*
X44322271Y-6222575D01*
X44466507Y-6311542D01*
X44466518Y-6311547D01*
X44627393Y-6364855D01*
X44726683Y-6374999D01*
X44750000Y-6374998D01*
X44750000Y-5650000D01*
X44050001Y-5650000D01*
X44050001Y-5698322D01*
X43524999Y-5698322D01*
X43525000Y-5698309D01*
X43525000Y-5650000D01*
X42825000Y-5650000D01*
X42825000Y-6374999D01*
X42301683Y-6374999D01*
X42325000Y-6374998D01*
X42325000Y-5150000D01*
X42825000Y-5150000D01*
X43524999Y-5150000D01*
X43524999Y-5101693D01*
X43524998Y-5101677D01*
X44050000Y-5101677D01*
X44050000Y-5150000D01*
X44750000Y-5150000D01*
X44750000Y-4424999D01*
X44726693Y-4425000D01*
X44726674Y-4425001D01*
X44627392Y-4435144D01*
X44466518Y-4488452D01*
X44466507Y-4488457D01*
X44322271Y-4577424D01*
X44322267Y-4577427D01*
X44202427Y-4697267D01*
X44202424Y-4697271D01*
X44113457Y-4841507D01*
X44113452Y-4841518D01*
X44060144Y-5002393D01*
X44050000Y-5101677D01*
X43524998Y-5101677D01*
X43524998Y-5101676D01*
X43514855Y-5002392D01*
X43461547Y-4841518D01*
X43461542Y-4841507D01*
X43372575Y-4697271D01*
X43372572Y-4697267D01*
X43262986Y-4587681D01*
X43229501Y-4526358D01*
X43234485Y-4456666D01*
X43262986Y-4412319D01*
X43372572Y-4302732D01*
X43372575Y-4302728D01*
X43461542Y-4158492D01*
X43461547Y-4158481D01*
X43514855Y-3997606D01*
X43524999Y-3898322D01*
X43525000Y-3898309D01*
X43525000Y-3878711D01*
X94149500Y-3878711D01*
X94149500Y-4121288D01*
X94179830Y-4351677D01*
X94181162Y-4361789D01*
X94200818Y-4435144D01*
X94243947Y-4596104D01*
X94336773Y-4820205D01*
X94336776Y-4820212D01*
X94458064Y-5030289D01*
X94458066Y-5030292D01*
X94458067Y-5030293D01*
X94605733Y-5222736D01*
X94605739Y-5222743D01*
X94777256Y-5394260D01*
X94777263Y-5394266D01*
X94809049Y-5418656D01*
X94969711Y-5541936D01*
X95179788Y-5663224D01*
X95403900Y-5756054D01*
X95638211Y-5818838D01*
X95818586Y-5842584D01*
X95878711Y-5850500D01*
X95878712Y-5850500D01*
X96121289Y-5850500D01*
X96169388Y-5844167D01*
X96361789Y-5818838D01*
X96596100Y-5756054D01*
X96820212Y-5663224D01*
X97030289Y-5541936D01*
X97222738Y-5394265D01*
X97394265Y-5222738D01*
X97541936Y-5030289D01*
X97663224Y-4820212D01*
X97756054Y-4596100D01*
X97818838Y-4361789D01*
X97850500Y-4121288D01*
X97850500Y-3878712D01*
X97818838Y-3638211D01*
X97756054Y-3403900D01*
X97663224Y-3179788D01*
X97541936Y-2969711D01*
X97401479Y-2786663D01*
X97394266Y-2777263D01*
X97394260Y-2777256D01*
X97222743Y-2605739D01*
X97222736Y-2605733D01*
X97030293Y-2458067D01*
X97030292Y-2458066D01*
X97030289Y-2458064D01*
X96820212Y-2336776D01*
X96820205Y-2336773D01*
X96596104Y-2243947D01*
X96361785Y-2181161D01*
X96121289Y-2149500D01*
X96121288Y-2149500D01*
X95878712Y-2149500D01*
X95878711Y-2149500D01*
X95638214Y-2181161D01*
X95403895Y-2243947D01*
X95179794Y-2336773D01*
X95179785Y-2336777D01*
X94969706Y-2458067D01*
X94777263Y-2605733D01*
X94777256Y-2605739D01*
X94605739Y-2777256D01*
X94605733Y-2777263D01*
X94458067Y-2969706D01*
X94336777Y-3179785D01*
X94336773Y-3179794D01*
X94243947Y-3403895D01*
X94181161Y-3638214D01*
X94149500Y-3878711D01*
X43525000Y-3878711D01*
X43525000Y-3850000D01*
X42825000Y-3850000D01*
X42825000Y-5150000D01*
X42325000Y-5150000D01*
X42325000Y-3350000D01*
X42825000Y-3350000D01*
X43524999Y-3350000D01*
X43524999Y-3301692D01*
X43524998Y-3301677D01*
X43514855Y-3202392D01*
X43461547Y-3041518D01*
X43461542Y-3041507D01*
X43372575Y-2897271D01*
X43372572Y-2897267D01*
X43252732Y-2777427D01*
X43252728Y-2777424D01*
X43108492Y-2688457D01*
X43108481Y-2688452D01*
X42947606Y-2635144D01*
X42848322Y-2625000D01*
X42825000Y-2625000D01*
X42825000Y-3350000D01*
X42325000Y-3350000D01*
X42325000Y-2624999D01*
X42301693Y-2625000D01*
X42301674Y-2625001D01*
X42202392Y-2635144D01*
X42041518Y-2688452D01*
X42041507Y-2688457D01*
X41897271Y-2777424D01*
X41897265Y-2777428D01*
X41888031Y-2786663D01*
X41826707Y-2820146D01*
X41757015Y-2815159D01*
X41712672Y-2786660D01*
X41703044Y-2777032D01*
X41703040Y-2777029D01*
X41558705Y-2688001D01*
X41558699Y-2687998D01*
X41558697Y-2687997D01*
X41558694Y-2687996D01*
X41397709Y-2634651D01*
X41298346Y-2624500D01*
X40751662Y-2624500D01*
X40751644Y-2624501D01*
X40652292Y-2634650D01*
X40652289Y-2634651D01*
X40491305Y-2687996D01*
X40491294Y-2688001D01*
X40346959Y-2777029D01*
X40346955Y-2777032D01*
X40227032Y-2896955D01*
X40227029Y-2896959D01*
X40138001Y-3041294D01*
X40137996Y-3041305D01*
X40088265Y-3191385D01*
X40077307Y-3215475D01*
X39763525Y-3746362D01*
X39744458Y-3770949D01*
X39423902Y-4091507D01*
X39401269Y-4114140D01*
X39401267Y-4114142D01*
X39357703Y-4157705D01*
X39314140Y-4201268D01*
X39283982Y-4246405D01*
X39283980Y-4246408D01*
X39279981Y-4252393D01*
X39245687Y-4303715D01*
X39245685Y-4303718D01*
X39221633Y-4361787D01*
X39221633Y-4361789D01*
X39198537Y-4417548D01*
X39198536Y-4417552D01*
X39198536Y-4417553D01*
X39198535Y-4417556D01*
X39174500Y-4538389D01*
X39174500Y-4538394D01*
X39174500Y-7138393D01*
X39174500Y-7261607D01*
X39174500Y-7261609D01*
X39174499Y-7261609D01*
X39185710Y-7317968D01*
X39185714Y-7317983D01*
X39186445Y-7321658D01*
X39198537Y-7382452D01*
X39206570Y-7401845D01*
X39209794Y-7409630D01*
X39209796Y-7409635D01*
X39245685Y-7496281D01*
X39245687Y-7496284D01*
X39266120Y-7526863D01*
X39266121Y-7526865D01*
X39314141Y-7598732D01*
X39314144Y-7598736D01*
X39405586Y-7690178D01*
X39405608Y-7690198D01*
X39728229Y-8012819D01*
X39761714Y-8074142D01*
X39756730Y-8143834D01*
X39714858Y-8199767D01*
X39649394Y-8224184D01*
X39640548Y-8224500D01*
X38960453Y-8224500D01*
X38893414Y-8204815D01*
X38872772Y-8188181D01*
X35940216Y-5255626D01*
X35911264Y-5210048D01*
X35911247Y-5210001D01*
X35726045Y-4696955D01*
X35607866Y-4369578D01*
X35600499Y-4327475D01*
X35600499Y-4199998D01*
X35600498Y-4199981D01*
X35589999Y-4097203D01*
X35589998Y-4097200D01*
X35588112Y-4091507D01*
X35534814Y-3930666D01*
X35442712Y-3781344D01*
X35318656Y-3657288D01*
X35170075Y-3565643D01*
X35169336Y-3565187D01*
X35169335Y-3565186D01*
X35169334Y-3565186D01*
X35083850Y-3536859D01*
X35074696Y-3531457D01*
X35067723Y-3530223D01*
X35038664Y-3510191D01*
X34948667Y-3426961D01*
X34923651Y-3403825D01*
X34887799Y-3343858D01*
X34890059Y-3274025D01*
X34915349Y-3197708D01*
X34925500Y-3098345D01*
X34925499Y-2501656D01*
X34921046Y-2458067D01*
X34915349Y-2402292D01*
X34915348Y-2402289D01*
X34862003Y-2241303D01*
X34861999Y-2241297D01*
X34861998Y-2241294D01*
X34772970Y-2096959D01*
X34772967Y-2096955D01*
X34653044Y-1977032D01*
X34653040Y-1977029D01*
X34508705Y-1888001D01*
X34508699Y-1887998D01*
X34508697Y-1887997D01*
X34508694Y-1887996D01*
X34347709Y-1834651D01*
X34248346Y-1824500D01*
X33701662Y-1824500D01*
X33701644Y-1824501D01*
X33602292Y-1834650D01*
X33602289Y-1834651D01*
X33441305Y-1887996D01*
X33441294Y-1888001D01*
X33296959Y-1977029D01*
X33296953Y-1977033D01*
X33287324Y-1986663D01*
X33226000Y-2020146D01*
X33156308Y-2015159D01*
X33111965Y-1986660D01*
X33102732Y-1977427D01*
X33102728Y-1977424D01*
X32958492Y-1888457D01*
X32958481Y-1888452D01*
X32797606Y-1835144D01*
X32698322Y-1825000D01*
X32675000Y-1825000D01*
X32675000Y-3781000D01*
X32655315Y-3848039D01*
X32602511Y-3893794D01*
X32551000Y-3905000D01*
X32450000Y-3905000D01*
X32450000Y-4476000D01*
X32430315Y-4543039D01*
X32377511Y-4588794D01*
X32326000Y-4600000D01*
X32200000Y-4600000D01*
X32200000Y-4726000D01*
X32180315Y-4793039D01*
X32127511Y-4838794D01*
X32076000Y-4850000D01*
X31295590Y-4850000D01*
X31254996Y-4872166D01*
X31228638Y-4875000D01*
X29225001Y-4875000D01*
X29225001Y-4898322D01*
X29235144Y-4997607D01*
X29288452Y-5158481D01*
X29288457Y-5158492D01*
X29377424Y-5302728D01*
X29377427Y-5302732D01*
X29386660Y-5311965D01*
X29420145Y-5373288D01*
X29415161Y-5442980D01*
X29386663Y-5487324D01*
X29377033Y-5496953D01*
X29377029Y-5496959D01*
X29288001Y-5641294D01*
X29287996Y-5641305D01*
X29234651Y-5802290D01*
X29224500Y-5901647D01*
X29224500Y-6448337D01*
X29224501Y-6448355D01*
X29234650Y-6547707D01*
X29234651Y-6547710D01*
X29287996Y-6708694D01*
X29288001Y-6708705D01*
X29377029Y-6853040D01*
X29377032Y-6853044D01*
X29496955Y-6972967D01*
X29496959Y-6972970D01*
X29641294Y-7061998D01*
X29641297Y-7061999D01*
X29641303Y-7062003D01*
X29802292Y-7115349D01*
X29901655Y-7125500D01*
X30498344Y-7125499D01*
X30498352Y-7125498D01*
X30498355Y-7125498D01*
X30568378Y-7118345D01*
X30597708Y-7115349D01*
X30695116Y-7083071D01*
X30730142Y-7074731D01*
X30863461Y-7022010D01*
X30865157Y-7021398D01*
X30898276Y-7019365D01*
X30931295Y-7016353D01*
X30933367Y-7017211D01*
X30934895Y-7017118D01*
X30939911Y-7019923D01*
X30976407Y-7035046D01*
X31262084Y-7226753D01*
X31280669Y-7242037D01*
X31281344Y-7242712D01*
X31430666Y-7334814D01*
X31597203Y-7389999D01*
X31699991Y-7400500D01*
X31813614Y-7400499D01*
X31861291Y-7410031D01*
X32068376Y-7496281D01*
X32784964Y-7794737D01*
X32805469Y-7803277D01*
X32845474Y-7830064D01*
X34119029Y-9103619D01*
X34152514Y-9164942D01*
X34147530Y-9234634D01*
X34105658Y-9290567D01*
X34040194Y-9314984D01*
X34031348Y-9315300D01*
X26267315Y-9315300D01*
X26141579Y-9340310D01*
X26141569Y-9340313D01*
X26023133Y-9389370D01*
X26023120Y-9389377D01*
X25916527Y-9460601D01*
X25916523Y-9460604D01*
X13476448Y-21900681D01*
X9371257Y-26005872D01*
X9346840Y-26030289D01*
X9280600Y-26096528D01*
X9209377Y-26203120D01*
X9209370Y-26203133D01*
X9160313Y-26321569D01*
X9160310Y-26321579D01*
X9135300Y-26447314D01*
X9135300Y-27931299D01*
X9115615Y-27998338D01*
X9068458Y-28041340D01*
X8378670Y-28399631D01*
X8378606Y-28399665D01*
X8377304Y-28400342D01*
X8338306Y-28420213D01*
X8332581Y-28424372D01*
X8330981Y-28425260D01*
X8329895Y-28425902D01*
X8328737Y-28426718D01*
X8328730Y-28426723D01*
X8263278Y-28472922D01*
X8258098Y-28477524D01*
X8257711Y-28477088D01*
X8248044Y-28485791D01*
X8177536Y-28537018D01*
X8037021Y-28677533D01*
X8037014Y-28677542D01*
X7985904Y-28747888D01*
X7969596Y-28760463D01*
X7956743Y-28776554D01*
X7942488Y-28781366D01*
X7930574Y-28790554D01*
X7910054Y-28792316D01*
X7890544Y-28798903D01*
X7875950Y-28795244D01*
X7860961Y-28796532D01*
X7842747Y-28786921D01*
X7822771Y-28781914D01*
X7812472Y-28770947D01*
X7799166Y-28763926D01*
X7789038Y-28745992D01*
X7774942Y-28730981D01*
X7768754Y-28710073D01*
X7764809Y-28703087D01*
X7763653Y-28697542D01*
X7762499Y-28691299D01*
X7762499Y-28690128D01*
X7756091Y-28630517D01*
X7747023Y-28606207D01*
X7745827Y-28600476D01*
X7739281Y-28585091D01*
X7737235Y-28579964D01*
X7705796Y-28495669D01*
X7704211Y-28493551D01*
X7691748Y-28471904D01*
X7691521Y-28472021D01*
X7689507Y-28468095D01*
X7689501Y-28468079D01*
X7414069Y-28013794D01*
X7318467Y-27856112D01*
X7300500Y-27791824D01*
X7300500Y-27082939D01*
X7320185Y-27015900D01*
X7336814Y-26995263D01*
X9181839Y-25150237D01*
X9193864Y-25139675D01*
X9216965Y-25121890D01*
X9463412Y-24868678D01*
X9464443Y-24867633D01*
X9803978Y-24528100D01*
X9865301Y-24494615D01*
X9879054Y-24492423D01*
X9902797Y-24489999D01*
X10069334Y-24434814D01*
X10218656Y-24342712D01*
X10342712Y-24218656D01*
X10434814Y-24069334D01*
X10489999Y-23902797D01*
X10500500Y-23800009D01*
X10500499Y-20874992D01*
X10499929Y-20869416D01*
X10489999Y-20772203D01*
X10489998Y-20772200D01*
X10476772Y-20732288D01*
X10434814Y-20605666D01*
X10342712Y-20456344D01*
X10218656Y-20332288D01*
X10125888Y-20275069D01*
X10069336Y-20240187D01*
X10069331Y-20240185D01*
X10067862Y-20239698D01*
X9902797Y-20185001D01*
X9902795Y-20185000D01*
X9800010Y-20174500D01*
X8599998Y-20174500D01*
X8596959Y-20174810D01*
X8593588Y-20175154D01*
X8587107Y-20175815D01*
X8570097Y-20175759D01*
X8523055Y-20182358D01*
X8520752Y-20182594D01*
X8520731Y-20182597D01*
X8509229Y-20183772D01*
X8497203Y-20185001D01*
X8497201Y-20185001D01*
X8490590Y-20186417D01*
X8490507Y-20186032D01*
X8480931Y-20188269D01*
X8280730Y-20216358D01*
X8211606Y-20206179D01*
X8175820Y-20181242D01*
X7747792Y-19753213D01*
X7747788Y-19753210D01*
X7616685Y-19665609D01*
X7616672Y-19665602D01*
X7471001Y-19605264D01*
X7470989Y-19605261D01*
X7316345Y-19574500D01*
X7316342Y-19574500D01*
X5817297Y-19574500D01*
X5790003Y-19571459D01*
X5775241Y-19568128D01*
X5714179Y-19534170D01*
X5681169Y-19472590D01*
X5686692Y-19402939D01*
X5696998Y-19382069D01*
X5711545Y-19358485D01*
X5711547Y-19358481D01*
X5764855Y-19197606D01*
X5774999Y-19098322D01*
X5775000Y-19098309D01*
X5775000Y-19075000D01*
X3825001Y-19075000D01*
X3825001Y-19098322D01*
X3835144Y-19197607D01*
X3888452Y-19358481D01*
X3888457Y-19358492D01*
X3977424Y-19502728D01*
X3977427Y-19502732D01*
X3986660Y-19511965D01*
X4020145Y-19573288D01*
X4015161Y-19642980D01*
X3986663Y-19687324D01*
X3977033Y-19696953D01*
X3977029Y-19696959D01*
X3888001Y-19841294D01*
X3887996Y-19841305D01*
X3834651Y-20002290D01*
X3824500Y-20101647D01*
X500500Y-20101647D01*
X500500Y-18724986D01*
X7900001Y-18724986D01*
X7910494Y-18827697D01*
X7965641Y-18994119D01*
X7965643Y-18994124D01*
X8057684Y-19143345D01*
X8181654Y-19267315D01*
X8330875Y-19359356D01*
X8330880Y-19359358D01*
X8497302Y-19414505D01*
X8497309Y-19414506D01*
X8600019Y-19424999D01*
X8949999Y-19424999D01*
X9450000Y-19424999D01*
X9799972Y-19424999D01*
X9799986Y-19424998D01*
X9902697Y-19414505D01*
X10069119Y-19359358D01*
X10069124Y-19359356D01*
X10218345Y-19267315D01*
X10342315Y-19143345D01*
X10434356Y-18994124D01*
X10434358Y-18994119D01*
X10489505Y-18827697D01*
X10489506Y-18827690D01*
X10499999Y-18724986D01*
X10500000Y-18724973D01*
X10500000Y-17512500D01*
X9450000Y-17512500D01*
X9450000Y-19424999D01*
X8949999Y-19424999D01*
X8950000Y-19424998D01*
X8950000Y-17512500D01*
X7900001Y-17512500D01*
X7900001Y-18724986D01*
X500500Y-18724986D01*
X500500Y-18551677D01*
X3825000Y-18551677D01*
X3825000Y-18575000D01*
X4550000Y-18575000D01*
X5050000Y-18575000D01*
X5774999Y-18575000D01*
X5774999Y-18551692D01*
X5774998Y-18551677D01*
X5764855Y-18452392D01*
X5711547Y-18291518D01*
X5711542Y-18291507D01*
X5622575Y-18147271D01*
X5622572Y-18147267D01*
X5502732Y-18027427D01*
X5502728Y-18027424D01*
X5358492Y-17938457D01*
X5358481Y-17938452D01*
X5197606Y-17885144D01*
X5098322Y-17875000D01*
X5050000Y-17875000D01*
X5050000Y-18575000D01*
X4550000Y-18575000D01*
X4550000Y-17875000D01*
X4549999Y-17874999D01*
X4501693Y-17875000D01*
X4501675Y-17875001D01*
X4402392Y-17885144D01*
X4241518Y-17938452D01*
X4241507Y-17938457D01*
X4097271Y-18027424D01*
X4097267Y-18027427D01*
X3977427Y-18147267D01*
X3977424Y-18147271D01*
X3888457Y-18291507D01*
X3888452Y-18291518D01*
X3835144Y-18452393D01*
X3825000Y-18551677D01*
X500500Y-18551677D01*
X500500Y-15800013D01*
X7900000Y-15800013D01*
X7900000Y-17012500D01*
X8950000Y-17012500D01*
X9450000Y-17012500D01*
X10499999Y-17012500D01*
X10499999Y-15800028D01*
X10499998Y-15800013D01*
X10489505Y-15697302D01*
X10434358Y-15530880D01*
X10434356Y-15530875D01*
X10342315Y-15381654D01*
X10218345Y-15257684D01*
X10069124Y-15165643D01*
X10069119Y-15165641D01*
X9902697Y-15110494D01*
X9902690Y-15110493D01*
X9799986Y-15100000D01*
X9450000Y-15100000D01*
X9450000Y-17012500D01*
X8950000Y-17012500D01*
X8950000Y-15100000D01*
X8600028Y-15100000D01*
X8600012Y-15100001D01*
X8497302Y-15110494D01*
X8330880Y-15165641D01*
X8330875Y-15165643D01*
X8181654Y-15257684D01*
X8057684Y-15381654D01*
X7965643Y-15530875D01*
X7965641Y-15530880D01*
X7910494Y-15697302D01*
X7910493Y-15697309D01*
X7900000Y-15800013D01*
X500500Y-15800013D01*
X500500Y-6918592D01*
X6173500Y-6918592D01*
X6173500Y-7081407D01*
X6205259Y-7241073D01*
X6205262Y-7241082D01*
X6267562Y-7391490D01*
X6267563Y-7391492D01*
X6358015Y-7526862D01*
X6358017Y-7526865D01*
X6473133Y-7641981D01*
X6473137Y-7641984D01*
X6608505Y-7732435D01*
X6608506Y-7732435D01*
X6608507Y-7732436D01*
X6608509Y-7732437D01*
X6677021Y-7760815D01*
X6758919Y-7794738D01*
X6758921Y-7794738D01*
X6758926Y-7794740D01*
X6918592Y-7826499D01*
X6918595Y-7826500D01*
X6918597Y-7826500D01*
X7081405Y-7826500D01*
X7081406Y-7826499D01*
X7150720Y-7812712D01*
X7241073Y-7794740D01*
X7241076Y-7794738D01*
X7241081Y-7794738D01*
X7391495Y-7732435D01*
X7526863Y-7641984D01*
X7580700Y-7588147D01*
X7641983Y-7526865D01*
X7641984Y-7526863D01*
X7732435Y-7391495D01*
X7794738Y-7241081D01*
X7796249Y-7233488D01*
X7819748Y-7115348D01*
X7826500Y-7081403D01*
X7826500Y-6918597D01*
X7826500Y-6918594D01*
X7826499Y-6918592D01*
X7794740Y-6758926D01*
X7794737Y-6758917D01*
X7732437Y-6608509D01*
X7732436Y-6608507D01*
X7710248Y-6575301D01*
X7641984Y-6473137D01*
X7641981Y-6473133D01*
X7526866Y-6358018D01*
X7526862Y-6358015D01*
X7391492Y-6267563D01*
X7391490Y-6267562D01*
X7241082Y-6205262D01*
X7241073Y-6205259D01*
X7081406Y-6173500D01*
X7081403Y-6173500D01*
X6918597Y-6173500D01*
X6918594Y-6173500D01*
X6758926Y-6205259D01*
X6758917Y-6205262D01*
X6608509Y-6267562D01*
X6608507Y-6267563D01*
X6473137Y-6358015D01*
X6473133Y-6358018D01*
X6358018Y-6473133D01*
X6358015Y-6473137D01*
X6267563Y-6608507D01*
X6267562Y-6608509D01*
X6205262Y-6758917D01*
X6205259Y-6758926D01*
X6173500Y-6918592D01*
X500500Y-6918592D01*
X500500Y-3878711D01*
X2149500Y-3878711D01*
X2149500Y-4121288D01*
X2179830Y-4351677D01*
X2181162Y-4361789D01*
X2200818Y-4435144D01*
X2243947Y-4596104D01*
X2336773Y-4820205D01*
X2336776Y-4820212D01*
X2458064Y-5030289D01*
X2458066Y-5030292D01*
X2458067Y-5030293D01*
X2605733Y-5222736D01*
X2605739Y-5222743D01*
X2777256Y-5394260D01*
X2777263Y-5394266D01*
X2809049Y-5418656D01*
X2969711Y-5541936D01*
X3179788Y-5663224D01*
X3403900Y-5756054D01*
X3638211Y-5818838D01*
X3818586Y-5842584D01*
X3878711Y-5850500D01*
X3878712Y-5850500D01*
X4121289Y-5850500D01*
X4169388Y-5844167D01*
X4361789Y-5818838D01*
X4596100Y-5756054D01*
X4820212Y-5663224D01*
X5030289Y-5541936D01*
X5222738Y-5394265D01*
X5394265Y-5222738D01*
X5541936Y-5030289D01*
X5663224Y-4820212D01*
X5756054Y-4596100D01*
X5818838Y-4361789D01*
X5820169Y-4351677D01*
X29225000Y-4351677D01*
X29225000Y-4375000D01*
X29950000Y-4375000D01*
X29950000Y-3675000D01*
X30450000Y-3675000D01*
X30450000Y-4375000D01*
X30879410Y-4375000D01*
X30920004Y-4352834D01*
X30946362Y-4350000D01*
X31950000Y-4350000D01*
X31950000Y-3494000D01*
X31969685Y-3426961D01*
X32022489Y-3381206D01*
X32074000Y-3370000D01*
X32175000Y-3370000D01*
X32175000Y-3050000D01*
X31475001Y-3050000D01*
X31475001Y-3098322D01*
X31485144Y-3197607D01*
X31538452Y-3358481D01*
X31538456Y-3358490D01*
X31543960Y-3367412D01*
X31562402Y-3434804D01*
X31541481Y-3501468D01*
X31487840Y-3546239D01*
X31477428Y-3550217D01*
X31430878Y-3565642D01*
X31430875Y-3565643D01*
X31281654Y-3657684D01*
X31157682Y-3781656D01*
X31125286Y-3834179D01*
X31073338Y-3880903D01*
X31004375Y-3892124D01*
X30940293Y-3864281D01*
X30932067Y-3856762D01*
X30902732Y-3827427D01*
X30902728Y-3827424D01*
X30758492Y-3738457D01*
X30758481Y-3738452D01*
X30597606Y-3685144D01*
X30498322Y-3675000D01*
X30450000Y-3675000D01*
X29950000Y-3675000D01*
X29949999Y-3674999D01*
X29901693Y-3675000D01*
X29901675Y-3675001D01*
X29802392Y-3685144D01*
X29641518Y-3738452D01*
X29641507Y-3738457D01*
X29497271Y-3827424D01*
X29497267Y-3827427D01*
X29377427Y-3947267D01*
X29377424Y-3947271D01*
X29288457Y-4091507D01*
X29288452Y-4091518D01*
X29235144Y-4252393D01*
X29225000Y-4351677D01*
X5820169Y-4351677D01*
X5850500Y-4121288D01*
X5850500Y-3878712D01*
X5818838Y-3638211D01*
X5756054Y-3403900D01*
X5663224Y-3179788D01*
X5541936Y-2969711D01*
X5401479Y-2786663D01*
X5394266Y-2777263D01*
X5394260Y-2777256D01*
X5222743Y-2605739D01*
X5211229Y-2596904D01*
X5211227Y-2596902D01*
X5087127Y-2501677D01*
X31475000Y-2501677D01*
X31475000Y-2550000D01*
X32175000Y-2550000D01*
X32175000Y-1824999D01*
X32151693Y-1825000D01*
X32151674Y-1825001D01*
X32052392Y-1835144D01*
X31891518Y-1888452D01*
X31891507Y-1888457D01*
X31747271Y-1977424D01*
X31747267Y-1977427D01*
X31627427Y-2097267D01*
X31627424Y-2097271D01*
X31538457Y-2241507D01*
X31538452Y-2241518D01*
X31485144Y-2402393D01*
X31475000Y-2501677D01*
X5087127Y-2501677D01*
X5030293Y-2458067D01*
X5030292Y-2458066D01*
X5030289Y-2458064D01*
X4820212Y-2336776D01*
X4820205Y-2336773D01*
X4596104Y-2243947D01*
X4361785Y-2181161D01*
X4121289Y-2149500D01*
X4121288Y-2149500D01*
X3878712Y-2149500D01*
X3878711Y-2149500D01*
X3638214Y-2181161D01*
X3403895Y-2243947D01*
X3179794Y-2336773D01*
X3179785Y-2336777D01*
X2969706Y-2458067D01*
X2777263Y-2605733D01*
X2777256Y-2605739D01*
X2605739Y-2777256D01*
X2605733Y-2777263D01*
X2458067Y-2969706D01*
X2336777Y-3179785D01*
X2336773Y-3179794D01*
X2243947Y-3403895D01*
X2181161Y-3638214D01*
X2149500Y-3878711D01*
X500500Y-3878711D01*
X500500Y-624500D01*
X520185Y-557461D01*
X572989Y-511706D01*
X624500Y-500500D01*
X99375500Y-500500D01*
X99442539Y-520185D01*
G37*
%TD.AperFunction*%
%TA.AperFunction,Conductor*%
G36*
X71977506Y-10004385D02*
G01*
X71998148Y-10021019D01*
X89608981Y-27631852D01*
X89642466Y-27693175D01*
X89645300Y-27719533D01*
X89645300Y-30308599D01*
X89643312Y-30330712D01*
X89640943Y-30343780D01*
X89634162Y-30360153D01*
X89609150Y-30485896D01*
X89609150Y-30519204D01*
X89607162Y-30530174D01*
X89596294Y-30551842D01*
X89589465Y-30575100D01*
X89580912Y-30582510D01*
X89575838Y-30592629D01*
X89554977Y-30604983D01*
X89536661Y-30620855D01*
X89520894Y-30625169D01*
X89515721Y-30628233D01*
X89510406Y-30628038D01*
X89498240Y-30631368D01*
X89497590Y-30631437D01*
X89470983Y-30626599D01*
X89445898Y-30625684D01*
X89438801Y-30620748D01*
X89428847Y-30618939D01*
X89407366Y-30598886D01*
X89388537Y-30585791D01*
X89385520Y-30578492D01*
X89377773Y-30571260D01*
X89368451Y-30537190D01*
X89361850Y-30521218D01*
X89362112Y-30514024D01*
X89360500Y-30508130D01*
X89360500Y-30336079D01*
X89331659Y-30191092D01*
X89331658Y-30191091D01*
X89331658Y-30191087D01*
X89310693Y-30140472D01*
X89275087Y-30054511D01*
X89275080Y-30054498D01*
X89192952Y-29931585D01*
X89140831Y-29879464D01*
X89088416Y-29827049D01*
X89088027Y-29826660D01*
X89078418Y-29817050D01*
X89078415Y-29817048D01*
X88955501Y-29734919D01*
X88955488Y-29734912D01*
X88818917Y-29678343D01*
X88818907Y-29678340D01*
X88673920Y-29649500D01*
X88673918Y-29649500D01*
X88526082Y-29649500D01*
X88526080Y-29649500D01*
X88381092Y-29678340D01*
X88381082Y-29678343D01*
X88244511Y-29734912D01*
X88244498Y-29734919D01*
X88121584Y-29817048D01*
X88121580Y-29817051D01*
X88017051Y-29921580D01*
X88017048Y-29921584D01*
X87934919Y-30044498D01*
X87934912Y-30044511D01*
X87878343Y-30181082D01*
X87878340Y-30181092D01*
X87849500Y-30326079D01*
X87849500Y-30326082D01*
X87849500Y-30473918D01*
X87856305Y-30508130D01*
X87857117Y-30512209D01*
X87859500Y-30536402D01*
X87859500Y-32951079D01*
X87839815Y-33018118D01*
X87787011Y-33063873D01*
X87717853Y-33073817D01*
X87654297Y-33044792D01*
X87616523Y-32986014D01*
X87613883Y-32975270D01*
X87598493Y-32897902D01*
X87598491Y-32897894D01*
X87526880Y-32725008D01*
X87526875Y-32724999D01*
X87422913Y-32569410D01*
X87422910Y-32569406D01*
X87290593Y-32437089D01*
X87290589Y-32437086D01*
X87135000Y-32333124D01*
X87134991Y-32333119D01*
X86962103Y-32261507D01*
X86962100Y-32261506D01*
X86935000Y-32256115D01*
X86935000Y-33125272D01*
X86896940Y-33033386D01*
X86826614Y-32963060D01*
X86734728Y-32925000D01*
X86635272Y-32925000D01*
X86543386Y-32963060D01*
X86473060Y-33033386D01*
X86435000Y-33125272D01*
X86435000Y-32256116D01*
X86434999Y-32256115D01*
X86407899Y-32261506D01*
X86407896Y-32261507D01*
X86260000Y-32322768D01*
X86260000Y-33501000D01*
X86240315Y-33568039D01*
X86187511Y-33613794D01*
X86136000Y-33625000D01*
X85884000Y-33625000D01*
X85816961Y-33605315D01*
X85771206Y-33552511D01*
X85760000Y-33501000D01*
X85760000Y-32534748D01*
X85380378Y-32677106D01*
X85351853Y-32690800D01*
X85239986Y-32781113D01*
X85239983Y-32781117D01*
X85158091Y-32899285D01*
X85158087Y-32899292D01*
X85115955Y-33026255D01*
X85076157Y-33083683D01*
X85011630Y-33110478D01*
X84942859Y-33098133D01*
X84934121Y-33093319D01*
X84914606Y-33081522D01*
X84752196Y-33030914D01*
X84752194Y-33030913D01*
X84752192Y-33030913D01*
X84700928Y-33026255D01*
X84681616Y-33024500D01*
X84168384Y-33024500D01*
X84149145Y-33026248D01*
X84097807Y-33030913D01*
X83935393Y-33081522D01*
X83789811Y-33169530D01*
X83789810Y-33169531D01*
X83687327Y-33272015D01*
X83626004Y-33305500D01*
X83556312Y-33300516D01*
X83511965Y-33272015D01*
X83409877Y-33169927D01*
X83264395Y-33081980D01*
X83264396Y-33081980D01*
X83102105Y-33031409D01*
X83102106Y-33031409D01*
X83031572Y-33025000D01*
X83025000Y-33025000D01*
X83025000Y-36774999D01*
X83031581Y-36774999D01*
X83102102Y-36768591D01*
X83102107Y-36768590D01*
X83264396Y-36718018D01*
X83409877Y-36630072D01*
X83409878Y-36630071D01*
X83511963Y-36527985D01*
X83573286Y-36494499D01*
X83642977Y-36499483D01*
X83687326Y-36527984D01*
X83789811Y-36630469D01*
X83789813Y-36630470D01*
X83789815Y-36630472D01*
X83935394Y-36718478D01*
X84097804Y-36769086D01*
X84168384Y-36775500D01*
X84168387Y-36775500D01*
X84681613Y-36775500D01*
X84681616Y-36775500D01*
X84752196Y-36769086D01*
X84914606Y-36718478D01*
X85060185Y-36630472D01*
X85086396Y-36604259D01*
X85105040Y-36588936D01*
X85295586Y-36461227D01*
X85354868Y-36421495D01*
X85421515Y-36400523D01*
X85423904Y-36400500D01*
X86245640Y-36400500D01*
X86312679Y-36420185D01*
X86358434Y-36472989D01*
X86368378Y-36542147D01*
X86339353Y-36605703D01*
X86293093Y-36639061D01*
X86260000Y-36652768D01*
X86260000Y-37681000D01*
X86240315Y-37748039D01*
X86187511Y-37793794D01*
X86136000Y-37805000D01*
X86010000Y-37805000D01*
X86010000Y-37931000D01*
X85990315Y-37998039D01*
X85937511Y-38043794D01*
X85886000Y-38055000D01*
X85110000Y-38055000D01*
X85110000Y-38212751D01*
X85111753Y-38232447D01*
X85098089Y-38300967D01*
X85049549Y-38351224D01*
X84981545Y-38367259D01*
X84957849Y-38363658D01*
X84049557Y-38134031D01*
X84045016Y-38132790D01*
X83173568Y-37876770D01*
X83087540Y-37851496D01*
X83083032Y-37850077D01*
X82137010Y-37532508D01*
X82132558Y-37530919D01*
X82078541Y-37510464D01*
X81779557Y-37397245D01*
X85110000Y-37397245D01*
X85110000Y-37555000D01*
X85760000Y-37555000D01*
X85760000Y-36864748D01*
X85380378Y-37007106D01*
X85351853Y-37020800D01*
X85239986Y-37111113D01*
X85239983Y-37111117D01*
X85158091Y-37229285D01*
X85158088Y-37229292D01*
X85112804Y-37365752D01*
X85110000Y-37397245D01*
X81779557Y-37397245D01*
X81199294Y-37177512D01*
X81194906Y-37175754D01*
X80275803Y-36787039D01*
X80271485Y-36785115D01*
X79367862Y-36361651D01*
X79363621Y-36359564D01*
X78921789Y-36131582D01*
X81875001Y-36131582D01*
X81881408Y-36202102D01*
X81881409Y-36202107D01*
X81931981Y-36364396D01*
X82019927Y-36509877D01*
X82140122Y-36630072D01*
X82285604Y-36718019D01*
X82285603Y-36718019D01*
X82447894Y-36768590D01*
X82447893Y-36768590D01*
X82518408Y-36774998D01*
X82518426Y-36774999D01*
X82524999Y-36774998D01*
X82525000Y-36774998D01*
X82525000Y-36050000D01*
X81875001Y-36050000D01*
X81875001Y-36131582D01*
X78921789Y-36131582D01*
X78877701Y-36108833D01*
X78476805Y-35901974D01*
X78472647Y-35899727D01*
X77895630Y-35573563D01*
X77895629Y-35573563D01*
X77709633Y-35468427D01*
X81875000Y-35468427D01*
X81875000Y-35550000D01*
X82525000Y-35550000D01*
X82525000Y-34250000D01*
X81875001Y-34250000D01*
X81875001Y-34331582D01*
X81881408Y-34402102D01*
X81881409Y-34402107D01*
X81931981Y-34564396D01*
X82019927Y-34709877D01*
X82122369Y-34812319D01*
X82155854Y-34873642D01*
X82150870Y-34943334D01*
X82122369Y-34987681D01*
X82019928Y-35090121D01*
X82019927Y-35090122D01*
X81931980Y-35235604D01*
X81881409Y-35397893D01*
X81875000Y-35468427D01*
X77709633Y-35468427D01*
X77603887Y-35408653D01*
X77599818Y-35406249D01*
X76778911Y-34900000D01*
X76750429Y-34882435D01*
X76746456Y-34879879D01*
X75917649Y-34324073D01*
X75913774Y-34321366D01*
X75588567Y-34084825D01*
X75106761Y-33734381D01*
X75102992Y-33731529D01*
X75022846Y-33668427D01*
X81875000Y-33668427D01*
X81875000Y-33750000D01*
X82525000Y-33750000D01*
X82525000Y-33025000D01*
X82524999Y-33024999D01*
X82518436Y-33025000D01*
X82518417Y-33025001D01*
X82447897Y-33031408D01*
X82447892Y-33031409D01*
X82285603Y-33081981D01*
X82140122Y-33169927D01*
X82019927Y-33290122D01*
X81931980Y-33435604D01*
X81881409Y-33597893D01*
X81875000Y-33668427D01*
X75022846Y-33668427D01*
X74339234Y-33130193D01*
X74328261Y-33120447D01*
X74307316Y-33099502D01*
X74307314Y-33099500D01*
X74294267Y-33091967D01*
X74277726Y-33080533D01*
X74266069Y-33070990D01*
X74266065Y-33070988D01*
X74266060Y-33070985D01*
X74234317Y-33056648D01*
X74234316Y-33056648D01*
X74228692Y-33054108D01*
X74193186Y-33033608D01*
X74168894Y-33027098D01*
X74159703Y-33022947D01*
X74159697Y-33022945D01*
X74145968Y-33016744D01*
X74145963Y-33016743D01*
X74111581Y-33011107D01*
X74111581Y-33011108D01*
X74105494Y-33010110D01*
X74065892Y-32999500D01*
X74040742Y-32999500D01*
X74030783Y-32997868D01*
X74015914Y-32995431D01*
X73983822Y-32998631D01*
X73981248Y-32998888D01*
X73968948Y-32999500D01*
X70947087Y-32999500D01*
X70880048Y-32979815D01*
X70834293Y-32927011D01*
X70824349Y-32857853D01*
X70845168Y-32804871D01*
X70861908Y-32780713D01*
X70861911Y-32780707D01*
X70907195Y-32644247D01*
X70910000Y-32612754D01*
X70910000Y-32455000D01*
X70134000Y-32455000D01*
X70066961Y-32435315D01*
X70021206Y-32382511D01*
X70010000Y-32331000D01*
X70010000Y-32079000D01*
X70029685Y-32011961D01*
X70082489Y-31966206D01*
X70134000Y-31955000D01*
X70909999Y-31955000D01*
X70921342Y-31943657D01*
X70982665Y-31910171D01*
X71052356Y-31915155D01*
X71059928Y-31918267D01*
X71060382Y-31918471D01*
X71060394Y-31918478D01*
X71222804Y-31969086D01*
X71293384Y-31975500D01*
X71293387Y-31975500D01*
X71806613Y-31975500D01*
X71806616Y-31975500D01*
X71877196Y-31969086D01*
X72039606Y-31918478D01*
X72185185Y-31830472D01*
X72223318Y-31792339D01*
X72287319Y-31728339D01*
X72348642Y-31694854D01*
X72418334Y-31699838D01*
X72462681Y-31728339D01*
X72564811Y-31830469D01*
X72564813Y-31830470D01*
X72564815Y-31830472D01*
X72710394Y-31918478D01*
X72872804Y-31969086D01*
X72943384Y-31975500D01*
X72943387Y-31975500D01*
X73456613Y-31975500D01*
X73456616Y-31975500D01*
X73527196Y-31969086D01*
X73689606Y-31918478D01*
X73835185Y-31830472D01*
X73955472Y-31710185D01*
X74043478Y-31564606D01*
X74094086Y-31402196D01*
X74100500Y-31331616D01*
X74100500Y-30668384D01*
X74094086Y-30597804D01*
X74067381Y-30512107D01*
X74064157Y-30499442D01*
X74062686Y-30492052D01*
X74058875Y-30472908D01*
X73961225Y-30196272D01*
X73957473Y-30126505D01*
X73961222Y-30113734D01*
X74058875Y-29837091D01*
X74073477Y-29778333D01*
X74094086Y-29712196D01*
X74097433Y-29675350D01*
X74099387Y-29666978D01*
X74107854Y-29652008D01*
X74116717Y-29626748D01*
X74418035Y-29171150D01*
X74433771Y-29151884D01*
X75757892Y-27827763D01*
X75787376Y-27805951D01*
X76193777Y-27589998D01*
X76248828Y-27576280D01*
X76248799Y-27575628D01*
X76251609Y-27575500D01*
X76251616Y-27575500D01*
X76322196Y-27569086D01*
X76484606Y-27518478D01*
X76630185Y-27430472D01*
X76674644Y-27386013D01*
X76732319Y-27328339D01*
X76793642Y-27294854D01*
X76863334Y-27299838D01*
X76907681Y-27328339D01*
X77009811Y-27430469D01*
X77009813Y-27430470D01*
X77009815Y-27430472D01*
X77155394Y-27518478D01*
X77317804Y-27569086D01*
X77388384Y-27575500D01*
X77388387Y-27575500D01*
X77901613Y-27575500D01*
X77901616Y-27575500D01*
X77972196Y-27569086D01*
X78134606Y-27518478D01*
X78280185Y-27430472D01*
X78280185Y-27430471D01*
X78286606Y-27426590D01*
X78286819Y-27426942D01*
X78303482Y-27416898D01*
X78539846Y-27311286D01*
X78549844Y-27309154D01*
X78555496Y-27305523D01*
X78590431Y-27300500D01*
X78594088Y-27300500D01*
X78643907Y-27310948D01*
X79041099Y-27485208D01*
X79056375Y-27493220D01*
X79086970Y-27512091D01*
X79087713Y-27512549D01*
X79247315Y-27565436D01*
X79345826Y-27575500D01*
X79345831Y-27575500D01*
X79879169Y-27575500D01*
X79879174Y-27575500D01*
X79977685Y-27565436D01*
X80137287Y-27512549D01*
X80280391Y-27424281D01*
X80312672Y-27392000D01*
X80373995Y-27358515D01*
X80443687Y-27363499D01*
X80488034Y-27392000D01*
X80519919Y-27423885D01*
X80662922Y-27512091D01*
X80662927Y-27512093D01*
X80822416Y-27564942D01*
X80920856Y-27574999D01*
X81437500Y-27574999D01*
X81454136Y-27574999D01*
X81454152Y-27574998D01*
X81552583Y-27564943D01*
X81712072Y-27512093D01*
X81712077Y-27512091D01*
X81855080Y-27423885D01*
X81973885Y-27305080D01*
X82062091Y-27162077D01*
X82062093Y-27162072D01*
X82114942Y-27002583D01*
X82124999Y-26904150D01*
X82125000Y-26904137D01*
X82125000Y-26850000D01*
X81437500Y-26850000D01*
X81437500Y-27574999D01*
X80920856Y-27574999D01*
X80937500Y-27574998D01*
X80937500Y-26350000D01*
X81437500Y-26350000D01*
X82124999Y-26350000D01*
X82124999Y-26295864D01*
X82124998Y-26295847D01*
X82114943Y-26197416D01*
X82062093Y-26037927D01*
X82062091Y-26037922D01*
X81973885Y-25894919D01*
X81855080Y-25776114D01*
X81712077Y-25687908D01*
X81712072Y-25687906D01*
X81552583Y-25635057D01*
X81454150Y-25625000D01*
X81437500Y-25625000D01*
X81437500Y-26350000D01*
X80937500Y-26350000D01*
X80937500Y-25624999D01*
X80920856Y-25625000D01*
X80822415Y-25635057D01*
X80662927Y-25687906D01*
X80662922Y-25687908D01*
X80519919Y-25776114D01*
X80488033Y-25808000D01*
X80426709Y-25841485D01*
X80357018Y-25836499D01*
X80312673Y-25808000D01*
X80280392Y-25775719D01*
X80280387Y-25775716D01*
X80137295Y-25687455D01*
X80137289Y-25687452D01*
X80137287Y-25687451D01*
X79977685Y-25634564D01*
X79977683Y-25634563D01*
X79879181Y-25624500D01*
X79879174Y-25624500D01*
X79345826Y-25624500D01*
X79345818Y-25624500D01*
X79247316Y-25634563D01*
X79247312Y-25634564D01*
X79087719Y-25687447D01*
X79087711Y-25687451D01*
X79056389Y-25706770D01*
X79041115Y-25714781D01*
X78643903Y-25889052D01*
X78634339Y-25891057D01*
X78629019Y-25894477D01*
X78594084Y-25899500D01*
X78590432Y-25899500D01*
X78539846Y-25888712D01*
X78303478Y-25783097D01*
X78286817Y-25773056D01*
X78286604Y-25773409D01*
X78280186Y-25769529D01*
X78280185Y-25769528D01*
X78134606Y-25681522D01*
X77972196Y-25630914D01*
X77972194Y-25630913D01*
X77972192Y-25630913D01*
X77922778Y-25626423D01*
X77901616Y-25624500D01*
X77388384Y-25624500D01*
X77369145Y-25626248D01*
X77317807Y-25630913D01*
X77155393Y-25681522D01*
X77009811Y-25769530D01*
X77009810Y-25769531D01*
X76907681Y-25871661D01*
X76846358Y-25905146D01*
X76776666Y-25900162D01*
X76732319Y-25871661D01*
X76630188Y-25769530D01*
X76484606Y-25681522D01*
X76402050Y-25655797D01*
X76322196Y-25630914D01*
X76322194Y-25630913D01*
X76322192Y-25630913D01*
X76251609Y-25624499D01*
X76248799Y-25624372D01*
X76248828Y-25623719D01*
X76193774Y-25610000D01*
X75787383Y-25394050D01*
X75757889Y-25372231D01*
X75241545Y-24855887D01*
X75126807Y-24779222D01*
X74999332Y-24726421D01*
X74999322Y-24726418D01*
X74863996Y-24699500D01*
X74863994Y-24699500D01*
X74863993Y-24699500D01*
X69115021Y-24699500D01*
X69047982Y-24679815D01*
X69002227Y-24627011D01*
X68992283Y-24557853D01*
X69009481Y-24510405D01*
X69034814Y-24469334D01*
X69089999Y-24302797D01*
X69100500Y-24200009D01*
X69100499Y-23889522D01*
X69120183Y-23822484D01*
X69158779Y-23784371D01*
X69170154Y-23777262D01*
X69522817Y-23556847D01*
X69588537Y-23538000D01*
X70316344Y-23538000D01*
X70316345Y-23537999D01*
X70470997Y-23507237D01*
X70616679Y-23446894D01*
X70747789Y-23359289D01*
X71994057Y-22113019D01*
X72011231Y-22098698D01*
X72534279Y-21737258D01*
X72592172Y-21715914D01*
X72597708Y-21715349D01*
X72758697Y-21662003D01*
X72903044Y-21572968D01*
X73022968Y-21453044D01*
X73112003Y-21308697D01*
X73165349Y-21147708D01*
X73175500Y-21048345D01*
X73175499Y-20501656D01*
X73170870Y-20456344D01*
X73165349Y-20402292D01*
X73165348Y-20402289D01*
X73112003Y-20241303D01*
X73111999Y-20241297D01*
X73111998Y-20241294D01*
X73022970Y-20096959D01*
X73022967Y-20096955D01*
X73013339Y-20087327D01*
X72979854Y-20026004D01*
X72984838Y-19956312D01*
X73013345Y-19911959D01*
X73022573Y-19902731D01*
X73111542Y-19758492D01*
X73111547Y-19758481D01*
X73164855Y-19597606D01*
X73174999Y-19498322D01*
X73175000Y-19498309D01*
X73175000Y-19475000D01*
X71225001Y-19475000D01*
X71225001Y-19498322D01*
X71235144Y-19597607D01*
X71288452Y-19758481D01*
X71288457Y-19758492D01*
X71377424Y-19902728D01*
X71377427Y-19902732D01*
X71386660Y-19911965D01*
X71420145Y-19973288D01*
X71415161Y-20042980D01*
X71386663Y-20087324D01*
X71377033Y-20096953D01*
X71377029Y-20096959D01*
X71288001Y-20241294D01*
X71287996Y-20241305D01*
X71234650Y-20402294D01*
X71233801Y-20410609D01*
X71213013Y-20467685D01*
X70875906Y-20963903D01*
X70861017Y-20981903D01*
X69942241Y-21900681D01*
X69880918Y-21934166D01*
X69854560Y-21937000D01*
X69588538Y-21937000D01*
X69522818Y-21918152D01*
X69494864Y-21900681D01*
X69158779Y-21690627D01*
X69112363Y-21638403D01*
X69100499Y-21585475D01*
X69100499Y-21274998D01*
X69100498Y-21274981D01*
X69089999Y-21172203D01*
X69089998Y-21172200D01*
X69081882Y-21147708D01*
X69034814Y-21005666D01*
X68942712Y-20856344D01*
X68818656Y-20732288D01*
X68682578Y-20648355D01*
X68669336Y-20640187D01*
X68669331Y-20640185D01*
X68667862Y-20639698D01*
X68502797Y-20585001D01*
X68502795Y-20585000D01*
X68400010Y-20574500D01*
X67199998Y-20574500D01*
X67199981Y-20574501D01*
X67097203Y-20585000D01*
X67097200Y-20585001D01*
X66930668Y-20640185D01*
X66930663Y-20640187D01*
X66781342Y-20732289D01*
X66657289Y-20856342D01*
X66565187Y-21005663D01*
X66565185Y-21005668D01*
X66551041Y-21048352D01*
X66510001Y-21172203D01*
X66510001Y-21172204D01*
X66510000Y-21172204D01*
X66499500Y-21274983D01*
X66499500Y-24149031D01*
X66499358Y-24154960D01*
X66497125Y-24201590D01*
X66564565Y-24909706D01*
X66559291Y-24937029D01*
X66557306Y-24964796D01*
X66552761Y-24970866D01*
X66551325Y-24978309D01*
X66532115Y-24998445D01*
X66515434Y-25020729D01*
X66505883Y-25025944D01*
X66503097Y-25028865D01*
X66484458Y-25037644D01*
X66419460Y-25061887D01*
X66349768Y-25066871D01*
X66288445Y-25033386D01*
X66273022Y-25014593D01*
X66265548Y-25003407D01*
X66225614Y-24963473D01*
X66174893Y-24912752D01*
X65993065Y-24730924D01*
X65806595Y-24544453D01*
X65806591Y-24544450D01*
X65699998Y-24473226D01*
X65699985Y-24473219D01*
X65581549Y-24424162D01*
X65581539Y-24424159D01*
X65474508Y-24402869D01*
X65412597Y-24370484D01*
X65378023Y-24309768D01*
X65374700Y-24281252D01*
X65374700Y-22957314D01*
X65349689Y-22831579D01*
X65349688Y-22831578D01*
X65349688Y-22831574D01*
X65347586Y-22826499D01*
X65300629Y-22713133D01*
X65300622Y-22713120D01*
X65229399Y-22606528D01*
X65190446Y-22567575D01*
X65138743Y-22515872D01*
X61747857Y-19124986D01*
X66500001Y-19124986D01*
X66510494Y-19227697D01*
X66565641Y-19394119D01*
X66565643Y-19394124D01*
X66657684Y-19543345D01*
X66781654Y-19667315D01*
X66930875Y-19759356D01*
X66930880Y-19759358D01*
X67097302Y-19814505D01*
X67097309Y-19814506D01*
X67200019Y-19824999D01*
X67549999Y-19824999D01*
X68050000Y-19824999D01*
X68399972Y-19824999D01*
X68399986Y-19824998D01*
X68502697Y-19814505D01*
X68669119Y-19759358D01*
X68669124Y-19759356D01*
X68818345Y-19667315D01*
X68942315Y-19543345D01*
X69034356Y-19394124D01*
X69034358Y-19394119D01*
X69089505Y-19227697D01*
X69089506Y-19227690D01*
X69099999Y-19124986D01*
X69100000Y-19124973D01*
X69100000Y-18951677D01*
X71225000Y-18951677D01*
X71225000Y-18975000D01*
X71950000Y-18975000D01*
X72450000Y-18975000D01*
X73174999Y-18975000D01*
X73174999Y-18951692D01*
X73174998Y-18951677D01*
X73164855Y-18852392D01*
X73111547Y-18691518D01*
X73111542Y-18691507D01*
X73022575Y-18547271D01*
X73022572Y-18547267D01*
X72902732Y-18427427D01*
X72902728Y-18427424D01*
X72758492Y-18338457D01*
X72758481Y-18338452D01*
X72597606Y-18285144D01*
X72498322Y-18275000D01*
X72450000Y-18275000D01*
X72450000Y-18975000D01*
X71950000Y-18975000D01*
X71950000Y-18275000D01*
X71949999Y-18274999D01*
X71901693Y-18275000D01*
X71901675Y-18275001D01*
X71802392Y-18285144D01*
X71641518Y-18338452D01*
X71641507Y-18338457D01*
X71497271Y-18427424D01*
X71497267Y-18427427D01*
X71377427Y-18547267D01*
X71377424Y-18547271D01*
X71288457Y-18691507D01*
X71288452Y-18691518D01*
X71235144Y-18852393D01*
X71225000Y-18951677D01*
X69100000Y-18951677D01*
X69100000Y-17912500D01*
X68050000Y-17912500D01*
X68050000Y-19824999D01*
X67549999Y-19824999D01*
X67550000Y-19824998D01*
X67550000Y-17912500D01*
X66500001Y-17912500D01*
X66500001Y-19124986D01*
X61747857Y-19124986D01*
X58822884Y-16200013D01*
X66500000Y-16200013D01*
X66500000Y-17412500D01*
X67550000Y-17412500D01*
X68050000Y-17412500D01*
X69099999Y-17412500D01*
X69099999Y-16200028D01*
X69099998Y-16200013D01*
X69089505Y-16097302D01*
X69034358Y-15930880D01*
X69034356Y-15930875D01*
X68942315Y-15781654D01*
X68818345Y-15657684D01*
X68669124Y-15565643D01*
X68669119Y-15565641D01*
X68502697Y-15510494D01*
X68502690Y-15510493D01*
X68399986Y-15500000D01*
X68050000Y-15500000D01*
X68050000Y-17412500D01*
X67550000Y-17412500D01*
X67550000Y-15500000D01*
X67200028Y-15500000D01*
X67200012Y-15500001D01*
X67097302Y-15510494D01*
X66930880Y-15565641D01*
X66930875Y-15565643D01*
X66781654Y-15657684D01*
X66657684Y-15781654D01*
X66565643Y-15930875D01*
X66565641Y-15930880D01*
X66510494Y-16097302D01*
X66510493Y-16097309D01*
X66500000Y-16200013D01*
X58822884Y-16200013D01*
X52819252Y-10196381D01*
X52785767Y-10135058D01*
X52790751Y-10065366D01*
X52832623Y-10009433D01*
X52898087Y-9985016D01*
X52906933Y-9984700D01*
X71910467Y-9984700D01*
X71977506Y-10004385D01*
G37*
%TD.AperFunction*%
%TA.AperFunction,Conductor*%
G36*
X51237506Y-11064385D02*
G01*
X51258148Y-11081019D01*
X58413681Y-18236552D01*
X58447166Y-18297875D01*
X58450000Y-18324233D01*
X58450000Y-18975000D01*
X59100767Y-18975000D01*
X59167806Y-18994685D01*
X59188448Y-19011319D01*
X63608981Y-23431852D01*
X63642466Y-23493175D01*
X63645300Y-23519533D01*
X63645300Y-24808599D01*
X63642073Y-24836704D01*
X63639762Y-24846630D01*
X63634162Y-24860153D01*
X63619716Y-24932772D01*
X63619261Y-24934732D01*
X63603023Y-24963473D01*
X63587720Y-24992730D01*
X63585914Y-24993757D01*
X63584894Y-24995565D01*
X63555705Y-25010960D01*
X63527004Y-25027304D01*
X63523620Y-25027883D01*
X63523094Y-25028161D01*
X63522364Y-25028098D01*
X63511744Y-25029916D01*
X63502519Y-25030907D01*
X63502516Y-25030908D01*
X63426237Y-25059358D01*
X63356545Y-25064342D01*
X63295222Y-25030856D01*
X63279116Y-25009137D01*
X63278469Y-25009570D01*
X63192954Y-24881588D01*
X63192953Y-24881587D01*
X63192951Y-24881584D01*
X63088416Y-24777049D01*
X63028416Y-24717049D01*
X63028415Y-24717048D01*
X63028414Y-24717047D01*
X62905501Y-24634919D01*
X62905488Y-24634912D01*
X62768917Y-24578343D01*
X62768907Y-24578340D01*
X62623920Y-24549500D01*
X62623918Y-24549500D01*
X62476082Y-24549500D01*
X62476080Y-24549500D01*
X62331092Y-24578340D01*
X62331082Y-24578343D01*
X62194511Y-24634912D01*
X62194498Y-24634919D01*
X62071584Y-24717048D01*
X62071580Y-24717051D01*
X61967051Y-24821580D01*
X61967048Y-24821584D01*
X61884919Y-24944498D01*
X61884912Y-24944511D01*
X61828343Y-25081082D01*
X61828340Y-25081092D01*
X61799500Y-25226079D01*
X61799500Y-25226082D01*
X61799500Y-25373918D01*
X61799500Y-25373920D01*
X61799499Y-25373920D01*
X61828340Y-25518907D01*
X61828342Y-25518913D01*
X61850061Y-25571347D01*
X61859500Y-25618800D01*
X61859500Y-27351078D01*
X61839815Y-27418117D01*
X61787011Y-27463872D01*
X61717853Y-27473816D01*
X61654297Y-27444791D01*
X61616523Y-27386013D01*
X61613883Y-27375269D01*
X61598493Y-27297902D01*
X61598491Y-27297894D01*
X61526880Y-27125008D01*
X61526875Y-27124999D01*
X61422913Y-26969410D01*
X61422910Y-26969406D01*
X61290593Y-26837089D01*
X61290589Y-26837086D01*
X61135000Y-26733124D01*
X61134991Y-26733119D01*
X60962103Y-26661507D01*
X60962100Y-26661506D01*
X60935000Y-26656115D01*
X60935000Y-27525272D01*
X60896940Y-27433386D01*
X60826614Y-27363060D01*
X60734728Y-27325000D01*
X60635272Y-27325000D01*
X60543386Y-27363060D01*
X60473060Y-27433386D01*
X60435000Y-27525272D01*
X60435000Y-26656116D01*
X60434999Y-26656115D01*
X60407899Y-26661506D01*
X60407896Y-26661507D01*
X60260000Y-26722768D01*
X60260000Y-29327230D01*
X60407890Y-29388489D01*
X60407896Y-29388491D01*
X60435000Y-29393882D01*
X60435000Y-28524728D01*
X60473060Y-28616614D01*
X60543386Y-28686940D01*
X60635272Y-28725000D01*
X60734728Y-28725000D01*
X60826614Y-28686940D01*
X60896940Y-28616614D01*
X60935000Y-28524728D01*
X60935000Y-29393881D01*
X60962103Y-29388491D01*
X60962110Y-29388489D01*
X61134987Y-29316882D01*
X61135000Y-29316875D01*
X61290589Y-29212913D01*
X61290593Y-29212910D01*
X61422910Y-29080593D01*
X61422913Y-29080589D01*
X61530264Y-28919929D01*
X61532468Y-28921402D01*
X61573364Y-28879748D01*
X61641498Y-28864270D01*
X61707184Y-28888085D01*
X61721469Y-28900349D01*
X61766635Y-28945515D01*
X61897865Y-29021281D01*
X62044234Y-29060500D01*
X62044236Y-29060500D01*
X62195764Y-29060500D01*
X62195766Y-29060500D01*
X62342135Y-29021281D01*
X62473365Y-28945515D01*
X62580515Y-28838365D01*
X62656281Y-28707135D01*
X62695500Y-28560766D01*
X62695500Y-28449499D01*
X62696129Y-28447355D01*
X62695575Y-28445193D01*
X62705924Y-28413995D01*
X62715185Y-28382460D01*
X62716872Y-28380997D01*
X62717576Y-28378877D01*
X62743158Y-28358220D01*
X62767989Y-28336705D01*
X62770743Y-28335947D01*
X62771937Y-28334984D01*
X62780362Y-28333303D01*
X62806126Y-28326222D01*
X62812790Y-28325499D01*
X62907872Y-28325499D01*
X62967483Y-28319091D01*
X63006705Y-28304461D01*
X63022126Y-28302789D01*
X63041858Y-28306329D01*
X63061856Y-28304899D01*
X63075546Y-28312374D01*
X63090898Y-28315129D01*
X63105584Y-28328776D01*
X63123180Y-28338384D01*
X63130654Y-28352072D01*
X63142081Y-28362690D01*
X63147057Y-28382110D01*
X63156666Y-28399706D01*
X63159500Y-28426066D01*
X63159500Y-29423330D01*
X63159499Y-29423348D01*
X63159499Y-29589054D01*
X63159498Y-29589054D01*
X63200423Y-29741785D01*
X63217257Y-29770942D01*
X63217256Y-29770942D01*
X63217257Y-29770943D01*
X63279475Y-29878709D01*
X63279481Y-29878717D01*
X63398349Y-29997585D01*
X63398355Y-29997590D01*
X64515139Y-31114374D01*
X64515149Y-31114385D01*
X64519479Y-31118715D01*
X64519480Y-31118716D01*
X64631284Y-31230520D01*
X64716441Y-31279685D01*
X64716442Y-31279686D01*
X64768209Y-31309574D01*
X64768210Y-31309575D01*
X64768212Y-31309575D01*
X64768215Y-31309577D01*
X64920943Y-31350501D01*
X64920946Y-31350501D01*
X65086653Y-31350501D01*
X65086669Y-31350500D01*
X68350830Y-31350500D01*
X68417869Y-31370185D01*
X68463624Y-31422989D01*
X68473568Y-31492147D01*
X68465391Y-31521953D01*
X68421508Y-31627894D01*
X68421506Y-31627902D01*
X68385000Y-31811428D01*
X68385000Y-31955000D01*
X69085000Y-31955000D01*
X69085000Y-32455000D01*
X68385000Y-32455000D01*
X68385000Y-32598571D01*
X68421506Y-32782097D01*
X68421508Y-32782105D01*
X68440538Y-32828047D01*
X68448007Y-32897517D01*
X68416732Y-32959996D01*
X68356643Y-32995648D01*
X68325977Y-32999500D01*
X61694023Y-32999500D01*
X61626984Y-32979815D01*
X61581229Y-32927011D01*
X61571285Y-32857853D01*
X61579462Y-32828047D01*
X61598491Y-32782105D01*
X61598493Y-32782097D01*
X61634999Y-32598571D01*
X61635000Y-32598569D01*
X61635000Y-32455000D01*
X60935000Y-32455000D01*
X60935000Y-31955000D01*
X61635000Y-31955000D01*
X61635000Y-31811430D01*
X61634999Y-31811428D01*
X61598493Y-31627902D01*
X61598491Y-31627894D01*
X61526880Y-31455008D01*
X61526875Y-31454999D01*
X61422913Y-31299410D01*
X61422910Y-31299406D01*
X61290593Y-31167089D01*
X61290589Y-31167086D01*
X61135000Y-31063124D01*
X61134991Y-31063119D01*
X60962103Y-30991507D01*
X60962100Y-30991506D01*
X60935000Y-30986115D01*
X60935000Y-31855272D01*
X60896940Y-31763386D01*
X60826614Y-31693060D01*
X60734728Y-31655000D01*
X60635272Y-31655000D01*
X60543386Y-31693060D01*
X60473060Y-31763386D01*
X60435000Y-31855272D01*
X60435000Y-30986116D01*
X60434999Y-30986115D01*
X60407899Y-30991506D01*
X60407896Y-30991507D01*
X60260000Y-31052768D01*
X60260000Y-32081000D01*
X60240315Y-32148039D01*
X60187511Y-32193794D01*
X60136000Y-32205000D01*
X60010000Y-32205000D01*
X60010000Y-32331000D01*
X59990315Y-32398039D01*
X59937511Y-32443794D01*
X59886000Y-32455000D01*
X59110000Y-32455000D01*
X59110000Y-32612760D01*
X59112803Y-32644246D01*
X59112804Y-32644251D01*
X59158086Y-32780706D01*
X59158089Y-32780711D01*
X59174832Y-32804871D01*
X59196838Y-32871184D01*
X59179498Y-32938868D01*
X59128319Y-32986433D01*
X59072913Y-32999500D01*
X56947087Y-32999500D01*
X56880048Y-32979815D01*
X56834293Y-32927011D01*
X56824349Y-32857853D01*
X56845168Y-32804871D01*
X56861908Y-32780713D01*
X56861911Y-32780707D01*
X56907195Y-32644247D01*
X56910000Y-32612754D01*
X56910000Y-32455000D01*
X56134000Y-32455000D01*
X56066961Y-32435315D01*
X56021206Y-32382511D01*
X56010000Y-32331000D01*
X56010000Y-32205000D01*
X55884000Y-32205000D01*
X55816961Y-32185315D01*
X55771206Y-32132511D01*
X55760000Y-32081000D01*
X55760000Y-31955000D01*
X56260000Y-31955000D01*
X56910000Y-31955000D01*
X56910000Y-31797245D01*
X59110000Y-31797245D01*
X59110000Y-31955000D01*
X59760000Y-31955000D01*
X59760000Y-31264748D01*
X59380378Y-31407106D01*
X59351853Y-31420800D01*
X59239986Y-31511113D01*
X59239983Y-31511117D01*
X59158091Y-31629285D01*
X59158088Y-31629292D01*
X59112804Y-31765752D01*
X59110000Y-31797245D01*
X56910000Y-31797245D01*
X56910000Y-31797243D01*
X56909999Y-31797239D01*
X56907196Y-31765753D01*
X56907195Y-31765748D01*
X56861913Y-31629293D01*
X56861910Y-31629289D01*
X56780016Y-31511114D01*
X56780014Y-31511112D01*
X56668146Y-31420801D01*
X56668137Y-31420795D01*
X56639640Y-31407114D01*
X56260000Y-31264749D01*
X56260000Y-31955000D01*
X55760000Y-31955000D01*
X55760000Y-31052769D01*
X55759999Y-31052768D01*
X55612103Y-30991507D01*
X55612100Y-30991506D01*
X55585000Y-30986115D01*
X55585000Y-31855272D01*
X55546940Y-31763386D01*
X55476614Y-31693060D01*
X55384728Y-31655000D01*
X55285272Y-31655000D01*
X55193386Y-31693060D01*
X55123060Y-31763386D01*
X55085000Y-31855272D01*
X55085000Y-30986116D01*
X55084999Y-30986115D01*
X55057899Y-30991506D01*
X55057896Y-30991507D01*
X54885008Y-31063119D01*
X54884999Y-31063124D01*
X54729410Y-31167086D01*
X54729406Y-31167089D01*
X54597089Y-31299406D01*
X54597086Y-31299410D01*
X54493124Y-31454999D01*
X54493119Y-31455008D01*
X54421508Y-31627894D01*
X54421506Y-31627902D01*
X54385000Y-31811428D01*
X54385000Y-31955000D01*
X55085000Y-31955000D01*
X55085000Y-32455000D01*
X54385000Y-32455000D01*
X54385000Y-32598571D01*
X54421506Y-32782097D01*
X54421508Y-32782105D01*
X54440538Y-32828047D01*
X54448007Y-32897517D01*
X54416732Y-32959996D01*
X54356643Y-32995648D01*
X54325977Y-32999500D01*
X47694023Y-32999500D01*
X47626984Y-32979815D01*
X47581229Y-32927011D01*
X47571285Y-32857853D01*
X47579462Y-32828047D01*
X47598491Y-32782105D01*
X47598493Y-32782097D01*
X47634999Y-32598571D01*
X47635000Y-32598569D01*
X47635000Y-32455000D01*
X46935000Y-32455000D01*
X46935000Y-31955000D01*
X47635000Y-31955000D01*
X47635000Y-31811430D01*
X47634999Y-31811428D01*
X47598493Y-31627902D01*
X47598491Y-31627894D01*
X47526880Y-31455008D01*
X47526875Y-31454999D01*
X47419529Y-31294345D01*
X47421648Y-31292928D01*
X47398682Y-31238860D01*
X47410471Y-31169992D01*
X47457620Y-31118430D01*
X47521848Y-31100500D01*
X51463331Y-31100500D01*
X51463347Y-31100501D01*
X51470943Y-31100501D01*
X51629054Y-31100501D01*
X51629057Y-31100501D01*
X51781785Y-31059577D01*
X51851378Y-31019397D01*
X51918716Y-30980520D01*
X52030520Y-30868716D01*
X52030520Y-30868714D01*
X52040724Y-30858511D01*
X52040728Y-30858506D01*
X53118506Y-29780728D01*
X53118511Y-29780724D01*
X53128714Y-29770520D01*
X53128716Y-29770520D01*
X53240520Y-29658716D01*
X53319577Y-29521784D01*
X53353409Y-29395520D01*
X53360500Y-29369058D01*
X53360500Y-29210943D01*
X53360500Y-29052824D01*
X53380185Y-28985785D01*
X53432989Y-28940030D01*
X53502147Y-28930086D01*
X53546501Y-28945437D01*
X53546633Y-28945513D01*
X53546635Y-28945515D01*
X53677865Y-29021281D01*
X53824234Y-29060500D01*
X53824236Y-29060500D01*
X53975764Y-29060500D01*
X53975766Y-29060500D01*
X54122135Y-29021281D01*
X54253365Y-28945515D01*
X54298531Y-28900348D01*
X54359852Y-28866864D01*
X54429543Y-28871848D01*
X54485477Y-28913719D01*
X54489522Y-28920071D01*
X54489736Y-28919929D01*
X54597086Y-29080589D01*
X54597089Y-29080593D01*
X54729406Y-29212910D01*
X54729410Y-29212913D01*
X54884999Y-29316875D01*
X54885012Y-29316882D01*
X55057889Y-29388489D01*
X55057896Y-29388491D01*
X55085000Y-29393882D01*
X55085000Y-28524728D01*
X55123060Y-28616614D01*
X55193386Y-28686940D01*
X55285272Y-28725000D01*
X55384728Y-28725000D01*
X55476614Y-28686940D01*
X55546940Y-28616614D01*
X55585000Y-28524728D01*
X55585000Y-29393881D01*
X55612103Y-29388491D01*
X55612109Y-29388489D01*
X55760000Y-29327230D01*
X55760000Y-29115249D01*
X56260000Y-29115249D01*
X56639621Y-28972892D01*
X56639627Y-28972890D01*
X56668146Y-28959199D01*
X56780013Y-28868886D01*
X56780016Y-28868882D01*
X56861908Y-28750714D01*
X56861911Y-28750707D01*
X56907195Y-28614247D01*
X56909999Y-28582760D01*
X59110000Y-28582760D01*
X59112803Y-28614246D01*
X59112804Y-28614251D01*
X59158086Y-28750706D01*
X59158089Y-28750710D01*
X59239983Y-28868885D01*
X59239985Y-28868887D01*
X59351853Y-28959198D01*
X59351862Y-28959204D01*
X59380358Y-28972885D01*
X59759999Y-29115249D01*
X59760000Y-29115249D01*
X59760000Y-28275000D01*
X59110000Y-28275000D01*
X59110000Y-28582760D01*
X56909999Y-28582760D01*
X56910000Y-28582754D01*
X56910000Y-28275000D01*
X56260000Y-28275000D01*
X56260000Y-29115249D01*
X55760000Y-29115249D01*
X55760000Y-27775000D01*
X56260000Y-27775000D01*
X56910000Y-27775000D01*
X56910000Y-27467245D01*
X59110000Y-27467245D01*
X59110000Y-27775000D01*
X59760000Y-27775000D01*
X59760000Y-26934748D01*
X59380378Y-27077106D01*
X59351853Y-27090800D01*
X59239986Y-27181113D01*
X59239983Y-27181117D01*
X59158091Y-27299285D01*
X59158088Y-27299292D01*
X59112804Y-27435752D01*
X59110000Y-27467245D01*
X56910000Y-27467245D01*
X56910000Y-27467243D01*
X56909999Y-27467239D01*
X56907196Y-27435753D01*
X56907195Y-27435748D01*
X56861913Y-27299293D01*
X56861910Y-27299289D01*
X56780016Y-27181114D01*
X56780014Y-27181112D01*
X56668146Y-27090801D01*
X56668137Y-27090795D01*
X56639640Y-27077114D01*
X56260000Y-26934749D01*
X56260000Y-27775000D01*
X55760000Y-27775000D01*
X55760000Y-26722769D01*
X55759999Y-26722768D01*
X55612103Y-26661507D01*
X55612100Y-26661506D01*
X55585000Y-26656115D01*
X55585000Y-27525272D01*
X55546940Y-27433386D01*
X55476614Y-27363060D01*
X55384728Y-27325000D01*
X55285272Y-27325000D01*
X55193386Y-27363060D01*
X55123060Y-27433386D01*
X55085000Y-27525272D01*
X55085000Y-26656116D01*
X55084999Y-26656115D01*
X55057899Y-26661506D01*
X55057896Y-26661507D01*
X54885008Y-26733119D01*
X54884999Y-26733124D01*
X54729410Y-26837086D01*
X54729406Y-26837089D01*
X54597089Y-26969406D01*
X54597086Y-26969410D01*
X54493124Y-27124999D01*
X54493119Y-27125008D01*
X54421508Y-27297894D01*
X54421506Y-27297900D01*
X54406117Y-27375268D01*
X54373732Y-27437179D01*
X54313016Y-27471753D01*
X54243247Y-27468013D01*
X54186575Y-27427146D01*
X54160994Y-27362128D01*
X54160500Y-27351076D01*
X54160500Y-25680461D01*
X54168643Y-25639528D01*
X54167969Y-25639324D01*
X54169731Y-25633509D01*
X54169737Y-25633497D01*
X54200500Y-25478842D01*
X54200500Y-25427163D01*
X54220185Y-25360124D01*
X54227694Y-25349674D01*
X54606220Y-24876790D01*
X54663482Y-24836753D01*
X54669334Y-24834814D01*
X54818656Y-24742712D01*
X54942712Y-24618656D01*
X55034814Y-24469334D01*
X55089999Y-24302797D01*
X55100500Y-24200009D01*
X55100499Y-23889522D01*
X55120183Y-23822484D01*
X55158779Y-23784371D01*
X55170154Y-23777262D01*
X55522817Y-23556847D01*
X55588537Y-23538000D01*
X56341344Y-23538000D01*
X56341345Y-23537999D01*
X56495997Y-23507237D01*
X56641679Y-23446894D01*
X56772789Y-23359289D01*
X58010796Y-22121280D01*
X58026252Y-22108168D01*
X58543952Y-21737303D01*
X58591624Y-21719291D01*
X58591084Y-21716767D01*
X58597699Y-21715349D01*
X58597708Y-21715349D01*
X58758697Y-21662003D01*
X58903044Y-21572968D01*
X59022968Y-21453044D01*
X59112003Y-21308697D01*
X59165349Y-21147708D01*
X59175500Y-21048345D01*
X59175499Y-20501656D01*
X59170870Y-20456344D01*
X59165349Y-20402292D01*
X59165348Y-20402289D01*
X59112003Y-20241303D01*
X59111999Y-20241297D01*
X59111998Y-20241294D01*
X59022970Y-20096959D01*
X59022967Y-20096955D01*
X59013339Y-20087327D01*
X58979854Y-20026004D01*
X58984838Y-19956312D01*
X59013345Y-19911959D01*
X59022573Y-19902731D01*
X59111542Y-19758492D01*
X59111547Y-19758481D01*
X59164855Y-19597606D01*
X59174999Y-19498322D01*
X59175000Y-19498309D01*
X59175000Y-19475000D01*
X57225001Y-19475000D01*
X57225001Y-19498322D01*
X57235144Y-19597607D01*
X57288452Y-19758481D01*
X57288457Y-19758492D01*
X57377424Y-19902728D01*
X57377427Y-19902732D01*
X57386660Y-19911965D01*
X57420145Y-19973288D01*
X57415161Y-20042980D01*
X57386663Y-20087324D01*
X57377033Y-20096953D01*
X57377029Y-20096959D01*
X57288001Y-20241294D01*
X57287995Y-20241307D01*
X57234650Y-20402293D01*
X57232460Y-20423733D01*
X57212960Y-20478874D01*
X56889681Y-20974481D01*
X56873504Y-20994416D01*
X55967241Y-21900681D01*
X55905918Y-21934166D01*
X55879560Y-21937000D01*
X55588538Y-21937000D01*
X55522818Y-21918152D01*
X55494864Y-21900681D01*
X55158779Y-21690627D01*
X55112363Y-21638403D01*
X55100499Y-21585475D01*
X55100499Y-21274998D01*
X55100498Y-21274981D01*
X55089999Y-21172203D01*
X55089998Y-21172200D01*
X55081882Y-21147708D01*
X55034814Y-21005666D01*
X54942712Y-20856344D01*
X54818656Y-20732288D01*
X54682578Y-20648355D01*
X54669336Y-20640187D01*
X54669331Y-20640185D01*
X54667862Y-20639698D01*
X54502797Y-20585001D01*
X54502795Y-20585000D01*
X54400010Y-20574500D01*
X53199998Y-20574500D01*
X53199981Y-20574501D01*
X53097203Y-20585000D01*
X53097200Y-20585001D01*
X52930668Y-20640185D01*
X52930663Y-20640187D01*
X52781342Y-20732289D01*
X52657289Y-20856342D01*
X52565187Y-21005663D01*
X52565185Y-21005668D01*
X52551041Y-21048352D01*
X52510001Y-21172203D01*
X52510001Y-21172204D01*
X52510000Y-21172204D01*
X52499500Y-21274983D01*
X52499500Y-24149031D01*
X52499358Y-24154960D01*
X52497125Y-24201590D01*
X52564565Y-24909706D01*
X52559291Y-24937029D01*
X52557306Y-24964796D01*
X52552761Y-24970866D01*
X52551325Y-24978309D01*
X52532115Y-24998445D01*
X52515434Y-25020729D01*
X52505883Y-25025944D01*
X52503097Y-25028865D01*
X52484458Y-25037644D01*
X52419460Y-25061887D01*
X52349768Y-25066871D01*
X52288445Y-25033386D01*
X52273022Y-25014593D01*
X52265548Y-25003407D01*
X52225614Y-24963473D01*
X52174893Y-24912752D01*
X51993065Y-24730924D01*
X51806595Y-24544453D01*
X51806591Y-24544450D01*
X51699998Y-24473226D01*
X51699985Y-24473219D01*
X51581549Y-24424162D01*
X51581539Y-24424159D01*
X51474508Y-24402869D01*
X51412597Y-24370484D01*
X51378023Y-24309768D01*
X51374700Y-24281252D01*
X51374700Y-19124986D01*
X52500001Y-19124986D01*
X52510494Y-19227697D01*
X52565641Y-19394119D01*
X52565643Y-19394124D01*
X52657684Y-19543345D01*
X52781654Y-19667315D01*
X52930875Y-19759356D01*
X52930880Y-19759358D01*
X53097302Y-19814505D01*
X53097309Y-19814506D01*
X53200019Y-19824999D01*
X53549999Y-19824999D01*
X54050000Y-19824999D01*
X54399972Y-19824999D01*
X54399986Y-19824998D01*
X54502697Y-19814505D01*
X54669119Y-19759358D01*
X54669124Y-19759356D01*
X54818345Y-19667315D01*
X54942315Y-19543345D01*
X55034356Y-19394124D01*
X55034358Y-19394119D01*
X55089505Y-19227697D01*
X55089506Y-19227690D01*
X55099999Y-19124986D01*
X55100000Y-19124973D01*
X55100000Y-18951677D01*
X57225000Y-18951677D01*
X57225000Y-18975000D01*
X57950000Y-18975000D01*
X57950000Y-18275000D01*
X57949999Y-18274999D01*
X57901693Y-18275000D01*
X57901675Y-18275001D01*
X57802392Y-18285144D01*
X57641518Y-18338452D01*
X57641507Y-18338457D01*
X57497271Y-18427424D01*
X57497267Y-18427427D01*
X57377427Y-18547267D01*
X57377424Y-18547271D01*
X57288457Y-18691507D01*
X57288452Y-18691518D01*
X57235144Y-18852393D01*
X57225000Y-18951677D01*
X55100000Y-18951677D01*
X55100000Y-17912500D01*
X54050000Y-17912500D01*
X54050000Y-19824999D01*
X53549999Y-19824999D01*
X53550000Y-19824998D01*
X53550000Y-17912500D01*
X52500001Y-17912500D01*
X52500001Y-19124986D01*
X51374700Y-19124986D01*
X51374700Y-16200013D01*
X52500000Y-16200013D01*
X52500000Y-17412500D01*
X53550000Y-17412500D01*
X54050000Y-17412500D01*
X55099999Y-17412500D01*
X55099999Y-16200028D01*
X55099998Y-16200013D01*
X55089505Y-16097302D01*
X55034358Y-15930880D01*
X55034356Y-15930875D01*
X54942315Y-15781654D01*
X54818345Y-15657684D01*
X54669124Y-15565643D01*
X54669119Y-15565641D01*
X54502697Y-15510494D01*
X54502690Y-15510493D01*
X54399986Y-15500000D01*
X54050000Y-15500000D01*
X54050000Y-17412500D01*
X53550000Y-17412500D01*
X53550000Y-15500000D01*
X53200028Y-15500000D01*
X53200012Y-15500001D01*
X53097302Y-15510494D01*
X52930880Y-15565641D01*
X52930875Y-15565643D01*
X52781654Y-15657684D01*
X52657684Y-15781654D01*
X52565643Y-15930875D01*
X52565641Y-15930880D01*
X52510494Y-16097302D01*
X52510493Y-16097309D01*
X52500000Y-16200013D01*
X51374700Y-16200013D01*
X51374700Y-15157314D01*
X51349689Y-15031579D01*
X51349688Y-15031578D01*
X51349688Y-15031574D01*
X51311116Y-14938452D01*
X51300629Y-14913133D01*
X51300622Y-14913120D01*
X51229399Y-14806528D01*
X51229398Y-14806527D01*
X51138743Y-14715872D01*
X47679252Y-11256381D01*
X47645767Y-11195058D01*
X47650751Y-11125366D01*
X47692623Y-11069433D01*
X47758087Y-11045016D01*
X47766933Y-11044700D01*
X51170467Y-11044700D01*
X51237506Y-11064385D01*
G37*
%TD.AperFunction*%
%TA.AperFunction,Conductor*%
G36*
X74520520Y-26120185D02*
G01*
X74541162Y-26136819D01*
X74774320Y-26369977D01*
X74793753Y-26395187D01*
X74824152Y-26447314D01*
X74876765Y-26537531D01*
X74893533Y-26605359D01*
X74876765Y-26662467D01*
X74793754Y-26804809D01*
X74774319Y-26830022D01*
X73475193Y-28129148D01*
X73436496Y-28155382D01*
X73043400Y-28324415D01*
X72994416Y-28334500D01*
X72943384Y-28334500D01*
X72924145Y-28336248D01*
X72872807Y-28340913D01*
X72710393Y-28391522D01*
X72564811Y-28479530D01*
X72564810Y-28479531D01*
X72462681Y-28581661D01*
X72401358Y-28615146D01*
X72331666Y-28610162D01*
X72287319Y-28581661D01*
X72185188Y-28479530D01*
X72181148Y-28477088D01*
X72039606Y-28391522D01*
X71877196Y-28340914D01*
X71877194Y-28340913D01*
X71877192Y-28340913D01*
X71827778Y-28336423D01*
X71806616Y-28334500D01*
X71293384Y-28334500D01*
X71222804Y-28340914D01*
X71188235Y-28351686D01*
X71070889Y-28388251D01*
X71001029Y-28389401D01*
X70941637Y-28352600D01*
X70911569Y-28289530D01*
X70910445Y-28275445D01*
X70910000Y-28275000D01*
X70134000Y-28275000D01*
X70066961Y-28255315D01*
X70021206Y-28202511D01*
X70010000Y-28151000D01*
X70010000Y-28025000D01*
X69884000Y-28025000D01*
X69816961Y-28005315D01*
X69771206Y-27952511D01*
X69760000Y-27901000D01*
X69760000Y-27775000D01*
X70260000Y-27775000D01*
X70910000Y-27775000D01*
X70910000Y-27467243D01*
X70909999Y-27467239D01*
X70907196Y-27435753D01*
X70907195Y-27435748D01*
X70861913Y-27299293D01*
X70861910Y-27299289D01*
X70780016Y-27181114D01*
X70780014Y-27181112D01*
X70668146Y-27090801D01*
X70668137Y-27090795D01*
X70639640Y-27077114D01*
X70260000Y-26934749D01*
X70260000Y-27775000D01*
X69760000Y-27775000D01*
X69760000Y-26722769D01*
X69759999Y-26722768D01*
X69612103Y-26661507D01*
X69612100Y-26661506D01*
X69585000Y-26656115D01*
X69585000Y-27525272D01*
X69546940Y-27433386D01*
X69476614Y-27363060D01*
X69384728Y-27325000D01*
X69285272Y-27325000D01*
X69193386Y-27363060D01*
X69123060Y-27433386D01*
X69085000Y-27525272D01*
X69085000Y-26656116D01*
X69084999Y-26656115D01*
X69057899Y-26661506D01*
X69057896Y-26661507D01*
X68885008Y-26733119D01*
X68884999Y-26733124D01*
X68729410Y-26837086D01*
X68729406Y-26837089D01*
X68597089Y-26969406D01*
X68597086Y-26969410D01*
X68493124Y-27124999D01*
X68493119Y-27125008D01*
X68421508Y-27297894D01*
X68421506Y-27297900D01*
X68406117Y-27375268D01*
X68373732Y-27437179D01*
X68313016Y-27471753D01*
X68243247Y-27468013D01*
X68186575Y-27427146D01*
X68160994Y-27362128D01*
X68160500Y-27351076D01*
X68160500Y-26224500D01*
X68180185Y-26157461D01*
X68232989Y-26111706D01*
X68284500Y-26100500D01*
X74453481Y-26100500D01*
X74520520Y-26120185D01*
G37*
%TD.AperFunction*%
%TD*%
%TA.AperFunction,Conductor*%
%TO.N,Net-(J2-CC1)*%
G36*
X71274136Y-30543584D02*
G01*
X71277754Y-30547333D01*
X71457727Y-30845482D01*
X71545509Y-30990903D01*
X71546850Y-30999756D01*
X71542472Y-31006339D01*
X71162515Y-31288793D01*
X71153831Y-31290978D01*
X71146872Y-31287266D01*
X70753036Y-30853345D01*
X70750000Y-30845482D01*
X70750000Y-30659500D01*
X70753427Y-30651227D01*
X70759296Y-30648050D01*
X71265336Y-30541928D01*
X71274136Y-30543584D01*
G37*
%TD.AperFunction*%
%TD*%
%TA.AperFunction,Conductor*%
%TO.N,Net-(J2-CC2)*%
G36*
X71160509Y-29118841D02*
G01*
X71160608Y-29118889D01*
X71545018Y-29307072D01*
X71550942Y-29313786D01*
X71551536Y-29316637D01*
X71588538Y-29774851D01*
X71585788Y-29783373D01*
X71579419Y-29787213D01*
X70862592Y-29946828D01*
X70853772Y-29945282D01*
X70848629Y-29937951D01*
X70848349Y-29935408D01*
X70848349Y-29752632D01*
X70849477Y-29747620D01*
X71144925Y-29124401D01*
X71151565Y-29118393D01*
X71160509Y-29118841D01*
G37*
%TD.AperFunction*%
%TD*%
%TA.AperFunction,Conductor*%
%TO.N,Net-(J3-CC1)*%
G36*
X44631126Y-29170139D02*
G01*
X44971352Y-29697102D01*
X44973223Y-29703448D01*
X44973223Y-29887879D01*
X44969796Y-29896152D01*
X44961523Y-29899579D01*
X44961111Y-29899572D01*
X44274755Y-29875365D01*
X44266607Y-29871648D01*
X44263509Y-29864663D01*
X44249262Y-29697102D01*
X44224619Y-29407286D01*
X44227333Y-29398755D01*
X44230277Y-29396252D01*
X44615301Y-29166438D01*
X44624161Y-29165141D01*
X44631126Y-29170139D01*
G37*
%TD.AperFunction*%
%TD*%
%TA.AperFunction,Conductor*%
%TO.N,Net-(J3-CC2)*%
G36*
X44938293Y-30404311D02*
G01*
X44943055Y-30411895D01*
X44943220Y-30413852D01*
X44943220Y-30597125D01*
X44941887Y-30602548D01*
X44630408Y-31198048D01*
X44623537Y-31203790D01*
X44614646Y-31203007D01*
X44230046Y-31003142D01*
X44224285Y-30996286D01*
X44223749Y-30993191D01*
X44209360Y-30602548D01*
X44206881Y-30535248D01*
X44210001Y-30526856D01*
X44216615Y-30523284D01*
X44929563Y-30402317D01*
X44938293Y-30404311D01*
G37*
%TD.AperFunction*%
%TD*%
%TA.AperFunction,Conductor*%
%TO.N,+5V*%
G36*
X67802849Y-22755219D02*
G01*
X67808214Y-22761786D01*
X68338423Y-24393999D01*
X68337719Y-24402926D01*
X68336429Y-24404926D01*
X67703512Y-25195612D01*
X67695667Y-25199929D01*
X67694378Y-25200000D01*
X67110638Y-25200000D01*
X67102365Y-25196573D01*
X67098991Y-25189409D01*
X67024278Y-24404926D01*
X67000349Y-24153665D01*
X67001813Y-24146795D01*
X67786905Y-22759637D01*
X67793961Y-22754126D01*
X67802849Y-22755219D01*
G37*
%TD.AperFunction*%
%TD*%
%TA.AperFunction,Conductor*%
%TO.N,Net-(J1-CC2)*%
G36*
X84785895Y-35405698D02*
G01*
X85219814Y-35696524D01*
X85224778Y-35703977D01*
X85225000Y-35706243D01*
X85225000Y-35893756D01*
X85221573Y-35902029D01*
X85219814Y-35903475D01*
X84785897Y-36194300D01*
X84777117Y-36196059D01*
X84770615Y-36192328D01*
X84430844Y-35807747D01*
X84427934Y-35799278D01*
X84430844Y-35792253D01*
X84770616Y-35407670D01*
X84778661Y-35403740D01*
X84785895Y-35405698D01*
G37*
%TD.AperFunction*%
%TD*%
%TA.AperFunction,Conductor*%
%TO.N,Net-(J1-CC1)*%
G36*
X84823335Y-33838704D02*
G01*
X84829569Y-33844848D01*
X85146848Y-34576292D01*
X85146996Y-34585246D01*
X85144387Y-34589221D01*
X85013899Y-34719709D01*
X85005626Y-34723136D01*
X85001558Y-34722406D01*
X84343578Y-34478435D01*
X84337013Y-34472346D01*
X84336150Y-34465291D01*
X84423114Y-34005521D01*
X84428019Y-33998030D01*
X84430147Y-33996882D01*
X84814383Y-33838685D01*
X84823335Y-33838704D01*
G37*
%TD.AperFunction*%
%TD*%
%TA.AperFunction,Conductor*%
%TO.N,+5V*%
G36*
X5143345Y-19943760D02*
G01*
X5715875Y-20072941D01*
X5723191Y-20078105D01*
X5725000Y-20084354D01*
X5725000Y-20665645D01*
X5721573Y-20673918D01*
X5715875Y-20677058D01*
X5143347Y-20806238D01*
X5134523Y-20804716D01*
X5131541Y-20802014D01*
X4804597Y-20382188D01*
X4802218Y-20373556D01*
X4804597Y-20367812D01*
X5131542Y-19947983D01*
X5139328Y-19943563D01*
X5143345Y-19943760D01*
G37*
%TD.AperFunction*%
%TD*%
%TA.AperFunction,Conductor*%
%TO.N,+5V*%
G36*
X57733527Y-20621925D02*
G01*
X58195633Y-20772638D01*
X58202436Y-20778461D01*
X58202783Y-20779209D01*
X58387435Y-21216383D01*
X58387497Y-21225337D01*
X58383471Y-21230446D01*
X57722876Y-21703675D01*
X57714154Y-21705707D01*
X57707789Y-21702437D01*
X57297257Y-21291905D01*
X57293830Y-21283632D01*
X57295729Y-21277242D01*
X57720100Y-20626654D01*
X57727490Y-20621599D01*
X57733527Y-20621925D01*
G37*
%TD.AperFunction*%
%TD*%
%TA.AperFunction,Conductor*%
%TO.N,+5V*%
G36*
X47324306Y-6108231D02*
G01*
X47327331Y-6113462D01*
X47441957Y-6539197D01*
X47440799Y-6548077D01*
X47433701Y-6553537D01*
X47432987Y-6553705D01*
X47202328Y-6600527D01*
X47197672Y-6600527D01*
X46967012Y-6553705D01*
X46959586Y-6548701D01*
X46957874Y-6539911D01*
X46958035Y-6539226D01*
X47072669Y-6113462D01*
X47078129Y-6106364D01*
X47083967Y-6104804D01*
X47316033Y-6104804D01*
X47324306Y-6108231D01*
G37*
%TD.AperFunction*%
%TD*%
%TA.AperFunction,Conductor*%
%TO.N,+5V*%
G36*
X42774995Y-28528427D02*
G01*
X42777755Y-28532806D01*
X42957200Y-29041168D01*
X42956722Y-29050110D01*
X42954071Y-29053689D01*
X42582904Y-29393758D01*
X42574489Y-29396820D01*
X42567096Y-29393758D01*
X42195928Y-29053689D01*
X42192143Y-29045573D01*
X42192799Y-29041168D01*
X42372245Y-28532806D01*
X42378230Y-28526145D01*
X42383278Y-28525000D01*
X42766722Y-28525000D01*
X42774995Y-28528427D01*
G37*
%TD.AperFunction*%
%TD*%
%TA.AperFunction,Conductor*%
%TO.N,+5V*%
G36*
X67461372Y-25059106D02*
G01*
X67866059Y-25197296D01*
X67872780Y-25203211D01*
X67873977Y-25208367D01*
X67873977Y-25587009D01*
X67870550Y-25595282D01*
X67862277Y-25598709D01*
X67861057Y-25598645D01*
X67363934Y-25546528D01*
X67356063Y-25542257D01*
X67353518Y-25533672D01*
X67353667Y-25532667D01*
X67399000Y-25300000D01*
X67446125Y-25067848D01*
X67451128Y-25060424D01*
X67459918Y-25058712D01*
X67461372Y-25059106D01*
G37*
%TD.AperFunction*%
%TD*%
%TA.AperFunction,Conductor*%
%TO.N,+5V*%
G36*
X73740393Y-28582980D02*
G01*
X74010870Y-28853457D01*
X74014297Y-28861730D01*
X74012356Y-28868184D01*
X73605495Y-29483364D01*
X73598073Y-29488374D01*
X73590920Y-29487573D01*
X73205212Y-29313380D01*
X73199083Y-29306852D01*
X73198432Y-29304272D01*
X73136828Y-28843792D01*
X73139128Y-28835139D01*
X73143799Y-28831496D01*
X73727499Y-28580504D01*
X73736452Y-28580385D01*
X73740393Y-28582980D01*
G37*
%TD.AperFunction*%
%TD*%
%TA.AperFunction,Conductor*%
%TO.N,+5V*%
G36*
X75604423Y-26438194D02*
G01*
X75989844Y-26596879D01*
X75996189Y-26603197D01*
X75996885Y-26605523D01*
X76084085Y-27066536D01*
X76082256Y-27075301D01*
X76078079Y-27079042D01*
X75489759Y-27391664D01*
X75480845Y-27392520D01*
X75475996Y-27389605D01*
X75205650Y-27119259D01*
X75202223Y-27110986D01*
X75203814Y-27105096D01*
X75589866Y-26443118D01*
X75596992Y-26437700D01*
X75604423Y-26438194D01*
G37*
%TD.AperFunction*%
%TD*%
%TA.AperFunction,Conductor*%
%TO.N,+5V*%
G36*
X6801684Y-27979427D02*
G01*
X6803416Y-27981634D01*
X7257244Y-28730156D01*
X7258603Y-28739007D01*
X7255518Y-28744490D01*
X6508279Y-29492710D01*
X6500008Y-29496142D01*
X6491732Y-29492721D01*
X6491721Y-29492710D01*
X5744481Y-28744490D01*
X5741060Y-28736214D01*
X5742754Y-28730158D01*
X6196584Y-27981633D01*
X6203804Y-27976336D01*
X6206589Y-27976000D01*
X6793411Y-27976000D01*
X6801684Y-27979427D01*
G37*
%TD.AperFunction*%
%TD*%
%TA.AperFunction,Conductor*%
%TO.N,+5V*%
G36*
X54607885Y-21942428D02*
G01*
X54610517Y-21944073D01*
X55394501Y-22434063D01*
X55399700Y-22441354D01*
X55400000Y-22443985D01*
X55400000Y-23031014D01*
X55396573Y-23039287D01*
X55394501Y-23040936D01*
X54607887Y-23532570D01*
X54599055Y-23534048D01*
X54593418Y-23530926D01*
X53807288Y-22745778D01*
X53803856Y-22737507D01*
X53807278Y-22729232D01*
X53807288Y-22729222D01*
X54593419Y-21944072D01*
X54601693Y-21940651D01*
X54607885Y-21942428D01*
G37*
%TD.AperFunction*%
%TD*%
%TA.AperFunction,Conductor*%
%TO.N,+5V*%
G36*
X25943345Y-16943760D02*
G01*
X26515875Y-17072941D01*
X26523191Y-17078105D01*
X26525000Y-17084354D01*
X26525000Y-17665645D01*
X26521573Y-17673918D01*
X26515875Y-17677058D01*
X25943347Y-17806238D01*
X25934523Y-17804716D01*
X25931541Y-17802014D01*
X25604597Y-17382188D01*
X25602218Y-17373556D01*
X25604597Y-17367812D01*
X25931542Y-16947983D01*
X25939328Y-16943563D01*
X25943345Y-16943760D01*
G37*
%TD.AperFunction*%
%TD*%
%TA.AperFunction,Conductor*%
%TO.N,+5V*%
G36*
X46997833Y-5229972D02*
G01*
X47004007Y-5236458D01*
X47004083Y-5236659D01*
X47319270Y-6100735D01*
X47318885Y-6109681D01*
X47312287Y-6115736D01*
X47308278Y-6116444D01*
X47076958Y-6116444D01*
X47073148Y-6115806D01*
X46385345Y-5878896D01*
X46378639Y-5872962D01*
X46378093Y-5864024D01*
X46378157Y-5863844D01*
X46548167Y-5403956D01*
X46554250Y-5397385D01*
X46554918Y-5397103D01*
X46988883Y-5229752D01*
X46997833Y-5229972D01*
G37*
%TD.AperFunction*%
%TD*%
%TA.AperFunction,Conductor*%
%TO.N,+5V*%
G36*
X71733421Y-20616448D02*
G01*
X72195661Y-20772588D01*
X72202403Y-20778483D01*
X72202735Y-20779216D01*
X72382803Y-21216280D01*
X72382786Y-21225235D01*
X72378636Y-21230362D01*
X71707846Y-21693896D01*
X71699092Y-21695780D01*
X71692922Y-21692544D01*
X71282400Y-21282022D01*
X71278973Y-21273749D01*
X71280995Y-21267174D01*
X71720004Y-20620957D01*
X71727486Y-20616042D01*
X71733421Y-20616448D01*
G37*
%TD.AperFunction*%
%TD*%
%TA.AperFunction,Conductor*%
%TO.N,+5V*%
G36*
X75489759Y-25808335D02*
G01*
X76078079Y-26120958D01*
X76083776Y-26127865D01*
X76084084Y-26133463D01*
X75996885Y-26594476D01*
X75991980Y-26601969D01*
X75989843Y-26603121D01*
X75604425Y-26761804D01*
X75595471Y-26761785D01*
X75589865Y-26756879D01*
X75203815Y-26094904D01*
X75202609Y-26086034D01*
X75205648Y-26080742D01*
X75475997Y-25810393D01*
X75484269Y-25806967D01*
X75489759Y-25808335D01*
G37*
%TD.AperFunction*%
%TD*%
%TA.AperFunction,Conductor*%
%TO.N,+5V*%
G36*
X43000960Y-27766955D02*
G01*
X43098552Y-27831613D01*
X43198726Y-27897981D01*
X43202018Y-27901273D01*
X43333043Y-28099037D01*
X43334755Y-28107826D01*
X43330687Y-28114563D01*
X42999458Y-28384891D01*
X42990882Y-28387467D01*
X42983787Y-28384100D01*
X42715899Y-28116212D01*
X42712472Y-28107939D01*
X42715106Y-28100544D01*
X42985437Y-27769311D01*
X42993322Y-27765070D01*
X43000960Y-27766955D01*
G37*
%TD.AperFunction*%
%TD*%
%TA.AperFunction,Conductor*%
%TO.N,+5V*%
G36*
X8649003Y-20678601D02*
G01*
X8653067Y-20684265D01*
X9197284Y-22327870D01*
X9196631Y-22336801D01*
X9190643Y-22342362D01*
X8409873Y-22664792D01*
X8400918Y-22664783D01*
X8395043Y-22659407D01*
X8226795Y-22338207D01*
X7626174Y-21191566D01*
X7625371Y-21182647D01*
X7628263Y-21177866D01*
X8043677Y-20762452D01*
X8050322Y-20759139D01*
X8640334Y-20676356D01*
X8649003Y-20678601D01*
G37*
%TD.AperFunction*%
%TD*%
%TA.AperFunction,Conductor*%
%TO.N,+5V*%
G36*
X30301684Y-21979427D02*
G01*
X30303416Y-21981634D01*
X30757244Y-22730156D01*
X30758603Y-22739007D01*
X30755518Y-22744490D01*
X30008279Y-23492710D01*
X30000008Y-23496142D01*
X29991732Y-23492721D01*
X29991721Y-23492710D01*
X29244481Y-22744490D01*
X29241060Y-22736214D01*
X29242754Y-22730158D01*
X29696584Y-21981633D01*
X29703804Y-21976336D01*
X29706589Y-21976000D01*
X30293411Y-21976000D01*
X30301684Y-21979427D01*
G37*
%TD.AperFunction*%
%TD*%
%TA.AperFunction,Conductor*%
%TO.N,+5V*%
G36*
X30005377Y-19151565D02*
G01*
X30010391Y-19156579D01*
X30778223Y-20640364D01*
X30778982Y-20649286D01*
X30778280Y-20651007D01*
X30303243Y-21593566D01*
X30296460Y-21599411D01*
X30292795Y-21600000D01*
X29707205Y-21600000D01*
X29698932Y-21596573D01*
X29696757Y-21593566D01*
X29221719Y-20651007D01*
X29221056Y-20642077D01*
X29221776Y-20640364D01*
X29989609Y-19156579D01*
X29996455Y-19150806D01*
X30005377Y-19151565D01*
G37*
%TD.AperFunction*%
%TD*%
%TA.AperFunction,Conductor*%
%TO.N,+5V*%
G36*
X9202068Y-22358125D02*
G01*
X9207576Y-22365185D01*
X9207671Y-22365551D01*
X9601967Y-23993718D01*
X9600584Y-24002565D01*
X9598980Y-24004632D01*
X8854718Y-24769318D01*
X8846492Y-24772857D01*
X8838174Y-24769542D01*
X8838061Y-24769431D01*
X8425433Y-24356803D01*
X8422014Y-24348960D01*
X8400121Y-23753311D01*
X8401632Y-23747119D01*
X9186121Y-22362535D01*
X9193180Y-22357029D01*
X9202068Y-22358125D01*
G37*
%TD.AperFunction*%
%TD*%
%TA.AperFunction,Conductor*%
%TO.N,+5V*%
G36*
X29206016Y-17836644D02*
G01*
X29208216Y-17839281D01*
X29441830Y-18222184D01*
X29994607Y-19128209D01*
X29995990Y-19137056D01*
X29990713Y-19144290D01*
X29990703Y-19144296D01*
X29208821Y-19620266D01*
X29199972Y-19621641D01*
X29193576Y-19617549D01*
X28817648Y-19144296D01*
X28428672Y-18654616D01*
X28426210Y-18646009D01*
X28429560Y-18639069D01*
X28846447Y-18222183D01*
X29189500Y-17837585D01*
X29197561Y-17833694D01*
X29206016Y-17836644D01*
G37*
%TD.AperFunction*%
%TD*%
%TA.AperFunction,Conductor*%
%TO.N,+5V*%
G36*
X47432988Y-6646294D02*
G01*
X47440413Y-6651298D01*
X47442125Y-6660088D01*
X47441957Y-6660802D01*
X47327331Y-7086538D01*
X47321871Y-7093636D01*
X47316033Y-7095196D01*
X47083967Y-7095196D01*
X47075694Y-7091769D01*
X47072669Y-7086538D01*
X47058549Y-7034097D01*
X46958042Y-6660800D01*
X46959200Y-6651922D01*
X46966298Y-6646462D01*
X46966985Y-6646300D01*
X47197675Y-6599472D01*
X47202325Y-6599472D01*
X47432988Y-6646294D01*
G37*
%TD.AperFunction*%
%TD*%
%TA.AperFunction,Conductor*%
%TO.N,+5V*%
G36*
X53802849Y-22755219D02*
G01*
X53808214Y-22761786D01*
X54338423Y-24393999D01*
X54337719Y-24402926D01*
X54336429Y-24404926D01*
X53703512Y-25195612D01*
X53695667Y-25199929D01*
X53694378Y-25200000D01*
X53110638Y-25200000D01*
X53102365Y-25196573D01*
X53098991Y-25189409D01*
X53024278Y-24404926D01*
X53000349Y-24153665D01*
X53001813Y-24146795D01*
X53786905Y-22759637D01*
X53793961Y-22754126D01*
X53802849Y-22755219D01*
G37*
%TD.AperFunction*%
%TD*%
%TA.AperFunction,Conductor*%
%TO.N,+5V*%
G36*
X73207902Y-29316240D02*
G01*
X73579071Y-29656310D01*
X73582856Y-29664426D01*
X73582200Y-29668831D01*
X73402755Y-30177194D01*
X73396770Y-30183855D01*
X73391722Y-30185000D01*
X73008278Y-30185000D01*
X73000005Y-30181573D01*
X72997245Y-30177194D01*
X72817799Y-29668831D01*
X72818277Y-29659889D01*
X72820925Y-29656312D01*
X73192097Y-29316240D01*
X73200511Y-29313179D01*
X73207902Y-29316240D01*
G37*
%TD.AperFunction*%
%TD*%
%TA.AperFunction,Conductor*%
%TO.N,+5V*%
G36*
X73399995Y-30128427D02*
G01*
X73402755Y-30132806D01*
X73582200Y-30641168D01*
X73581722Y-30650110D01*
X73579071Y-30653689D01*
X73207904Y-30993758D01*
X73199489Y-30996820D01*
X73192096Y-30993758D01*
X72820928Y-30653689D01*
X72817143Y-30645573D01*
X72817799Y-30641168D01*
X72997245Y-30132806D01*
X73003230Y-30126145D01*
X73008278Y-30125000D01*
X73391722Y-30125000D01*
X73399995Y-30128427D01*
G37*
%TD.AperFunction*%
%TD*%
%TA.AperFunction,Conductor*%
%TO.N,+5V*%
G36*
X42582902Y-29406240D02*
G01*
X42954071Y-29746310D01*
X42957856Y-29754426D01*
X42957200Y-29758831D01*
X42777755Y-30267194D01*
X42771770Y-30273855D01*
X42766722Y-30275000D01*
X42383278Y-30275000D01*
X42375005Y-30271573D01*
X42372245Y-30267194D01*
X42192799Y-29758831D01*
X42193277Y-29749889D01*
X42195925Y-29746312D01*
X42567097Y-29406240D01*
X42575511Y-29403179D01*
X42582902Y-29406240D01*
G37*
%TD.AperFunction*%
%TD*%
%TA.AperFunction,Conductor*%
%TO.N,+5V*%
G36*
X42774995Y-30128427D02*
G01*
X42777755Y-30132806D01*
X42957200Y-30641168D01*
X42956722Y-30650110D01*
X42954071Y-30653689D01*
X42582904Y-30993758D01*
X42574489Y-30996820D01*
X42567096Y-30993758D01*
X42195928Y-30653689D01*
X42192143Y-30645573D01*
X42192799Y-30641168D01*
X42372245Y-30132806D01*
X42378230Y-30126145D01*
X42383278Y-30125000D01*
X42766722Y-30125000D01*
X42774995Y-30128427D01*
G37*
%TD.AperFunction*%
%TD*%
%TA.AperFunction,Conductor*%
%TO.N,+5V*%
G36*
X68607885Y-21942428D02*
G01*
X68610517Y-21944073D01*
X69394501Y-22434063D01*
X69399700Y-22441354D01*
X69400000Y-22443985D01*
X69400000Y-23031014D01*
X69396573Y-23039287D01*
X69394501Y-23040936D01*
X68607887Y-23532570D01*
X68599055Y-23534048D01*
X68593418Y-23530926D01*
X67807288Y-22745778D01*
X67803856Y-22737507D01*
X67807278Y-22729232D01*
X67807288Y-22729222D01*
X68593419Y-21944072D01*
X68601693Y-21940651D01*
X68607885Y-21942428D01*
G37*
%TD.AperFunction*%
%TD*%
%TA.AperFunction,Conductor*%
%TO.N,Net-(U3-XIN)*%
G36*
X32898839Y-6155218D02*
G01*
X32903457Y-6161048D01*
X33276959Y-7195715D01*
X33276545Y-7204661D01*
X33274227Y-7207961D01*
X33108245Y-7373943D01*
X33099972Y-7377370D01*
X33095474Y-7376471D01*
X33089404Y-7373943D01*
X32939356Y-7311448D01*
X31962237Y-6904483D01*
X31955917Y-6898138D01*
X31955919Y-6889220D01*
X32196937Y-6305003D01*
X32203260Y-6298662D01*
X32205330Y-6298019D01*
X32890038Y-6153573D01*
X32898839Y-6155218D01*
G37*
%TD.AperFunction*%
%TD*%
%TA.AperFunction,Conductor*%
%TO.N,Net-(U3-XIN)*%
G36*
X31656139Y-5722033D02*
G01*
X31659484Y-5724508D01*
X32192512Y-6290980D01*
X32195686Y-6299354D01*
X32192009Y-6307519D01*
X32191512Y-6307961D01*
X31579960Y-6821123D01*
X31571419Y-6823815D01*
X31565919Y-6821875D01*
X30905180Y-6378476D01*
X30900220Y-6371021D01*
X30900000Y-6368761D01*
X30900000Y-5983384D01*
X30903427Y-5975111D01*
X30907937Y-5972306D01*
X31647205Y-5721447D01*
X31656139Y-5722033D01*
G37*
%TD.AperFunction*%
%TD*%
%TA.AperFunction,Conductor*%
%TO.N,Net-(U3-XIN)*%
G36*
X30544251Y-5745348D02*
G01*
X31117602Y-5972074D01*
X31124036Y-5978303D01*
X31125000Y-5982954D01*
X31125000Y-6367045D01*
X31121573Y-6375318D01*
X31117602Y-6377925D01*
X30544253Y-6604650D01*
X30535300Y-6604506D01*
X30530720Y-6600959D01*
X30357030Y-6377925D01*
X30204597Y-6182188D01*
X30202218Y-6173556D01*
X30204597Y-6167812D01*
X30530720Y-5749039D01*
X30538507Y-5744618D01*
X30544251Y-5745348D01*
G37*
%TD.AperFunction*%
%TD*%
%TA.AperFunction,Conductor*%
%TO.N,Net-(U3-XOUT)*%
G36*
X34178363Y-3403110D02*
G01*
X34816259Y-3993042D01*
X34820006Y-4001175D01*
X34817877Y-4008374D01*
X34405803Y-4592769D01*
X34398235Y-4597556D01*
X34390998Y-4596486D01*
X33707108Y-4253564D01*
X33701249Y-4246793D01*
X33700698Y-4242082D01*
X33774058Y-3410671D01*
X33778199Y-3402732D01*
X33785713Y-3400000D01*
X34170419Y-3400000D01*
X34178363Y-3403110D01*
G37*
%TD.AperFunction*%
%TD*%
%TA.AperFunction,Conductor*%
%TO.N,Net-(U3-XOUT)*%
G36*
X33982187Y-2804597D02*
G01*
X34230875Y-2998265D01*
X34400959Y-3130720D01*
X34405381Y-3138507D01*
X34404650Y-3144253D01*
X34177925Y-3717602D01*
X34171696Y-3724036D01*
X34167045Y-3725000D01*
X33782955Y-3725000D01*
X33774682Y-3721573D01*
X33772075Y-3717602D01*
X33545349Y-3144253D01*
X33545493Y-3135300D01*
X33549039Y-3130721D01*
X33967811Y-2804597D01*
X33976444Y-2802218D01*
X33982187Y-2804597D01*
G37*
%TD.AperFunction*%
%TD*%
%TA.AperFunction,Conductor*%
%TO.N,Net-(U3-XOUT)*%
G36*
X35098839Y-4455218D02*
G01*
X35103457Y-4461048D01*
X35476959Y-5495715D01*
X35476545Y-5504661D01*
X35474227Y-5507961D01*
X35308245Y-5673943D01*
X35299972Y-5677370D01*
X35295474Y-5676471D01*
X35289404Y-5673943D01*
X35139356Y-5611448D01*
X34162237Y-5204483D01*
X34155917Y-5198138D01*
X34155919Y-5189220D01*
X34396937Y-4605003D01*
X34403260Y-4598662D01*
X34405330Y-4598019D01*
X35090038Y-4453573D01*
X35098839Y-4455218D01*
G37*
%TD.AperFunction*%
%TD*%
%TA.AperFunction,Conductor*%
%TO.N,Net-(U3-VDD18)*%
G36*
X40584813Y-3371965D02*
G01*
X41020849Y-3596788D01*
X41026632Y-3603625D01*
X41026903Y-3604626D01*
X41129813Y-4063302D01*
X41128281Y-4072124D01*
X41120958Y-4077279D01*
X41120679Y-4077338D01*
X40351324Y-4230366D01*
X40342542Y-4228619D01*
X40340769Y-4227164D01*
X40174829Y-4061224D01*
X40171402Y-4052951D01*
X40173029Y-4047000D01*
X40569381Y-3376411D01*
X40576540Y-3371033D01*
X40584813Y-3371965D01*
G37*
%TD.AperFunction*%
%TD*%
%TA.AperFunction,Conductor*%
%TO.N,Net-(U3-VDD33)*%
G36*
X41032187Y-5404597D02*
G01*
X41450169Y-5730104D01*
X41454591Y-5737891D01*
X41453349Y-5744756D01*
X41153283Y-6318721D01*
X41146413Y-6324465D01*
X41142914Y-6325000D01*
X40907086Y-6325000D01*
X40898813Y-6321573D01*
X40896717Y-6318721D01*
X40596650Y-5744756D01*
X40595854Y-5735836D01*
X40599828Y-5730106D01*
X41017811Y-5404597D01*
X41026444Y-5402218D01*
X41032187Y-5404597D01*
G37*
%TD.AperFunction*%
%TD*%
%TA.AperFunction,Conductor*%
%TO.N,Net-(D1-A)*%
G36*
X78005241Y-26203506D02*
G01*
X78438074Y-26396905D01*
X78444228Y-26403408D01*
X78445000Y-26407586D01*
X78445000Y-26792413D01*
X78441573Y-26800686D01*
X78438073Y-26803095D01*
X78005242Y-26996492D01*
X77996291Y-26996738D01*
X77991701Y-26993557D01*
X77821303Y-26800686D01*
X77650843Y-26607746D01*
X77647934Y-26599278D01*
X77650844Y-26592253D01*
X77813994Y-26407586D01*
X77991702Y-26206441D01*
X77999747Y-26202511D01*
X78005241Y-26203506D01*
G37*
%TD.AperFunction*%
%TD*%
%TA.AperFunction,Conductor*%
%TO.N,Net-(D1-A)*%
G36*
X79284416Y-26169796D02*
G01*
X79608061Y-26592891D01*
X79610366Y-26601545D01*
X79608061Y-26607109D01*
X79284416Y-27030203D01*
X79276668Y-27034692D01*
X79270422Y-27033808D01*
X78744499Y-26803070D01*
X78738300Y-26796608D01*
X78737500Y-26792356D01*
X78737500Y-26407643D01*
X78740927Y-26399370D01*
X78744497Y-26396929D01*
X79270422Y-26166190D01*
X79279375Y-26166005D01*
X79284416Y-26169796D01*
G37*
%TD.AperFunction*%
%TD*%
%TA.AperFunction,Conductor*%
%TO.N,/deviceA1/D+*%
G36*
X33866735Y-22317591D02*
G01*
X34239831Y-22511386D01*
X34911760Y-22860402D01*
X34917522Y-22867257D01*
X34916750Y-22876178D01*
X34916100Y-22877278D01*
X34502697Y-23496956D01*
X34495255Y-23501937D01*
X34495232Y-23501941D01*
X33764758Y-23646265D01*
X33755977Y-23644507D01*
X33751012Y-23637055D01*
X33750906Y-23636431D01*
X33731814Y-23501941D01*
X33566913Y-22340319D01*
X33566896Y-22340187D01*
X33566763Y-22339070D01*
X33566777Y-22338944D01*
X33566893Y-22337300D01*
X33565637Y-22329576D01*
X33565611Y-22329352D01*
X33566763Y-22325261D01*
X33567736Y-22321136D01*
X33567966Y-22320993D01*
X33568040Y-22320733D01*
X33571745Y-22318656D01*
X33575352Y-22316426D01*
X33575788Y-22316390D01*
X33575852Y-22316355D01*
X33575936Y-22316378D01*
X33577230Y-22316274D01*
X33861342Y-22316274D01*
X33866735Y-22317591D01*
G37*
%TD.AperFunction*%
%TD*%
%TA.AperFunction,Conductor*%
%TO.N,/deviceA1/D-*%
G36*
X33431295Y-22319701D02*
G01*
X33434722Y-22327974D01*
X33434606Y-22329618D01*
X33249093Y-23636431D01*
X33244537Y-23644141D01*
X33235865Y-23646371D01*
X33235241Y-23646265D01*
X32504767Y-23501941D01*
X32497315Y-23496976D01*
X32497302Y-23496956D01*
X32083899Y-22877278D01*
X32082158Y-22868494D01*
X32087139Y-22861052D01*
X32088225Y-22860410D01*
X33110110Y-22329618D01*
X33133265Y-22317591D01*
X33138658Y-22316274D01*
X33423022Y-22316274D01*
X33431295Y-22319701D01*
G37*
%TD.AperFunction*%
%TD*%
%TA.AperFunction,Conductor*%
%TO.N,/deviceA2/D+*%
G36*
X10366735Y-28317591D02*
G01*
X10739831Y-28511386D01*
X11411760Y-28860402D01*
X11417522Y-28867257D01*
X11416750Y-28876178D01*
X11416100Y-28877278D01*
X11002697Y-29496956D01*
X10995255Y-29501937D01*
X10995232Y-29501941D01*
X10264758Y-29646265D01*
X10255977Y-29644507D01*
X10251012Y-29637055D01*
X10250906Y-29636431D01*
X10231681Y-29501000D01*
X10065394Y-28329617D01*
X10067624Y-28320946D01*
X10075334Y-28316390D01*
X10076978Y-28316274D01*
X10361342Y-28316274D01*
X10366735Y-28317591D01*
G37*
%TD.AperFunction*%
%TD*%
%TA.AperFunction,Conductor*%
%TO.N,/deviceA2/D-*%
G36*
X9931294Y-28319701D02*
G01*
X9934721Y-28327974D01*
X9934605Y-28329618D01*
X9749093Y-29636431D01*
X9744537Y-29644141D01*
X9735865Y-29646371D01*
X9735241Y-29646265D01*
X9004767Y-29501941D01*
X8997315Y-29496976D01*
X8997302Y-29496956D01*
X8583899Y-28877278D01*
X8582158Y-28868494D01*
X8587139Y-28861052D01*
X8588225Y-28860410D01*
X9610110Y-28329618D01*
X9633265Y-28317591D01*
X9638658Y-28316274D01*
X9923021Y-28316274D01*
X9931294Y-28319701D01*
G37*
%TD.AperFunction*%
%TD*%
M02*
