M48
; DRILL file {KiCad 9.0.3} date 2026-02-17T21:32:02+0900
; FORMAT={-:-/ absolute / inch / decimal}
; #@! TF.CreationDate,2026-02-17T21:32:02+09:00
; #@! TF.GenerationSoftware,Kicad,Pcbnew,9.0.3
; #@! TF.FileFunction,Plated,1,2,PTH
FMAT,2
INCH
; #@! TA.AperFunction,Plated,PTH,ViaDrill
T1C0.0118
; #@! TA.AperFunction,Plated,PTH,ComponentDrill
T2C0.0197
; #@! TA.AperFunction,Plated,PTH,ComponentDrill
T3C0.0362
; #@! TA.AperFunction,Plated,PTH,ComponentDrill
T4C0.0906
%
G90
G05
T1
X0.1181Y-0.5118
X0.2849Y-0.8022
X0.2953Y-1.437
X0.315Y-1.2205
X0.3937Y-1.2205
X0.4528Y-0.3346
X0.4528Y-1.0827
X0.4724Y-1.0433
X0.4724Y-1.2205
X0.6299Y-0.7283
X0.6693Y-0.689
X0.7087Y-0.6496
X0.7087Y-0.8071
X0.7283Y-0.4528
X0.748Y-0.6102
X0.7677Y-0.748
X0.7874Y-0.1378
X0.7874Y-0.5709
X0.8268Y-0.5315
X0.8268Y-0.689
X0.8661Y-0.4921
X0.8858Y-0.6299
X0.8858Y-1.2205
X0.9055Y-0.4528
X0.9449Y-0.4134
X0.9449Y-0.5709
X0.9843Y-0.374
X1.0039Y-0.5118
X1.0433Y-0.3543
X1.063Y-0.4724
X1.0866Y-0.685
X1.1024Y-0.3543
X1.122Y-0.0984
X1.122Y-0.4528
X1.1614Y-0.3543
X1.2008Y-0.4528
X1.2205Y-0.3543
X1.2598Y-0.4528
X1.2795Y-0.3543
X1.2795Y-1.0039
X1.3189Y-0.4528
X1.3189Y-1.0039
X1.3583Y-0.6102
X1.378Y-1.0039
X1.378Y-1.2008
X1.3976Y-0.4528
X1.3976Y-0.5709
X1.437Y-0.5315
X1.4567Y-0.4528
X1.4567Y-0.6693
X1.4764Y-0.0984
X1.4764Y-0.4921
X1.4961Y-0.6299
X1.5157Y-0.4528
X1.5354Y-0.5906
X1.5748Y-0.5512
X1.6142Y-0.5118
X1.6339Y-0.6496
X1.6732Y-0.4921
X1.7008Y-1.0984
X1.7717Y-0.4921
X1.811Y-0.5118
X1.811Y-0.7677
X1.8504Y-0.0787
X1.8504Y-0.5512
X1.8583Y-0.2598
X1.8898Y-0.5906
X1.9094Y-0.4528
X1.9134Y-1.0
X1.9291Y-0.2953
X1.9291Y-0.6299
X1.9291Y-0.689
X1.9291Y-0.748
X1.9291Y-0.8071
X1.9291Y-0.8661
X1.9291Y-0.9252
X1.9488Y-0.4921
X1.9882Y-0.2953
X1.9882Y-0.4528
X1.9882Y-0.5315
X2.0276Y-0.5709
X2.0472Y-0.2953
X2.0472Y-0.4921
X2.0472Y-0.6299
X2.0472Y-0.689
X2.0472Y-0.748
X2.0472Y-0.8071
X2.0472Y-0.8661
X2.0472Y-0.9252
X2.0866Y-0.5315
X2.1024Y-1.0
X2.1063Y-0.2953
X2.126Y-0.5709
X2.1457Y-0.4331
X2.1654Y-0.2953
X2.185Y-0.1969
X2.185Y-0.4724
X2.2047Y-0.4134
X2.2047Y-0.6496
X2.2244Y-0.2953
X2.2244Y-0.5118
X2.2441Y-0.689
X2.2638Y-0.4134
X2.2638Y-0.5512
X2.2835Y-0.2953
X2.2835Y-1.1811
X2.3031Y-0.5906
X2.3228Y-0.4134
X2.3425Y-0.2953
X2.3425Y-0.6299
X2.3622Y-0.8071
X2.3819Y-0.4134
X2.3819Y-0.6693
X2.4016Y-0.2953
X2.4016Y-0.8465
X2.4213Y-0.7087
X2.4409Y-0.4134
X2.4409Y-0.8858
X2.4606Y-0.2953
X2.4606Y-0.748
X2.4626Y-0.9961
X2.4803Y-0.9252
X2.5Y-0.4134
X2.5Y-0.7874
X2.5197Y-0.2953
X2.5394Y-0.8268
X2.5591Y-0.4134
X2.5787Y-0.2953
X2.5787Y-0.8661
X2.5984Y-0.9252
X2.6181Y-0.4134
X2.6378Y-0.2953
X2.6535Y-0.9961
X2.6575Y-0.0984
X2.6772Y-0.4134
X2.6969Y-0.2953
X2.7362Y-0.4134
X2.7559Y-0.2953
X2.7953Y-0.4134
X2.815Y-0.2953
X2.8543Y-0.4331
X2.874Y-0.315
X2.8937Y-0.4724
X2.9134Y-0.3543
X2.9331Y-0.5118
X2.9528Y-0.3937
X2.9724Y-0.5512
X2.9921Y-0.4331
X3.0118Y-0.5906
X3.0315Y-0.4724
X3.0512Y-0.6299
X3.0709Y-0.2362
X3.0709Y-0.5118
X3.0709Y-1.3189
X3.0906Y-0.6693
X3.1102Y-0.5512
X3.1299Y-0.7087
X3.1496Y-0.5906
X3.1693Y-0.748
X3.189Y-0.6299
X3.2087Y-0.7874
X3.2283Y-0.6693
X3.248Y-0.8268
X3.2677Y-0.7087
X3.2874Y-0.8661
X3.3071Y-0.748
X3.3268Y-0.9055
X3.3465Y-0.7874
X3.3661Y-0.9449
X3.3858Y-0.8268
X3.4055Y-0.4134
X3.4055Y-0.9843
X3.4252Y-0.8661
X3.4449Y-1.0236
X3.4646Y-0.9055
X3.4843Y-1.063
X3.4882Y-1.1969
X3.5039Y-0.9449
X3.5039Y-1.1024
X3.5433Y-0.9843
X3.5827Y-1.0236
X3.5827Y-1.4961
X3.622Y-1.0827
X3.622Y-1.1417
X3.6772Y-1.1969
X3.6811Y-0.689
X3.878Y-1.2008
T3
X0.2559Y-1.1614
X0.3543Y-1.1614
X0.4331Y-1.1614
X0.5315Y-1.1614
X1.1811Y-0.9252
X1.2795Y-0.9252
X1.3583Y-0.9252
X1.4567Y-0.9252
T4
X0.1309Y-1.2681
X0.6565Y-1.2681
X1.0561Y-1.0319
X1.5817Y-1.0319
T2
G00X1.838Y-1.1211
M15
G01X1.838Y-1.0856
M16
G05
G00X1.838Y-1.2797
M15
G01X1.838Y-1.2561
M16
G05
G00X2.1785Y-1.1211
M15
G01X2.1785Y-1.0856
M16
G05
G00X2.1785Y-1.2797
M15
G01X2.1785Y-1.2561
M16
G05
G00X2.3892Y-1.1211
M15
G01X2.3892Y-1.0856
M16
G05
G00X2.3892Y-1.2797
M15
G01X2.3892Y-1.2561
M16
G05
G00X2.7297Y-1.1211
M15
G01X2.7297Y-1.0856
M16
G05
G00X2.7297Y-1.2797
M15
G01X2.7297Y-1.2561
M16
G05
G00X3.4128Y-1.3415
M15
G01X3.4128Y-1.3061
M16
G05
G00X3.4128Y-1.5002
M15
G01X3.4128Y-1.4766
M16
G05
G00X3.7533Y-1.3415
M15
G01X3.7533Y-1.3061
M16
G05
G00X3.7533Y-1.5002
M15
G01X3.7533Y-1.4766
M16
G05
M30
